<svg width="495" height="352" viewBox="0 0 495 352" fill="none" xmlns="http://www.w3.org/2000/svg">
<path d="M494 332.337V419H400.303L242.203 272.522L241.564 271.929L240.89 272.482C170.341 330.303 91.8089 379.804 7.14425 418.876L-89 363.695V-59.3361L-22.4439 -121H434.319L493.835 -31.9865C451.677 46.408 398.272 119.129 335.89 184.465L335.189 185.199L335.934 185.889L494 332.337ZM43.4713 256.803V258.581L44.9905 257.658C154.085 191.381 247.987 104.249 319.671 3.16549L320.791 1.58703H318.856H44.4713H43.4713V2.58703V256.803Z" stroke="url(#paint0_linear_852_5546)" stroke-width="2"/>
<defs>
<linearGradient id="paint0_linear_852_5546" x1="-66.1918" y1="-122" x2="511.956" y2="399.063" gradientUnits="userSpaceOnUse">
<stop stop-color="#394150" stop-opacity="0"/>
<stop offset="1" stop-color="#8293B6"/>
</linearGradient>
</defs>
</svg>
