<svg width="55" height="14" viewBox="0 0 55 14" fill="none" xmlns="http://www.w3.org/2000/svg">
  <path d="M2.75823 12.4363C2.45182 12.307 2.23172 12.0713 2.01571 11.8273C2.02337 11.723 1.94421 11.675 1.88906 11.613C1.58249 11.2714 1.32258 10.889 1.11641 10.4763C0.656802 9.54761 0.411678 8.58141 0.558242 7.50414C0.657876 6.78384 0.879038 6.08663 1.21191 5.44347C1.37277 5.12748 1.58368 4.83705 1.77058 4.53671C1.886 4.56226 1.9386 4.46788 2.0009 4.40374C2.40725 3.98872 2.85344 3.61646 3.33274 3.29259C4.73301 2.3316 6.28954 1.76116 7.93443 1.43527C9.85763 1.05411 11.7941 1.04628 13.7347 1.29135C14.2121 1.35288 14.634 1.59117 15.0874 1.73039C15.9847 2.41242 16.4545 3.33065 16.5107 4.46319C16.5245 4.73276 16.575 5.01485 16.4464 5.27661C16.3851 5.35639 16.3238 5.42678 16.2998 5.53732C16.269 5.69723 16.2081 5.84952 16.1205 5.98575C15.7386 6.53898 15.3448 7.07188 14.8045 7.49788C13.8399 8.25656 12.745 8.60591 11.5556 8.69716C11.119 8.73001 10.6783 8.70238 10.1885 8.70238L10.3765 8.79311C9.75447 8.74513 9.18098 8.50319 8.59218 8.32382C7.91196 8.11838 7.23838 7.89104 6.52241 7.84515C6.42028 7.83837 6.32069 7.82273 6.22724 7.87905C5.59605 7.82169 4.99703 7.94422 4.40311 8.16166C3.52067 8.48546 2.8384 9.02566 2.48195 9.92668C2.27768 10.4408 2.26594 10.9695 2.38441 11.5196C2.45693 11.8575 2.64486 12.1271 2.75823 12.4363Z" fill="#8BC34A"/>
  <path d="M2.75838 12.4361C2.6445 12.1269 2.45657 11.8573 2.38405 11.5189C2.26558 10.9688 2.27835 10.4401 2.48159 9.92598C2.83907 9.02495 3.52031 8.48476 4.40275 8.16095C4.99667 7.94352 5.59569 7.82098 6.22688 7.87834C6.15896 8.14583 6.03895 8.39977 6.00576 8.6756C5.88371 9.69864 6.3331 10.4286 7.14354 10.9641C7.81865 11.4105 8.58007 11.6154 9.37059 11.7093C10.547 11.8449 11.7382 11.7133 12.859 11.3239C12.9575 11.2973 13.0585 11.2814 13.1603 11.2765C13.407 11.2499 13.6225 11.313 13.7445 11.5492C13.862 11.7755 13.7869 12.0758 13.554 12.2693C12.9923 12.7385 12.354 13.0785 11.6788 13.3465C10.1938 13.9363 8.64952 14.1021 7.07613 13.943C5.64625 13.7986 4.26742 13.4493 3.0321 12.6609C2.95159 12.613 2.87888 12.5527 2.8166 12.482L2.78238 12.4559C2.77359 12.4504 2.76553 12.4437 2.75838 12.4361Z" fill="#178FCE"/>
  <path d="M15.0875 1.73015C14.634 1.59093 14.2122 1.35264 13.7352 1.29163C13.4462 1.13521 13.1224 1.0888 12.8119 1.02675C10.8862 0.642459 8.96144 0.618473 7.04896 1.11122C4.92098 1.65924 3.10809 2.71825 1.77063 4.53647C1.58372 4.83681 1.37281 5.12724 1.21246 5.44322C0.879593 6.08639 0.658432 6.7836 0.558797 7.5039C0.412234 8.58117 0.660932 9.54737 1.11696 10.476C1.3233 10.8888 1.58338 11.2712 1.89013 11.6127C1.94528 11.6748 2.02443 11.7248 2.01677 11.827C0.562372 10.3832 -0.214364 8.66564 0.0516973 6.5669C0.299374 4.62824 1.36771 3.1891 2.87011 2.06126C4.67739 0.703987 6.7446 0.113733 8.96501 0.015184C10.5777 -0.0562513 12.1547 0.111648 13.6459 0.791587C14.1708 1.03092 14.6698 1.31771 15.0875 1.73015Z" fill="#20A956"/>
  <path d="M48.6888 6.66082C48.6888 6.13262 48.697 5.60441 48.6847 5.07673C48.6801 4.89267 48.7358 4.81602 48.9155 4.78994C49.2066 4.75084 49.4808 4.71225 49.6095 5.07934C49.654 5.20761 49.7183 5.09289 49.7627 5.06526C49.9588 4.92699 50.1809 4.83182 50.4149 4.78577C50.7453 4.72998 51.0476 4.76283 51.2488 5.07621C51.3137 5.17736 51.3571 5.13826 51.4265 5.08924C51.6558 4.92368 51.9206 4.81642 52.1987 4.77639C52.741 4.7013 53.0556 4.94689 53.0883 5.50169C53.1112 5.8985 53.1066 6.29791 53.1087 6.69576C53.1117 7.22396 53.1051 7.75217 53.1123 8.28037C53.1123 8.42898 53.0888 8.50198 52.9197 8.48894C52.6746 8.47017 52.3513 8.57133 52.2048 8.4467C52.0582 8.32208 52.1614 7.97481 52.1583 7.72557C52.1512 7.152 52.1583 6.58261 52.1542 6.01165C52.1542 5.82133 52.1593 5.61171 51.8739 5.62005C51.5675 5.62892 51.3821 5.78013 51.3821 6.0325C51.3821 6.77762 51.3785 7.52222 51.3857 8.26681C51.3857 8.42741 51.3576 8.50875 51.1778 8.4879C50.9358 8.45974 50.611 8.59218 50.471 8.43575C50.351 8.29862 50.4312 7.97534 50.4302 7.73444C50.4302 7.15409 50.4302 6.57426 50.4302 5.99392C50.4302 5.80412 50.419 5.61693 50.158 5.61901C49.8598 5.61901 49.6632 5.78118 49.6632 6.02833C49.6632 6.77293 49.6565 7.51752 49.6672 8.26212C49.6672 8.4467 49.6162 8.50875 49.4395 8.48894C49.1974 8.4613 48.8721 8.59687 48.7337 8.43419C48.6137 8.29341 48.697 7.97168 48.6949 7.73026C48.6867 7.371 48.6888 7.01591 48.6888 6.66082Z" fill="#060606"/>
  <path d="M24.4702 5.11474C24.7383 4.93484 24.9717 4.80762 25.2479 4.77477C25.8362 4.7049 26.2249 5.00211 26.2386 5.6007C26.2596 6.50903 26.2432 7.41839 26.2489 8.32724C26.2489 8.4576 26.2019 8.48888 26.0844 8.48367C25.8803 8.47268 25.6757 8.47268 25.4716 8.48367C25.3113 8.49514 25.2725 8.43778 25.274 8.28031C25.2816 7.54458 25.2776 6.80833 25.2776 6.07259C25.2776 5.9073 25.2975 5.71646 25.1147 5.64503C24.9129 5.56629 24.7143 5.62834 24.5381 5.75765C24.4431 5.827 24.4692 5.9266 24.4686 6.01837C24.4686 6.76296 24.463 7.50756 24.4722 8.25215C24.4722 8.42944 24.4319 8.49983 24.248 8.48419C24.0528 8.47089 23.857 8.47089 23.6618 8.48419C23.5249 8.49097 23.4907 8.43674 23.4912 8.30378C23.4953 6.82327 23.4953 5.34295 23.4912 3.86279C23.4912 3.73244 23.5346 3.67039 23.6572 3.65422C23.7159 3.64692 23.7736 3.62815 23.8323 3.61929C24.3292 3.54524 24.4651 3.66309 24.4692 4.17408C24.4722 4.4739 24.4702 4.77268 24.4702 5.11474Z" fill="#060606"/>
  <path d="M31.2943 6.69747C31.2866 7.04734 31.2596 7.42746 31.09 7.77734C30.7887 8.39836 30.2561 8.58033 29.6269 8.54331C29.0611 8.50942 28.7373 8.1439 28.5657 7.63603C28.363 7.04241 28.3452 6.39927 28.5147 5.79488C28.7516 4.92097 29.7679 4.48454 30.5681 4.89229C30.896 5.05967 31.0706 5.3475 31.1727 5.68955C31.2677 6.00658 31.2907 6.33455 31.2943 6.69747ZM30.324 6.55981C30.3174 6.35124 30.3209 6.07071 30.2254 5.80583C30.155 5.60977 30.0135 5.5227 29.8092 5.54094C29.6234 5.55711 29.5028 5.6275 29.4599 5.84076C29.3854 6.22302 29.3625 6.61391 29.392 7.0025C29.4063 7.1923 29.4288 7.38158 29.513 7.55626C29.5973 7.73093 29.7357 7.8055 29.9272 7.78881C30.1187 7.77213 30.2025 7.66263 30.2377 7.47596C30.2981 7.17453 30.3272 6.86746 30.3245 6.55981H30.324Z" fill="#060606"/>
  <path d="M45.2718 6.6632C45.2718 6.22103 45.3096 5.83674 45.4909 5.48113C45.7539 4.96596 46.3111 4.69586 46.9596 4.76782C47.5392 4.83195 47.8906 5.13751 48.0402 5.7408C48.1896 6.31221 48.1921 6.91333 48.0474 7.48601C47.8686 8.17638 47.3768 8.54294 46.6338 8.54711C46.0011 8.55076 45.5691 8.19306 45.3811 7.51104C45.3028 7.23571 45.266 6.94983 45.2718 6.6632ZM46.2421 6.65016C46.2472 6.94373 46.2421 7.23937 46.355 7.51834C46.4321 7.70553 46.5639 7.80095 46.7707 7.78948C46.9775 7.77801 47.0725 7.66746 47.0919 7.46463C47.1026 7.35357 47.143 7.24511 47.1522 7.13405C47.1894 6.70283 47.215 6.27056 47.0944 5.84665C47.0352 5.63808 46.9045 5.52962 46.6828 5.53796C46.4612 5.5463 46.3458 5.65372 46.3095 5.87637C46.2625 6.13148 46.2392 6.39057 46.2401 6.65016H46.2421Z" fill="#060606"/>
  <path d="M41.5317 6.9936C41.3111 6.9936 41.0905 6.99725 40.8678 6.9936C40.7483 6.99047 40.7065 7.02228 40.7202 7.1568C40.7626 7.57394 40.9756 7.77991 41.3887 7.76322C41.507 7.75678 41.6244 7.73933 41.7395 7.71108C42.1568 7.61357 42.313 7.76322 42.2691 8.2007C42.2579 8.31437 42.1884 8.34513 42.1113 8.3759C41.6986 8.54255 41.2502 8.59525 40.8111 8.52867C40.2964 8.45255 39.9741 8.12405 39.8235 7.63234C39.6258 7.01931 39.6249 6.35785 39.8209 5.74426C40.0763 4.95639 40.8106 4.58565 41.5909 4.82864C41.9745 4.94804 42.1711 5.24004 42.2635 5.61078C42.3626 6.00706 42.3707 6.41377 42.3457 6.82205C42.336 6.97274 42.2763 7.00767 42.1414 7.0009C41.9397 6.98734 41.7355 6.9936 41.5317 6.9936ZM41.0624 6.36789C41.1615 6.28237 41.3964 6.48677 41.4617 6.24587C41.5051 6.08475 41.4689 5.90173 41.401 5.738C41.3954 5.72177 41.3883 5.70606 41.38 5.69108C41.2723 5.50753 40.9465 5.46008 40.8316 5.62381C40.7468 5.74374 40.7453 5.90069 40.7294 6.04565C40.6835 6.39239 40.6835 6.39239 41.0624 6.36945V6.36789Z" fill="#060606"/>
  <path d="M36.588 6.99341C36.3669 6.99341 36.1458 6.9981 35.9241 6.99341C35.798 6.98924 35.7679 7.03356 35.7801 7.16183C35.8194 7.56854 36.0309 7.77033 36.4277 7.76773C36.6176 7.76773 36.7953 7.70776 36.9771 7.66709C37.1155 7.63581 37.2524 7.65249 37.2698 7.82352C37.2887 8.00758 37.4664 8.24066 37.185 8.36528C36.7522 8.5548 36.2736 8.60712 35.8113 8.51545C35.3072 8.42055 35.0121 8.07589 34.8732 7.59461C34.6949 7.00273 34.6949 6.36985 34.8732 5.77797C35.1122 4.98331 35.8399 4.58964 36.6243 4.8175C37.0068 4.92909 37.2187 5.21066 37.3162 5.58191C37.423 5.98654 37.4296 6.40211 37.4071 6.81925C37.3995 6.96786 37.3361 7.00592 37.2029 6.99862C36.9965 6.98715 36.7918 6.99341 36.588 6.99341ZM36.5247 6.13514C36.517 5.96777 36.5094 5.81238 36.4226 5.67681C36.3092 5.49744 35.9696 5.46198 35.8807 5.63822C35.773 5.85253 35.7112 6.11689 35.7786 6.33381C35.8245 6.47772 36.0625 6.34006 36.2132 6.36561C36.2459 6.37135 36.2806 6.35883 36.3153 6.36196C36.4951 6.37917 36.5696 6.30513 36.5247 6.13514Z" fill="#060606"/>
  <path d="M19.8512 6.99321C19.6387 6.99321 19.4258 7.00207 19.2139 6.99008C19.0607 6.98174 19.0489 7.05109 19.0647 7.17623C19.1158 7.58346 19.3277 7.77743 19.7286 7.76179C19.8554 7.75507 19.9812 7.73604 20.1045 7.70495C20.4946 7.61371 20.7132 7.84783 20.6075 8.24411C20.5845 8.32962 20.5212 8.34839 20.4619 8.37082C20.0334 8.54522 19.566 8.59555 19.1112 8.51629C18.9167 8.48711 18.7334 8.405 18.5807 8.27857C18.4279 8.15215 18.3113 7.98607 18.2431 7.79777C17.9545 7.06152 17.9331 6.31066 18.2431 5.57858C18.5393 4.8757 19.3155 4.57275 20.0136 4.85119C20.343 4.98207 20.5181 5.25008 20.607 5.58119C20.7178 5.9952 20.7091 6.41964 20.6958 6.84408C20.6918 6.97913 20.6238 6.99582 20.5161 6.99373C20.2929 6.98956 20.0703 6.99269 19.8512 6.99321ZM19.3916 6.37115C19.8512 6.3456 19.9273 6.22254 19.7587 5.77255C19.7496 5.74837 19.7388 5.72485 19.7266 5.70216C19.6219 5.51132 19.314 5.45761 19.1796 5.61664C19.0877 5.72562 19.0933 5.87736 19.0709 6.01084C19.007 6.39096 19.0127 6.392 19.3911 6.37115H19.3916Z" fill="#060606"/>
  <path d="M32.8055 6.74161C32.8055 6.43918 32.7963 6.13571 32.809 5.83328C32.8157 5.66851 32.7615 5.61116 32.6048 5.63827C32.4403 5.66695 32.3688 5.60177 32.3913 5.4297C32.4027 5.34318 32.4027 5.2555 32.3913 5.16899C32.3612 4.95781 32.4332 4.85926 32.6502 4.90097C32.831 4.93539 32.8703 4.8384 32.8545 4.68041C32.7973 4.08964 33.1844 4.01507 33.6818 4.03436C33.7982 4.03854 33.7839 4.12614 33.7839 4.20278C33.7839 4.3759 33.79 4.54901 33.7839 4.72421C33.7778 4.853 33.8115 4.90306 33.9514 4.90671C34.4815 4.92183 34.4754 4.92757 34.4692 5.45316C34.4692 5.59916 34.4284 5.6414 34.2849 5.64401C33.7854 5.65339 33.7854 5.65913 33.7854 6.17899C33.7854 6.59613 33.7854 7.01014 33.7854 7.42572C33.7854 7.73857 33.8876 7.83816 34.194 7.7782C34.3748 7.74274 34.4422 7.7782 34.4335 7.96852C34.4339 8.04655 34.4451 8.12413 34.4667 8.19899C34.4999 8.33821 34.4417 8.40756 34.3135 8.43832C34.2226 8.45866 34.1337 8.48786 34.0423 8.50559C33.1685 8.67192 32.8101 8.37106 32.809 7.4716V6.74161H32.8055Z" fill="#060606"/>
  <path d="M21.398 6.75673C21.398 6.45378 21.3888 6.15031 21.4011 5.84789C21.4082 5.67842 21.3587 5.6049 21.1886 5.63932C21.0323 5.66904 20.97 5.60542 20.992 5.44326C21.0035 5.36601 21.0035 5.28743 20.992 5.21018C20.9527 4.96928 21.0277 4.85144 21.2836 4.90046C21.4266 4.92809 21.4628 4.84831 21.4475 4.72004C21.3806 4.1689 21.6564 4.02968 22.2089 4.03176C22.3244 4.03176 22.3892 4.06253 22.3713 4.1934C22.3685 4.2281 22.3685 4.26299 22.3713 4.29769C22.3754 4.48749 22.3152 4.72161 22.403 4.85405C22.4908 4.98649 22.7349 4.88429 22.9091 4.90254C22.9632 4.90828 23.0434 4.88012 23.0459 4.97293C23.0516 5.1716 23.0546 5.37078 23.0459 5.56945C23.0413 5.67894 22.9438 5.63567 22.8866 5.6388C22.3703 5.66435 22.3703 5.6633 22.3703 6.18942C22.3703 6.59613 22.3703 7.00285 22.3703 7.41008C22.3703 7.7391 22.4724 7.84182 22.7921 7.77508C22.9964 7.73336 23.0168 7.82253 23.0332 7.98104C23.0786 8.41956 23.0842 8.41956 22.6445 8.50247C22.5614 8.51972 22.4773 8.53208 22.3928 8.53949C21.7029 8.58537 21.4005 8.29702 21.3965 7.58945C21.398 7.31101 21.398 7.03413 21.398 6.75673Z" fill="#060606"/>
  <path d="M37.9438 5.7987C37.9438 5.18498 37.9535 4.57075 37.9387 3.95703C37.9336 3.74481 38.0077 3.65721 38.2038 3.64782C38.2548 3.64782 38.3059 3.62853 38.3544 3.62279C38.7798 3.57378 38.9162 3.68901 38.9162 4.12858C38.9207 5.20949 38.9162 6.29041 38.9162 7.37132C38.9162 7.74258 38.955 7.78325 39.3247 7.76813C39.4105 7.76448 39.4508 7.77856 39.4544 7.87241C39.4595 8.01059 39.4697 8.14825 39.482 8.2859C39.4912 8.39019 39.4217 8.41522 39.3477 8.44233C39.1012 8.54095 38.834 8.57292 38.572 8.53515C38.2579 8.49082 38.0485 8.29008 37.9811 7.97305C37.9552 7.8463 37.9421 7.71719 37.9418 7.58771C37.9438 6.99225 37.9438 6.39521 37.9438 5.7987Z" fill="#060606"/>
  <path d="M43.7471 6.65171C43.7603 6.7878 43.768 6.93484 43.7899 7.07928C43.8773 7.65285 44.1852 7.86142 44.7224 7.68257C44.9104 7.61948 44.9267 7.67996 44.9538 7.839C45.0309 8.32966 45.0048 8.38076 44.5166 8.50173C43.6807 8.7103 43.0193 8.3015 42.8314 7.45106C42.7032 6.87749 42.7043 6.29923 42.8825 5.73504C42.9462 5.53474 43.0521 5.35111 43.1927 5.19706C43.3334 5.04301 43.5054 4.92229 43.6966 4.84337C43.8879 4.76445 44.0937 4.72925 44.2997 4.74025C44.5057 4.75124 44.7068 4.80817 44.8889 4.90702C44.9711 4.95082 45.0319 4.99827 45.0125 5.10412C44.9875 5.23917 44.9711 5.37682 44.9359 5.50979C44.8894 5.68447 44.7689 5.73974 44.6019 5.68447C43.8614 5.43835 43.8747 5.6756 43.7848 6.25386C43.7654 6.38109 43.7598 6.51145 43.7471 6.65171Z" fill="#060606"/>
  <path d="M26.9092 6.69501C26.9092 6.15899 26.9143 5.62244 26.9056 5.08694C26.9031 4.94354 26.9567 4.88202 27.0838 4.86481C27.1257 4.85907 27.1676 4.84917 27.2095 4.845C27.7901 4.78242 27.8825 4.86742 27.8825 5.4608C27.8825 6.38581 27.8749 7.31134 27.8887 8.23635C27.8917 8.4517 27.8238 8.50384 27.6333 8.48559C27.4807 8.46665 27.3264 8.46665 27.1737 8.48559C26.9332 8.52157 26.8959 8.41363 26.9026 8.19881C26.9174 7.69719 26.9071 7.19558 26.9071 6.69397L26.9092 6.69501Z" fill="#060606"/>
  <path d="M10.3764 8.79091L10.1885 8.70018C10.6782 8.70018 11.1189 8.72782 11.5556 8.69497C12.7449 8.60528 13.8398 8.25593 14.8045 7.49569C15.3448 7.07125 15.7385 6.53835 16.1205 5.98355C16.2081 5.84733 16.269 5.69504 16.2997 5.53513C16.3237 5.42354 16.385 5.35315 16.4463 5.27441C16.3845 6.22028 15.9264 6.96383 15.2375 7.54731C13.9302 8.6543 12.3966 9.00157 10.7303 8.83523C10.6118 8.82532 10.4944 8.80655 10.3764 8.79091Z" fill="#20A956"/>
  <path d="M25.399 10.5329C25.3571 10.4145 25.4884 10.2112 25.3479 10.0313C25.2969 9.96507 25.3684 9.94839 25.4169 9.93744C25.5085 9.92104 25.6026 9.92857 25.6906 9.95934C25.7561 9.96862 25.8225 9.95161 25.876 9.91189C25.927 9.87434 25.876 9.82637 25.8515 9.78101C25.8203 9.72052 25.6564 9.66838 25.7958 9.59173C25.8887 9.53959 26.0149 9.48745 26.14 9.60946C26.4188 9.87747 26.5547 10.1862 26.4801 10.5767C26.4418 10.7743 26.5281 10.7952 26.7007 10.7759C26.9903 10.7441 27.1516 10.9678 27.0408 11.2306C26.9964 11.3349 26.8876 11.3077 26.8182 11.2707C26.7751 11.2431 26.7258 11.227 26.6749 11.2242C26.6241 11.2214 26.5734 11.2318 26.5276 11.2546C26.2845 11.3557 26.1415 11.2342 26.143 10.9646C26.143 10.7232 26.1482 10.4813 26.1461 10.2399C26.1461 10.1074 26.0889 9.98384 25.9515 9.98593C25.8142 9.98801 25.736 10.0902 25.7427 10.2519C25.7524 10.5126 25.7427 10.7702 25.7488 11.0288C25.7488 11.1294 25.9229 11.2791 25.6579 11.2843C25.4312 11.2884 25.3934 11.1471 25.397 10.962C25.4015 10.839 25.399 10.718 25.399 10.5329ZM26.7222 11.0022C26.7262 10.9188 26.6915 10.8708 26.6052 10.8713C26.5883 10.8694 26.5712 10.8714 26.5552 10.8772C26.5391 10.8829 26.5245 10.8923 26.5125 10.9045C26.5004 10.9168 26.4912 10.9316 26.4855 10.948C26.4798 10.9643 26.4778 10.9818 26.4796 10.9991C26.4796 11.0747 26.5056 11.1404 26.593 11.1362C26.6271 11.1348 26.6595 11.1201 26.6835 11.0952C26.7074 11.0703 26.7213 11.0371 26.7222 11.0022Z" fill="#131313"/>
  <path d="M29.0855 10.5819C28.6284 10.5611 28.6218 10.5512 28.6346 10.1241C28.6387 9.99116 28.6918 9.84464 28.5605 9.73671C28.5151 9.69916 28.5549 9.67622 28.5799 9.66527C28.6821 9.61939 28.7898 9.58706 28.8991 9.62929C28.9321 9.63938 28.9601 9.66208 28.9771 9.69268C28.9941 9.72328 28.9989 9.75941 28.9905 9.79354C28.9532 9.96509 28.9721 10.1377 28.9732 10.3098C28.9732 10.3619 28.9732 10.4339 29.0242 10.4422C29.0582 10.4465 29.0928 10.4408 29.1237 10.4257C29.1546 10.4107 29.1807 10.3869 29.1989 10.3572C29.2821 10.2289 29.1989 9.80814 29.0564 9.70229C29.2305 9.64598 29.3878 9.53283 29.5548 9.69916C29.6059 9.75131 29.6483 9.69239 29.6937 9.68248C29.801 9.65954 29.9067 9.6173 30.0144 9.61052C30.1579 9.60114 30.2401 9.64702 30.2366 9.8363C30.233 10.0449 30.1344 10.2779 30.3075 10.4735C30.355 10.5256 30.2897 10.5397 30.2565 10.5533C30.0522 10.6367 29.8806 10.522 29.8745 10.2967C29.8704 10.1674 29.8745 10.036 29.8745 9.90773C29.8745 9.77946 29.8153 9.74088 29.7019 9.74088C29.5885 9.74088 29.5543 9.80501 29.5558 9.90565C29.5558 9.98334 29.5512 10.0621 29.5594 10.1387C29.5865 10.3786 29.5083 10.5679 29.3495 10.7498C29.2162 10.9021 29.0314 11.0267 29.0319 11.2859C29.0319 11.3714 28.8598 11.3709 28.7628 11.3255C28.6524 11.2733 28.6096 11.1847 28.6913 11.0752C28.8133 10.9188 28.9374 10.7681 29.0855 10.5819Z" fill="#131313"/>
  <path d="M21.569 10.8412C21.5797 10.7171 21.5761 10.5721 21.4541 10.4605C21.3902 10.4027 21.403 10.3208 21.3902 10.2442C21.3626 10.0549 21.4275 9.86769 21.3335 9.66694C21.2825 9.56265 21.5307 9.51833 21.5965 9.55587C21.7533 9.64452 21.8779 9.56734 22.0189 9.54857C22.1961 9.52459 22.383 9.49643 22.4151 9.77279C22.4325 9.92348 22.5413 9.81398 22.6066 9.81189C22.7486 9.8072 22.9376 9.70761 22.9273 9.98084C22.9248 10.0429 23.0198 10.1409 22.8952 10.1753C22.7844 10.2061 22.6725 10.1936 22.5934 10.094C22.5484 10.0377 22.5934 9.87342 22.4672 9.92869C22.3523 9.98084 22.3651 10.1466 22.4162 10.2269C22.5607 10.4538 22.3728 10.4011 22.2783 10.4131C22.2236 10.4199 22.1649 10.3823 22.1072 10.3745C21.9162 10.3479 21.8243 10.4454 21.8912 10.6243C21.9581 10.8031 21.8217 11.0247 21.9887 11.1978C22.0132 11.2234 21.8922 11.2719 21.8284 11.2781C21.7089 11.2901 21.5996 11.2583 21.573 11.1217C21.5541 11.043 21.569 10.9533 21.569 10.8412ZM21.7196 10.4001C22.0367 10.3479 22.1016 10.1503 22.0663 9.88437C22.0541 9.78739 22.0929 9.66537 21.932 9.66433C21.9046 9.66133 21.8768 9.66448 21.8506 9.67354C21.8245 9.68261 21.8005 9.69737 21.7805 9.71682C21.7605 9.73626 21.7449 9.75992 21.7347 9.78616C21.7245 9.81239 21.7201 9.84056 21.7216 9.86873C21.713 10.0444 21.7196 10.2202 21.7196 10.4001Z" fill="#131313"/>
  <path d="M27.4811 10.141C27.311 10.0847 27.1001 9.7291 27.1583 9.63837C27.2094 9.55547 27.3207 9.55442 27.4101 9.53982C27.4271 9.53684 27.4445 9.53771 27.4612 9.54238C27.4778 9.54705 27.4932 9.55541 27.5063 9.56686C27.5195 9.57831 27.5299 9.59257 27.537 9.60862C27.5441 9.62468 27.5477 9.64214 27.5475 9.65975C27.5573 9.7288 27.5597 9.79874 27.5546 9.86832C27.5403 10.0091 27.5939 10.0618 27.7287 10.0248C27.7455 10.0202 27.7626 10.0168 27.7798 10.0143C28.4743 9.91004 28.4064 10.0873 28.363 10.5316C28.3574 10.5915 28.3431 10.6671 28.3712 10.7094C28.4309 10.8006 28.532 10.8783 28.3319 10.9086C28.1822 10.931 28.052 10.9086 28.0346 10.7224C28.0266 10.6008 28.0276 10.4788 28.0377 10.3574C28.0454 10.226 28.006 10.1327 27.8646 10.1238C27.7318 10.1155 27.6092 10.1707 27.6021 10.3105C27.5878 10.5921 27.5464 10.8841 27.6772 11.1495C27.7073 11.211 27.6823 11.2256 27.6435 11.2407C27.4392 11.321 27.2278 11.2699 27.2559 11.0191C27.2644 10.8976 27.2659 10.7758 27.2605 10.6541C27.2589 10.4607 27.2278 10.2531 27.4811 10.141Z" fill="#131313"/>
  <path d="M21.2288 10.36C21.0817 10.4366 20.9597 10.4251 20.8519 10.3078C20.807 10.2557 20.762 10.1978 20.6813 10.2306C20.6443 10.2433 20.6131 10.2694 20.5936 10.304C20.5741 10.3386 20.5677 10.3793 20.5756 10.4184C20.6185 10.666 20.4735 10.9346 20.6584 11.1682C20.6956 11.2151 20.641 11.2386 20.6032 11.2573C20.4148 11.3481 20.2427 11.2464 20.2335 11.0274C20.2253 10.8376 20.2335 10.6467 20.237 10.4564C20.237 10.3662 20.237 10.2776 20.1467 10.2327C20.0563 10.1879 20.0011 10.2473 19.9485 10.3057C19.8403 10.4262 19.7213 10.4413 19.5859 10.3579C19.781 10.0346 19.781 10.0346 20.2355 10.1926C20.1844 10.0247 20.3703 9.78795 20.0455 9.71964C19.9868 9.70713 20.019 9.52098 19.9378 9.44172C20.0213 9.38119 20.1209 9.34808 20.2233 9.34682C20.3433 9.33744 20.3489 9.43442 20.3519 9.52567C20.3519 9.55852 20.3601 9.61901 20.3698 9.62005C20.6716 9.65603 20.5613 9.88598 20.568 10.056C20.5726 10.1702 20.619 10.1884 20.7135 10.1467C20.9469 10.0419 21.1287 10.0852 21.2288 10.36Z" fill="#131313"/>
  <path d="M19.3721 10.724C19.3721 10.845 19.3721 10.9664 19.3721 11.089C19.3721 11.163 19.461 11.2757 19.2889 11.2793C19.1623 11.2819 19.0581 11.2444 19.0479 11.1093C19.0341 10.9294 19.0525 10.7469 19.0479 10.566C19.0479 10.4424 19.0872 10.2776 18.8982 10.2657C18.7093 10.2537 18.6383 10.3866 18.6547 10.5545C18.6746 10.7584 18.5883 10.9717 18.7205 11.1688C18.7716 11.248 18.6669 11.2579 18.6184 11.2684C18.4943 11.2944 18.3671 11.2892 18.3385 11.1307C18.3171 11.0139 18.3355 10.8893 18.3232 10.7699C18.3033 10.5764 18.3947 10.3736 18.2752 10.19C18.2272 10.1155 18.2844 10.103 18.3319 10.0889C18.4208 10.0623 18.506 10.0315 18.6041 10.0665C18.7499 10.113 18.9064 10.1117 19.0514 10.0628C19.317 9.98825 19.387 10.0524 19.3854 10.3371C19.3854 10.4664 19.3854 10.5978 19.3854 10.7255L19.3721 10.724Z" fill="#060606"/>
  <path d="M27.3407 4.43563C27.0226 4.43563 26.8653 4.28338 26.8638 3.96635C26.8638 3.63524 27.0512 3.47934 27.4669 3.46995C27.7891 3.46317 27.9393 3.60969 27.9418 3.9335C27.9444 4.2573 27.7411 4.43198 27.3407 4.43563Z" fill="#060606"/>
  <path d="M24.2096 10.1475C24.1636 9.99468 24.2489 9.83148 24.1473 9.67244C24.0962 9.59266 24.2351 9.58745 24.2928 9.5619C24.3853 9.52227 24.4879 9.50976 24.5186 9.63855C24.538 9.71833 24.5186 9.80801 24.5186 9.89353C24.4021 10.0286 24.5155 10.1308 24.5696 10.2413C24.53 10.3265 24.5095 10.4197 24.5095 10.514C24.5095 10.6084 24.53 10.7015 24.5696 10.7867V10.878C24.5516 10.9065 24.5395 10.9384 24.534 10.9719C24.5286 11.0053 24.5299 11.0396 24.538 11.0725C24.5472 11.1376 24.7009 11.1246 24.6156 11.2159C24.5477 11.2883 24.444 11.28 24.3521 11.2617C24.3094 11.2574 24.27 11.2363 24.2421 11.203C24.2142 11.1697 24.2 11.1267 24.2025 11.0829C24.2025 10.817 24.2025 10.5505 24.2025 10.2846C24.2065 10.2387 24.2065 10.1933 24.2096 10.1475Z" fill="#060606"/>
  <path d="M54.333 5.14043C54.2395 5.25618 54.4029 5.51064 54.2073 5.5122C54.1052 5.5122 54.2027 5.26035 54.2073 5.12478C54.2124 5.00173 54.144 4.79524 54.3141 4.7723C54.504 4.74675 54.4387 4.97618 54.4953 5.08516C54.5331 5.15816 54.5464 5.24158 54.5898 5.38967C54.6465 5.17432 54.6884 5.02467 54.7241 4.87867C54.743 4.80202 54.7752 4.75092 54.8615 4.75979C54.9478 4.76865 54.935 4.84269 54.9417 4.89744C54.9631 5.07786 54.9779 5.25879 54.9984 5.43868C55.004 5.48718 54.9984 5.52993 54.9473 5.53462C54.8962 5.53932 54.8799 5.49865 54.8773 5.44963C54.8712 5.33388 54.8615 5.21812 54.8513 5.07264C54.7211 5.17693 54.7389 5.30155 54.6981 5.39958C54.6736 5.46006 54.6807 5.54192 54.5806 5.53984C54.4805 5.53775 54.4785 5.45276 54.4673 5.39436C54.4515 5.29677 54.4042 5.20738 54.333 5.14043Z" fill="#131313"/>
  <path d="M30.301 9.70414C30.3493 9.67894 30.3991 9.65682 30.4501 9.63792C30.7565 9.54823 30.8255 9.60455 30.8183 9.92992C30.8081 10.3825 30.8081 10.3825 30.9128 10.4946C30.6064 10.651 30.4935 10.5734 30.4828 10.2287C30.4772 10.0472 30.5809 9.80999 30.301 9.70414Z" fill="#131313"/>
  <path d="M54.0631 4.80658C53.7603 4.86289 53.8966 5.09701 53.8645 5.25657C53.8461 5.35042 53.9155 5.52771 53.8164 5.52406C53.6632 5.51884 53.7654 5.34729 53.747 5.25083C53.7179 5.0871 53.8359 4.86654 53.5427 4.80762C53.711 4.74678 53.8946 4.74641 54.0631 4.80658Z" fill="#131313"/>
  <path d="M18.8766 9.579C18.8511 9.70414 18.9195 9.87412 18.6831 9.84701C18.3731 9.81207 18.6672 9.49453 18.4722 9.41631C18.5197 9.31203 18.6208 9.32975 18.704 9.32298C18.9113 9.30629 18.8649 9.46741 18.8766 9.579Z" fill="#131313"/>
  <path d="M24.5691 10.8782V10.787C24.6942 10.787 24.8244 10.7598 24.9434 10.787C25.2023 10.85 25.0675 11.0706 25.0583 11.2119C25.0512 11.323 24.9092 11.2781 24.827 11.2573C24.7565 11.239 24.6845 11.2051 24.7376 11.0951C24.8224 10.9194 24.7371 10.8615 24.5691 10.8782Z" fill="#131313"/>
  <path d="M24.5668 10.2413C24.5157 10.1308 24.4013 10.0286 24.5157 9.89355C24.5024 10.1021 24.5443 10.2111 24.7838 10.0943C25.0233 9.9775 25.0902 10.1986 25.2025 10.355C25.0427 10.3941 24.8961 10.4275 24.7853 10.2747C24.7174 10.1777 24.6459 10.2085 24.5668 10.2413Z" fill="#131313"/>
  <path d="M24.2097 10.1475C24.2072 10.1934 24.2046 10.2387 24.2015 10.2846C24.1101 10.1955 24.0192 10.1736 23.9217 10.2799C23.8109 10.4014 23.6801 10.4186 23.5361 10.3461C23.651 10.063 23.8318 9.99627 24.0907 10.1532C24.1193 10.1704 24.1699 10.1501 24.2097 10.1475Z" fill="#131313"/>
  <path d="M19.8073 11.407C19.5238 11.4591 19.6684 11.1797 19.5427 11.1192C19.5666 11.0918 19.5958 11.0698 19.6286 11.0547C19.6613 11.0396 19.6968 11.0317 19.7327 11.0316C19.937 11.0227 19.9048 11.1937 19.9273 11.3137C19.9528 11.4482 19.8364 11.395 19.8073 11.407Z" fill="#131313"/>
  <path d="M2.78223 12.4561L2.81644 12.4821C2.80858 12.4829 2.80071 12.4807 2.79438 12.4759C2.78805 12.471 2.78372 12.464 2.78223 12.4561Z" fill="#8BC34A"/>
</svg>