<svg width="153" height="279" viewBox="0 0 153 279" fill="none" xmlns="http://www.w3.org/2000/svg">
<path d="M152 239.111V284H103.491L20.6595 207.104L20.0195 206.51L19.3445 207.064C-17.5858 237.392 -58.6879 263.364 -102.996 283.875L-153 255.119V33.1571L-118.361 1H120.901L151.835 47.3582C129.754 88.4457 101.8 126.565 69.1568 160.822L68.4579 161.555L69.2004 162.245L152 239.111ZM-84.4313 199.186V200.965L-82.9114 200.04C-25.6061 165.157 23.7208 119.296 61.3781 66.0893L62.4947 64.5116H60.5618H-83.4313H-84.4313V65.5116V199.186Z" stroke="url(#paint0_linear_872_7430)" stroke-width="2"/>
<defs>
<linearGradient id="paint0_linear_872_7430" x1="-141.506" y1="-9.0452e-06" x2="162.439" y2="273.39" gradientUnits="userSpaceOnUse">
<stop stop-color="#394150" stop-opacity="0"/>
<stop offset="1" stop-color="#8293B6"/>
</linearGradient>
</defs>
</svg>
