<svg width="139" height="32" viewBox="0 0 139 32" fill="none" xmlns="http://www.w3.org/2000/svg">
<g clip-path="url(#clip0_889_2361)">
<path d="M26.2225 31.6375L15.9819 21.409L21.0715 16.3254L31.3122 26.5539V31.6375H26.2225Z" fill="url(#paint0_linear_889_2361)"/>
<path d="M5.19698 31.6376L0 28.422V3.95324L3.59496 0.362549H28.0851L31.3045 5.55336C25.7166 16.7925 16.4418 26.0486 5.18931 31.6376H5.19698ZM7.18992 7.55159V22.2206C13.0231 18.3926 18.0515 13.3778 21.8764 7.55159H7.19759H7.18992Z" fill="#1F351A"/>
<path d="M61.5129 24.4713H58.6768L55.1968 17.7569H51.1343V24.4713H48.6431V7.32935H55.5801C55.9173 7.32935 56.4539 7.35231 56.9061 7.42122C59.7806 7.86527 61.2063 9.91709 61.2063 12.5431C61.2063 14.5643 60.0872 16.6468 57.8566 17.4277L61.5129 24.4789V24.4713ZM51.1343 9.6721V15.4065H55.4881C55.7947 15.4065 56.2393 15.4065 56.5765 15.284C58.1019 14.7634 58.6768 13.6379 58.6768 12.5355C58.6768 11.433 58.1019 10.1468 56.5765 9.78694C56.2163 9.69507 55.8024 9.66444 55.4881 9.66444H51.1343V9.6721Z" fill="#1F351A"/>
<path d="M66.0967 18.7446C66.296 21.1332 67.5607 22.4807 69.73 22.4807C71.2783 22.4807 72.4434 21.7534 73.0796 20.4365L75.5248 21.2098C74.5207 23.5066 72.3438 24.8311 69.8526 24.8311C66.0047 24.8311 63.4292 22.1285 63.4292 18.155C63.4292 13.9442 65.9664 11.2646 69.7376 11.2646C73.5089 11.2646 75.9617 14.1433 75.6935 18.7522H66.0967V18.7446ZM66.158 16.7999H73.141C72.8803 14.5261 71.8072 13.4542 69.8296 13.4542C67.7064 13.4542 66.4799 14.6179 66.158 16.7999Z" fill="#1F351A"/>
<path d="M95.9295 15.8658L95.9142 24.4712H93.423L93.4383 16.4629C93.4383 14.6178 92.3882 13.5077 90.8398 13.5077C89.4218 13.5077 88.2183 14.4953 88.2183 16.44L88.203 24.4788H85.7118L85.7272 16.5165C85.7272 14.6561 84.7 13.5154 83.1133 13.5154C81.5267 13.5154 80.4919 14.6944 80.4919 16.4476V24.4865H77.9854V11.6167H80.2006V12.9948C81.0208 11.9459 82.3468 11.2951 83.8952 11.2951C85.6735 11.2951 86.9613 12.0837 87.6358 13.3776C88.4253 12.076 89.8664 11.2951 91.545 11.2951C94.3121 11.2951 95.9218 13.1019 95.9218 15.8658H95.9295Z" fill="#1F351A"/>
<path d="M103.618 21.2709L107.243 11.6166H109.773L102.667 30.1902H100.299L102.422 24.4176L97.2172 11.6243H99.8157L103.633 21.2786L103.618 21.2709Z" fill="#1F351A"/>
<path d="M116.119 13.6151V19.2959C116.119 20.3295 116.074 21.0798 116.38 21.6081C116.955 22.5804 118.266 22.6187 119.944 22.3737V24.4791C117.522 24.9537 115.031 24.7088 114.096 22.9172C113.536 21.8607 113.621 20.8195 113.621 19.4184V13.6228H111.152V11.6245H113.621V8.05682H116.127V11.6245H119.952V13.6228H116.127L116.119 13.6151Z" fill="#1F351A"/>
<path d="M124.007 18.7446C124.206 21.1332 125.471 22.4807 127.64 22.4807C129.189 22.4807 130.354 21.7534 130.99 20.4365L133.435 21.2098C132.431 23.5066 130.254 24.8311 127.763 24.8311C123.915 24.8311 121.339 22.1285 121.339 18.155C121.339 13.9442 123.877 11.2646 127.648 11.2646C131.419 11.2646 133.872 14.1433 133.604 18.7522H124.007V18.7446ZM124.068 16.7999H131.051C130.791 14.5261 129.717 13.4542 127.74 13.4542C125.617 13.4542 124.39 14.6179 124.068 16.7999Z" fill="#1F351A"/>
<path d="M136.509 24.4714V6.9696H139V24.4714H136.509Z" fill="#1F351A"/>
</g>
<defs>
<linearGradient id="paint0_linear_889_2361" x1="18.6953" y1="18.9744" x2="31.1592" y2="31.5987" gradientUnits="userSpaceOnUse">
<stop stop-color="#80C03F"/>
<stop offset="1" stop-color="#2CA342"/>
</linearGradient>
<clipPath id="clip0_889_2361">
<rect width="139" height="31.275" fill="white" transform="translate(0 0.362549)"/>
</clipPath>
</defs>
</svg>
