<svg width="44" height="34" viewBox="0 0 44 34" fill="none" xmlns="http://www.w3.org/2000/svg">
<path d="M8.31727 33.831V31.5807C8.31727 30.7179 7.80093 30.1555 6.91591 30.1555C6.47348 30.1555 5.9941 30.3055 5.66219 30.7931C5.40419 30.3805 5.0355 30.1555 4.48238 30.1555C4.11352 30.1555 3.74499 30.2679 3.44987 30.6805V30.2305H2.67554V33.831H3.44987V31.8432C3.44987 31.2057 3.78178 30.9055 4.29812 30.9055C4.81412 30.9055 5.07245 31.2431 5.07245 31.8432V33.831H5.84679V31.8432C5.84679 31.2057 6.21531 30.9055 6.69469 30.9055C7.21103 30.9055 7.46903 31.2431 7.46903 31.8432V33.831H8.31727ZM19.7847 30.2305H18.5311V29.1428H17.7568V30.2305H17.0562V30.9429H17.7566V32.5934C17.7566 33.4186 18.0885 33.906 18.9735 33.906C19.3054 33.906 19.674 33.7936 19.9323 33.6436L19.7109 32.9684C19.4897 33.1184 19.2317 33.156 19.0473 33.156C18.6786 33.156 18.5311 32.931 18.5311 32.5558V30.9429H19.7847V30.2305ZM26.3482 30.1553C25.9058 30.1553 25.6108 30.3805 25.4264 30.6805V30.2305H24.6521V33.831H25.4264V31.8057C25.4264 31.2057 25.6844 30.8681 26.1638 30.8681C26.3113 30.8681 26.4957 30.9057 26.6432 30.9431L26.8644 30.193C26.7169 30.1555 26.4957 30.1555 26.3482 30.1555M16.4293 30.5306C16.0605 30.268 15.5443 30.1556 14.9912 30.1556C14.1063 30.1556 13.5164 30.6057 13.5164 31.3183C13.5164 31.9185 13.9588 32.2559 14.7332 32.3685L15.1019 32.4061C15.5075 32.481 15.7287 32.5935 15.7287 32.7811C15.7287 33.0436 15.4338 33.2312 14.9174 33.2312C14.4013 33.2312 13.9956 33.0436 13.7375 32.8561L13.3688 33.4562C13.7744 33.7562 14.3275 33.9062 14.8805 33.9062C15.913 33.9062 16.5031 33.4188 16.5031 32.7436C16.5031 32.1059 16.0237 31.7683 15.2861 31.6559L14.9174 31.6183C14.5855 31.5807 14.3275 31.5059 14.3275 31.2809C14.3275 31.0183 14.5855 30.8683 14.9912 30.8683C15.4338 30.8683 15.8762 31.0557 16.0974 31.1683L16.4293 30.5306ZM37.0047 30.1556C36.5621 30.1556 36.2671 30.3806 36.0827 30.6807V30.2306H35.3083V33.8312H36.0827V31.8059C36.0827 31.2059 36.3408 30.8683 36.8201 30.8683C36.9677 30.8683 37.1521 30.9058 37.2996 30.9433L37.5208 30.1932C37.3733 30.1556 37.1521 30.1556 37.0047 30.1556ZM27.1225 32.0309C27.1225 33.1186 27.8599 33.9062 29.0031 33.9062C29.5193 33.9062 29.888 33.7938 30.2567 33.4938L29.888 32.8561C29.593 33.0812 29.2981 33.1936 28.9662 33.1936C28.3393 33.1936 27.8969 32.7436 27.8969 32.0309C27.8969 31.3559 28.3393 30.9057 28.9662 30.8683C29.2981 30.8683 29.593 30.9807 29.888 31.2059L30.2567 30.5682C29.888 30.268 29.5193 30.1556 29.0031 30.1556C27.8599 30.1556 27.1225 30.9433 27.1225 32.0309ZM34.276 32.0309V30.2306H33.5017V30.6807C33.2435 30.3432 32.8748 30.1556 32.3954 30.1556C31.3999 30.1556 30.6255 30.9433 30.6255 32.0309C30.6255 33.1186 31.3999 33.9062 32.3954 33.9062C32.9116 33.9062 33.2805 33.7188 33.5017 33.3812V33.8312H34.276V32.0309ZM31.4367 32.0309C31.4367 31.3933 31.8423 30.8683 32.5059 30.8683C33.1328 30.8683 33.5754 31.3559 33.5754 32.0309C33.5754 32.6685 33.1328 33.1936 32.5059 33.1936C31.8423 33.156 31.4367 32.6685 31.4367 32.0309ZM22.1816 30.1556C21.1491 30.1556 20.4115 30.9057 20.4115 32.0309C20.4115 33.1562 21.1489 33.9062 22.2184 33.9062C22.7345 33.9062 23.2509 33.7562 23.6565 33.4188L23.2877 32.8561C22.9927 33.0812 22.624 33.2312 22.2553 33.2312C21.7759 33.2312 21.2966 33.0062 21.1859 32.3684H23.804V32.0685C23.8409 30.9057 23.1773 30.1556 22.1816 30.1556ZM22.1814 30.8307C22.6606 30.8307 22.9927 31.1309 23.0663 31.6935H21.2226C21.2964 31.2059 21.6283 30.8307 22.1814 30.8307ZM41.3923 32.0309V28.8054H40.618V30.6807C40.3598 30.3432 39.9911 30.1556 39.5118 30.1556C38.5162 30.1556 37.7419 30.9433 37.7419 32.0309C37.7419 33.1186 38.5162 33.9062 39.5118 33.9062C40.0281 33.9062 40.3968 33.7188 40.618 33.3812V33.8312H41.3923V32.0309ZM38.5532 32.0309C38.5532 31.3933 38.9586 30.8683 39.6224 30.8683C40.2493 30.8683 40.6917 31.3559 40.6917 32.0309C40.6917 32.6685 40.2493 33.1936 39.6224 33.1936C38.9586 33.156 38.5532 32.6685 38.5532 32.0309ZM12.668 32.0309V30.2306H11.8937V30.6807C11.6355 30.3432 11.2668 30.1556 10.7874 30.1556C9.79187 30.1556 9.01753 30.9433 9.01753 32.0309C9.01753 33.1186 9.79187 33.9062 10.7874 33.9062C11.3038 33.9062 11.6724 33.7188 11.8937 33.3812V33.8312H12.668V32.0309ZM9.79187 32.0309C9.79187 31.3933 10.1975 30.8683 10.8612 30.8683C11.488 30.8683 11.9306 31.3559 11.9306 32.0309C11.9306 32.6685 11.488 33.1936 10.8612 33.1936C10.1975 33.156 9.79187 32.6685 9.79187 32.0309Z" fill="black"/>
<path d="M16.1711 2.88794H27.7862V24.1168H16.1711V2.88794Z" fill="#FF5F00"/>
<path d="M16.9087 13.5024C16.9087 9.18923 18.8998 5.36346 21.9602 2.88795C19.7111 1.08766 16.8719 0 13.7746 0C6.43652 0 0.5 6.0385 0.5 13.5024C0.5 20.9662 6.43652 27.0049 13.7744 27.0049C16.8717 27.0049 19.7109 25.9172 21.9602 24.1168C18.8998 21.6788 16.9087 17.8157 16.9087 13.5024Z" fill="#EB001B"/>
<path d="M43.4574 13.5024C43.4574 20.9662 37.5209 27.0049 30.183 27.0049C27.0856 27.0049 24.2465 25.9172 21.9972 24.1168C25.0945 21.6414 27.0489 17.8157 27.0489 13.5024C27.0489 9.18923 25.0576 5.36346 21.9972 2.88795C24.2463 1.08766 27.0856 0 30.183 0C37.5209 0 43.4574 6.07609 43.4574 13.5024Z" fill="#F79E1B"/>
</svg>
