<svg width="27" height="30" viewBox="0 0 27 30" fill="none" xmlns="http://www.w3.org/2000/svg">
<path d="M22.5561 2.33513C21.141 0.757445 18.5828 0.0810547 15.3101 0.0810547H5.81202C5.48822 0.0810664 5.17505 0.194055 4.9288 0.399707C4.68256 0.60536 4.51939 0.890185 4.46865 1.20298L0.513803 25.7361C0.435194 26.2199 0.818186 26.658 1.3195 26.658H7.18331L8.65597 17.5218L8.61027 17.8079C8.71518 17.1621 9.27987 16.6858 9.94856 16.6858H12.735C18.209 16.6858 22.4953 14.5111 23.7474 8.22009C23.7845 8.03404 23.8167 7.85294 23.8445 7.67602C23.6865 7.59417 23.6865 7.59417 23.8445 7.67602C24.2174 5.35082 23.842 3.76807 22.5561 2.33513Z" fill="#27346A"/>
<path d="M10.8997 6.83841C11.06 6.76375 11.2353 6.72506 11.4129 6.72516H18.8592C19.741 6.72516 20.5635 6.78129 21.315 6.8996C21.5253 6.9324 21.7346 6.97155 21.9424 7.01702C22.2369 7.08059 22.5281 7.1584 22.8148 7.25016C23.1843 7.37086 23.5284 7.51142 23.8446 7.67602C24.2174 5.34993 23.842 3.76807 22.5561 2.33513C21.1401 0.757445 18.5828 0.0810547 15.3101 0.0810547H5.8112C5.14241 0.0810547 4.57346 0.55728 4.46865 1.20298L0.513803 25.7352C0.435194 26.2198 0.818186 26.6573 1.31869 26.6573H7.18331L10.2386 7.70662C10.2687 7.52035 10.3445 7.34401 10.4597 7.19277C10.5748 7.04153 10.7258 6.91992 10.8997 6.83841Z" fill="#27346A"/>
<path d="M23.7474 8.2201C22.4953 14.5102 18.2092 16.6858 12.7351 16.6858H9.94778C9.27909 16.6858 8.7143 17.1621 8.6104 17.8079L6.77832 29.1677C6.70986 29.591 7.04461 29.9747 7.48255 29.9747H12.4256C12.7088 29.9746 12.9826 29.8757 13.1979 29.6958C13.4131 29.5159 13.5557 29.2668 13.6 28.9932L13.6481 28.7469L14.5797 22.9718L14.6398 22.6526C14.684 22.3791 14.8266 22.1299 15.0418 21.95C15.2571 21.7701 15.5309 21.6712 15.814 21.6711H16.5538C21.3422 21.6711 25.0916 19.7684 26.1872 14.2655C26.6446 11.9658 26.4079 10.0458 25.1981 8.69722C24.8312 8.28874 24.3754 7.95139 23.8446 7.67603C23.8158 7.85384 23.7847 8.03404 23.7474 8.2201Z" fill="#2790C3"/>
<path d="M22.5342 7.16501C22.339 7.10925 22.1419 7.05988 21.9433 7.01699C21.7354 6.97228 21.5262 6.93338 21.3159 6.90037C20.5636 6.78126 19.7417 6.72504 18.8591 6.72504H11.4137C11.236 6.72465 11.0605 6.76367 10.9005 6.83918C10.7265 6.92044 10.5753 7.04198 10.4601 7.19326C10.3449 7.34454 10.2691 7.52101 10.2393 7.70739L8.65679 17.5218L8.61108 17.8079C8.71519 17.1621 9.27987 16.6857 9.94866 16.6857H12.7359C18.21 16.6857 22.4961 14.511 23.7482 8.22007C23.7854 8.03401 23.8167 7.85372 23.8455 7.676C23.5284 7.51229 23.1852 7.37083 22.8156 7.25093C22.7224 7.22069 22.6286 7.19205 22.5343 7.16501" fill="#1F264F"/>
</svg>
