<svg width="648" height="540" viewBox="0 0 648 540" fill="none" xmlns="http://www.w3.org/2000/svg">
<path d="M83.9599 43.7258V36.7817L72.3905 25.2167C76.9633 20.0461 80.8864 14.2886 83.9599 8.0939L79.562 1H46.1282L41.218 5.90828V39.3296L48.3146 43.7258C54.5241 40.6409 60.2713 36.7318 65.4438 32.1607L77.0132 43.7258H83.9599ZM51.0383 30.8618V10.8166H71.0911C65.8686 18.7722 58.9969 25.6413 51.0383 30.8618Z" stroke="url(#paint0_radial_852_5215)" stroke-miterlimit="10"/>
<path d="M121.729 1.08742V8.03146L133.299 19.5965C128.726 24.7671 124.803 30.5246 121.729 36.7193L126.127 43.8132H159.561L164.471 38.9049V5.48365L157.374 1.08742C151.165 4.17227 145.418 8.08141 140.245 12.6525L128.663 1.08742H121.717H121.729ZM154.651 13.9514V33.9966H134.598C139.82 26.041 146.692 19.1719 154.651 13.9514Z" stroke="url(#paint1_radial_852_5215)" stroke-miterlimit="10"/>
<path d="M244.807 43.7258V36.7817L233.238 25.2167C237.81 20.0461 241.734 14.2886 244.807 8.0939L240.409 1H206.975L202.065 5.90828V39.3296L209.162 43.7258C215.371 40.6409 221.119 36.7318 226.291 32.1607L237.86 43.7258H244.807ZM211.885 30.8618V10.8166H231.938C226.716 18.7722 219.844 25.6413 211.885 30.8618Z" stroke="url(#paint2_radial_852_5215)" stroke-miterlimit="10"/>
<path d="M282.564 1.08742V8.03146L294.133 19.5965C289.56 24.7671 285.637 30.5246 282.564 36.7193L286.962 43.8132H320.396L325.306 38.9049V5.48365L318.209 1.08742C312 4.17227 306.252 8.08141 301.08 12.6525L289.51 1.08742H282.564ZM315.485 13.9514V33.9966H295.433C300.655 26.041 307.527 19.1719 315.485 13.9514Z" stroke="url(#paint3_radial_852_5215)" stroke-miterlimit="10"/>
<path d="M405.654 43.7258V36.7817L394.085 25.2167C398.658 20.0461 402.581 14.2886 405.654 8.0939L401.256 1H367.823L362.912 5.90828V39.3296L370.009 43.7258C376.218 40.6409 381.966 36.7318 387.138 32.1607L398.708 43.7258H405.654ZM372.733 30.8618V10.8166H392.785C387.563 18.7722 380.691 25.6413 372.733 30.8618Z" stroke="url(#paint4_radial_852_5215)" stroke-miterlimit="10"/>
<path d="M443.411 1.08742V8.03146L454.98 19.5965C450.408 24.7671 446.485 30.5246 443.411 36.7193L447.809 43.8132H481.243L486.153 38.9049V5.48365L479.056 1.08742C472.847 4.17227 467.1 8.08141 461.927 12.6525L450.358 1.08742H443.411ZM476.333 13.9514V33.9966H456.28C461.502 26.041 468.374 19.1719 476.333 13.9514Z" stroke="url(#paint5_radial_852_5215)" stroke-miterlimit="10"/>
<path d="M566.489 43.7258V36.7817L554.92 25.2167C559.492 20.0461 563.415 14.2886 566.489 8.0939L562.091 1H528.657L523.747 5.90828V39.3296L530.844 43.7258C537.053 40.6409 542.8 36.7318 547.973 32.1607L559.542 43.7258H566.489ZM533.567 30.8618V10.8166H553.62C548.398 18.7722 541.526 25.6413 533.567 30.8618Z" stroke="url(#paint6_radial_852_5215)" stroke-miterlimit="10"/>
<path d="M604.258 1.08742V8.03146L615.828 19.5965C611.255 24.7671 607.332 30.5246 604.258 36.7193L608.656 43.8132H642.09L647 38.9049V5.48365L639.903 1.08742C633.694 4.17227 627.947 8.08141 622.774 12.6525L611.205 1.08742H604.258ZM637.18 13.9514V33.9966H617.127C622.349 26.041 629.221 19.1719 637.18 13.9514Z" stroke="url(#paint7_radial_852_5215)" stroke-miterlimit="10"/>
<path d="M43.7418 126.267V119.323L32.1724 107.758C36.7452 102.588 40.6683 96.8301 43.7418 90.6354L39.344 83.5415H5.91012L1 88.4498V121.871L8.09657 126.267C14.3061 123.182 20.0533 119.273 25.2258 114.702L36.7952 126.267H43.7418ZM10.8202 113.403V93.3581H30.873C25.6506 101.314 18.7789 108.183 10.8202 113.403Z" stroke="url(#paint8_radial_852_5215)" stroke-miterlimit="10"/>
<path d="M81.5111 83.6165V90.5605L93.0805 102.126C88.5077 107.296 84.5846 113.054 81.5111 119.248L85.9089 126.342H119.343L124.253 121.434V88.0127L117.156 83.6165C110.947 86.7013 105.2 90.6105 100.027 95.1815L88.4577 83.6165H81.5111ZM114.433 96.4804V116.526H94.3798C99.6023 108.57 106.474 101.701 114.433 96.4804Z" stroke="url(#paint9_radial_852_5215)" stroke-miterlimit="10"/>
<path d="M204.589 126.267V119.323L193.02 107.758C197.592 102.588 201.515 96.8301 204.589 90.6354L200.191 83.5415H166.757L161.847 88.4498V121.871L168.944 126.267C175.153 123.182 180.9 119.273 186.073 114.702L197.642 126.267H204.589ZM171.667 113.403V93.3581H191.72C186.498 101.314 179.626 108.183 171.667 113.403Z" stroke="url(#paint10_radial_852_5215)" stroke-miterlimit="10"/>
<path d="M242.358 83.6165V90.5605L253.928 102.126C249.355 107.296 245.432 113.054 242.358 119.248L246.756 126.342H280.19L285.1 121.434V88.0127L278.004 83.6165C271.794 86.7013 266.047 90.6105 260.874 95.1815L249.305 83.6165H242.358ZM275.28 96.4804V116.526H255.227C260.449 108.57 267.321 101.701 275.28 96.4804Z" stroke="url(#paint11_radial_852_5215)" stroke-miterlimit="10"/>
<path d="M365.436 126.267V119.323L353.867 107.758C358.44 102.588 362.363 96.8301 365.436 90.6354L361.038 83.5415H327.605L322.694 88.4498V121.871L329.791 126.267C336 123.182 341.748 119.273 346.92 114.702L358.49 126.267H365.436ZM332.515 113.403V93.3581H352.567C347.345 101.314 340.473 108.183 332.515 113.403Z" stroke="url(#paint12_radial_852_5215)" stroke-miterlimit="10"/>
<path d="M403.205 83.6165V90.5605L414.775 102.126C410.202 107.296 406.279 113.054 403.205 119.248L407.603 126.342H441.037L445.947 121.434V88.0127L438.851 83.6165C432.641 86.7013 426.894 90.6105 421.721 95.1815L410.152 83.6165H403.205ZM436.127 96.4804V116.526H416.074C421.297 108.57 428.168 101.701 436.127 96.4804Z" stroke="url(#paint13_radial_852_5215)" stroke-miterlimit="10"/>
<path d="M526.283 126.267V119.323L514.714 107.758C519.287 102.588 523.21 96.8301 526.283 90.6354L521.886 83.5415H488.452L483.542 88.4498V121.871L490.638 126.267C496.848 123.182 502.595 119.273 507.767 114.702L519.337 126.267H526.283ZM493.362 113.403V93.3581H513.415C508.192 101.314 501.32 108.183 493.362 113.403Z" stroke="url(#paint14_radial_852_5215)" stroke-miterlimit="10"/>
<path d="M564.053 83.6165V90.5605L575.622 102.126C571.049 107.296 567.126 113.054 564.053 119.248L568.45 126.342H601.884L606.794 121.434V88.0127L599.698 83.6165C593.488 86.7013 587.741 90.6105 582.569 95.1815L570.999 83.6165H564.053ZM596.974 96.4804V116.526H576.921C582.144 108.57 589.016 101.701 596.974 96.4804Z" stroke="url(#paint15_radial_852_5215)" stroke-miterlimit="10"/>
<path d="M83.9599 208.796V201.852L72.3905 190.287C76.9633 185.117 80.8864 179.359 83.9599 173.165L79.562 166.071H46.1282L41.218 170.979V204.4L48.3146 208.796C54.5241 205.712 60.2713 201.802 65.4438 197.231L77.0132 208.796H83.9599ZM51.0383 195.932V175.887H71.0911C65.8686 183.843 58.9969 190.712 51.0383 195.932Z" stroke="url(#paint16_radial_852_5215)" stroke-miterlimit="10"/>
<path d="M121.729 166.146V173.09L133.299 184.655C128.726 189.825 124.803 195.583 121.729 201.777L126.127 208.871H159.561L164.471 203.963V170.542L157.374 166.146C151.165 169.23 145.418 173.14 140.245 177.711L128.676 166.146H121.729ZM154.651 179.009V199.055H134.598C139.82 191.099 146.692 184.23 154.651 179.009Z" stroke="url(#paint17_radial_852_5215)" stroke-miterlimit="10"/>
<path d="M244.807 208.796V201.852L233.238 190.287C237.81 185.117 241.734 179.359 244.807 173.165L240.409 166.071H206.975L202.065 170.979V204.4L209.162 208.796C215.371 205.712 221.119 201.802 226.291 197.231L237.86 208.796H244.807ZM211.885 195.932V175.887H231.938C226.716 183.843 219.844 190.712 211.885 195.932Z" stroke="url(#paint18_radial_852_5215)" stroke-miterlimit="10"/>
<path d="M282.564 166.146V173.09L294.133 184.655C289.56 189.825 285.637 195.583 282.564 201.777L286.962 208.871H320.396L325.306 203.963V170.542L318.209 166.146C312 169.23 306.252 173.14 301.08 177.711L289.51 166.146H282.564ZM315.485 179.009V199.055H295.433C300.655 191.099 307.527 184.23 315.485 179.009Z" stroke="url(#paint19_radial_852_5215)" stroke-miterlimit="10"/>
<path d="M405.654 208.796V201.852L394.085 190.287C398.658 185.117 402.581 179.359 405.654 173.165L401.256 166.071H367.823L362.912 170.979V204.4L370.009 208.796C376.218 205.712 381.966 201.802 387.138 197.231L398.708 208.796H405.654ZM372.733 195.932V175.887H392.785C387.563 183.843 380.691 190.712 372.733 195.932Z" stroke="url(#paint20_radial_852_5215)" stroke-miterlimit="10"/>
<path d="M443.411 166.146V173.09L454.98 184.655C450.408 189.825 446.485 195.583 443.411 201.777L447.809 208.871H481.243L486.153 203.963V170.542L479.056 166.146C472.847 169.23 467.1 173.14 461.927 177.711L450.358 166.146H443.411ZM476.333 179.009V199.055H456.28C461.502 191.099 468.374 184.23 476.333 179.009Z" stroke="url(#paint21_radial_852_5215)" stroke-miterlimit="10"/>
<path d="M566.489 208.796V201.852L554.92 190.287C559.492 185.117 563.415 179.359 566.489 173.165L562.091 166.071H528.657L523.747 170.979V204.4L530.844 208.796C537.053 205.712 542.8 201.802 547.973 197.231L559.542 208.796H566.489ZM533.567 195.932V175.887H553.62C548.398 183.843 541.526 190.712 533.567 195.932Z" stroke="url(#paint22_radial_852_5215)" stroke-miterlimit="10"/>
<path d="M604.258 166.146V173.09L615.828 184.655C611.255 189.825 607.332 195.583 604.258 201.777L608.656 208.871H642.09L647 203.963V170.542L639.903 166.146C633.694 169.23 627.947 173.14 622.774 177.711L611.205 166.146H604.258ZM637.18 179.009V199.055H617.127C622.349 191.099 629.221 184.23 637.18 179.009Z" stroke="url(#paint23_radial_852_5215)" stroke-miterlimit="10"/>
<path d="M43.7418 291.325V284.381L32.1724 272.816C36.7452 267.646 40.6683 261.888 43.7418 255.694L39.344 248.6H5.91012L1 253.508V286.929L8.09657 291.325C14.3061 288.241 20.0533 284.331 25.2258 279.76L36.7952 291.325H43.7418ZM10.8202 278.461V258.416H30.873C25.6506 266.372 18.7789 273.241 10.8202 278.461Z" stroke="url(#paint24_radial_852_5215)" stroke-miterlimit="10"/>
<path d="M81.5111 248.675V255.619L93.0805 267.184C88.5077 272.354 84.5846 278.112 81.5111 284.306L85.9089 291.4H119.343L124.253 286.492V253.071L117.156 248.675C110.947 251.759 105.2 255.669 100.027 260.24L88.4577 248.675H81.5111ZM114.433 261.539V281.584H94.3798C99.6023 273.628 106.474 266.759 114.433 261.539Z" stroke="url(#paint25_radial_852_5215)" stroke-miterlimit="10"/>
<path d="M204.589 291.325V284.381L193.02 272.816C197.592 267.646 201.515 261.888 204.589 255.694L200.191 248.6H166.757L161.847 253.508V286.929L168.944 291.325C175.153 288.241 180.9 284.331 186.073 279.76L197.642 291.325H204.589ZM171.667 278.461V258.416H191.72C186.498 266.372 179.626 273.241 171.667 278.461Z" stroke="url(#paint26_radial_852_5215)" stroke-miterlimit="10"/>
<path d="M242.358 248.675V255.619L253.928 267.184C249.355 272.354 245.432 278.112 242.358 284.306L246.756 291.4H280.19L285.1 286.492V253.071L278.004 248.675C271.794 251.759 266.047 255.669 260.874 260.24L249.305 248.675H242.358ZM275.28 261.539V281.584H255.227C260.449 273.628 267.321 266.759 275.28 261.539Z" stroke="url(#paint27_radial_852_5215)" stroke-miterlimit="10"/>
<path d="M365.436 291.325V284.381L353.867 272.816C358.44 267.646 362.363 261.888 365.436 255.694L361.038 248.6H327.605L322.694 253.508V286.929L329.791 291.325C336 288.241 341.748 284.331 346.92 279.76L358.49 291.325H365.436ZM332.515 278.461V258.416H352.567C347.345 266.372 340.473 273.241 332.515 278.461Z" stroke="url(#paint28_radial_852_5215)" stroke-miterlimit="10"/>
<path d="M403.205 248.675V255.619L414.775 267.184C410.202 272.354 406.279 278.112 403.205 284.306L407.603 291.4H441.037L445.947 286.492V253.071L438.851 248.675C432.641 251.759 426.894 255.669 421.721 260.24L410.152 248.675H403.205ZM436.127 261.539V281.584H416.074C421.297 273.628 428.168 266.759 436.127 261.539Z" stroke="url(#paint29_radial_852_5215)" stroke-miterlimit="10"/>
<path d="M526.283 291.325V284.381L514.714 272.816C519.287 267.646 523.21 261.888 526.283 255.694L521.886 248.6H488.452L483.542 253.508V286.929L490.638 291.325C496.848 288.241 502.595 284.331 507.767 279.76L519.337 291.325H526.283ZM493.362 278.461V258.416H513.415C508.192 266.372 501.32 273.241 493.362 278.461Z" stroke="url(#paint30_radial_852_5215)" stroke-miterlimit="10"/>
<path d="M564.053 248.675V255.619L575.622 267.184C571.049 272.354 567.126 278.112 564.053 284.306L568.45 291.4H601.884L606.794 286.492V253.071L599.698 248.675C593.488 251.759 587.741 255.669 582.569 260.24L570.999 248.675H564.053ZM596.974 261.539V281.584H576.921C582.144 273.628 589.016 266.759 596.974 261.539Z" stroke="url(#paint31_radial_852_5215)" stroke-miterlimit="10"/>
<path d="M83.9599 373.854V366.91L72.3905 355.345C76.9633 350.175 80.8864 344.417 83.9599 338.223L79.562 331.129H46.1282L41.218 336.037V369.458L48.3146 373.854C54.5241 370.77 60.2713 366.86 65.4438 362.289L77.0132 373.854H83.9599ZM51.0383 360.991V340.945H71.0911C65.8686 348.901 58.9969 355.77 51.0383 360.991Z" stroke="url(#paint32_radial_852_5215)" stroke-miterlimit="10"/>
<path d="M121.729 331.204V338.148L133.299 349.713C128.726 354.883 124.803 360.641 121.729 366.836L126.127 373.929H159.561L164.471 369.021V335.6L157.374 331.204C151.165 334.289 145.418 338.198 140.245 342.769L128.676 331.204H121.729ZM154.651 344.068V364.113H134.598C139.82 356.157 146.692 349.288 154.651 344.068Z" stroke="url(#paint33_radial_852_5215)" stroke-miterlimit="10"/>
<path d="M244.807 373.854V366.91L233.238 355.345C237.81 350.175 241.734 344.417 244.807 338.223L240.409 331.129H206.975L202.065 336.037V369.458L209.162 373.854C215.371 370.77 221.119 366.86 226.291 362.289L237.86 373.854H244.807ZM211.885 360.991V340.945H231.938C226.716 348.901 219.844 355.77 211.885 360.991Z" stroke="url(#paint34_radial_852_5215)" stroke-miterlimit="10"/>
<path d="M282.564 331.204V338.148L294.133 349.713C289.56 354.883 285.637 360.641 282.564 366.836L286.962 373.929H320.396L325.306 369.021V335.6L318.209 331.204C312 334.289 306.252 338.198 301.08 342.769L289.51 331.204H282.564ZM315.485 344.068V364.113H295.433C300.655 356.157 307.527 349.288 315.485 344.068Z" stroke="url(#paint35_radial_852_5215)" stroke-miterlimit="10"/>
<path d="M405.654 373.854V366.91L394.085 355.345C398.658 350.175 402.581 344.417 405.654 338.223L401.256 331.129H367.823L362.912 336.037V369.458L370.009 373.854C376.218 370.77 381.966 366.86 387.138 362.289L398.708 373.854H405.654ZM372.733 360.991V340.945H392.785C387.563 348.901 380.691 355.77 372.733 360.991Z" stroke="url(#paint36_radial_852_5215)" stroke-miterlimit="10"/>
<path d="M443.411 331.204V338.148L454.98 349.713C450.408 354.883 446.485 360.641 443.411 366.836L447.809 373.929H481.243L486.153 369.021V335.6L479.056 331.204C472.847 334.289 467.1 338.198 461.927 342.769L450.358 331.204H443.411ZM476.333 344.068V364.113H456.28C461.502 356.157 468.374 349.288 476.333 344.068Z" stroke="url(#paint37_radial_852_5215)" stroke-miterlimit="10"/>
<path d="M566.489 373.854V366.91L554.92 355.345C559.492 350.175 563.415 344.417 566.489 338.223L562.091 331.129H528.657L523.747 336.037V369.458L530.844 373.854C537.053 370.77 542.8 366.86 547.973 362.289L559.542 373.854H566.489ZM533.567 360.991V340.945H553.62C548.398 348.901 541.526 355.77 533.567 360.991Z" stroke="url(#paint38_radial_852_5215)" stroke-miterlimit="10"/>
<path d="M604.258 331.204V338.148L615.828 349.713C611.255 354.883 607.332 360.641 604.258 366.836L608.656 373.929H642.09L647 369.021V335.6L639.903 331.204C633.694 334.289 627.947 338.198 622.774 342.769L611.205 331.204H604.258ZM637.18 344.068V364.113H617.127C622.349 356.157 629.221 349.288 637.18 344.068Z" stroke="url(#paint39_radial_852_5215)" stroke-miterlimit="10"/>
<path d="M43.7418 456.384V449.44L32.1724 437.874C36.7452 432.704 40.6683 426.946 43.7418 420.752L39.344 413.658H5.91012L1 418.566V451.987L8.09657 456.384C14.3061 453.299 20.0533 449.39 25.2258 444.818L36.7952 456.384H43.7418ZM10.8202 443.52V423.474H30.873C25.6506 431.43 18.7789 438.299 10.8202 443.52Z" stroke="url(#paint40_radial_852_5215)" stroke-miterlimit="10"/>
<path d="M81.5111 413.733V420.677L93.0805 432.242C88.5077 437.412 84.5846 443.17 81.5111 449.365L85.9089 456.458H119.343L124.253 451.55V418.129L117.156 413.733C110.947 416.818 105.2 420.727 100.027 425.298L88.4577 413.733H81.5111ZM114.433 426.597V446.642H94.3798C99.6023 438.686 106.474 431.817 114.433 426.597Z" stroke="url(#paint41_radial_852_5215)" stroke-miterlimit="10"/>
<path d="M204.589 456.384V449.44L193.02 437.874C197.592 432.704 201.515 426.946 204.589 420.752L200.191 413.658H166.757L161.847 418.566V451.987L168.944 456.384C175.153 453.299 180.9 449.39 186.073 444.818L197.642 456.384H204.589ZM171.667 443.52V423.474H191.72C186.498 431.43 179.626 438.299 171.667 443.52Z" stroke="url(#paint42_radial_852_5215)" stroke-miterlimit="10"/>
<path d="M242.358 413.733V420.677L253.928 432.242C249.355 437.412 245.432 443.17 242.358 449.365L246.756 456.458H280.19L285.1 451.55V418.129L278.004 413.733C271.794 416.818 266.047 420.727 260.874 425.298L249.305 413.733H242.358ZM275.28 426.597V446.642H255.227C260.449 438.686 267.321 431.817 275.28 426.597Z" stroke="url(#paint43_radial_852_5215)" stroke-miterlimit="10"/>
<path d="M365.436 456.384V449.44L353.867 437.874C358.44 432.704 362.363 426.946 365.436 420.752L361.038 413.658H327.605L322.694 418.566V451.987L329.791 456.384C336 453.299 341.748 449.39 346.92 444.818L358.49 456.384H365.436ZM332.515 443.52V423.474H352.567C347.345 431.43 340.473 438.299 332.515 443.52Z" stroke="url(#paint44_radial_852_5215)" stroke-miterlimit="10"/>
<path d="M403.205 413.733V420.677L414.775 432.242C410.202 437.412 406.279 443.17 403.205 449.365L407.603 456.458H441.037L445.947 451.55V418.129L438.851 413.733C432.641 416.818 426.894 420.727 421.721 425.298L410.152 413.733H403.205ZM436.127 426.597V446.642H416.074C421.297 438.686 428.168 431.817 436.127 426.597Z" stroke="url(#paint45_radial_852_5215)" stroke-miterlimit="10"/>
<path d="M526.283 456.384V449.44L514.714 437.874C519.287 432.704 523.21 426.946 526.283 420.752L521.886 413.658H488.452L483.542 418.566V451.987L490.638 456.384C496.848 453.299 502.595 449.39 507.767 444.818L519.337 456.384H526.283ZM493.362 443.52V423.474H513.415C508.192 431.43 501.32 438.299 493.362 443.52Z" stroke="url(#paint46_radial_852_5215)" stroke-miterlimit="10"/>
<path d="M564.053 413.733V420.677L575.622 432.242C571.049 437.412 567.126 443.17 564.053 449.365L568.45 456.458H601.884L606.794 451.55V418.129L599.698 413.733C593.488 416.818 587.741 420.727 582.569 425.298L570.999 413.733H564.053ZM596.974 426.597V446.642H576.921C582.144 438.686 589.016 431.817 596.974 426.597Z" stroke="url(#paint47_radial_852_5215)" stroke-miterlimit="10"/>
<path d="M83.9599 538.913V531.969L72.3905 520.404C76.9633 515.233 80.8864 509.475 83.9599 503.281L79.562 496.187H46.1282L41.218 501.095V534.516L48.3146 538.913C54.5241 535.828 60.2713 531.919 65.4438 527.348L77.0132 538.913H83.9599ZM51.0383 526.049V506.003H71.0911C65.8686 513.959 58.9969 520.828 51.0383 526.049Z" stroke="url(#paint48_radial_852_5215)" stroke-miterlimit="10"/>
<path d="M121.729 496.274V503.218L133.299 514.783C128.726 519.954 124.803 525.711 121.729 531.906L126.127 539H159.561L164.471 534.092V500.67L157.374 496.274C151.165 499.359 145.418 503.268 140.245 507.839L128.676 496.274H121.729ZM154.651 509.138V529.183H134.598C139.82 521.228 146.692 514.359 154.651 509.138Z" stroke="url(#paint49_radial_852_5215)" stroke-miterlimit="10"/>
<path d="M244.807 538.913V531.969L233.238 520.404C237.81 515.233 241.734 509.475 244.807 503.281L240.409 496.187H206.975L202.065 501.095V534.516L209.162 538.913C215.371 535.828 221.119 531.919 226.291 527.348L237.86 538.913H244.807ZM211.885 526.049V506.003H231.938C226.716 513.959 219.844 520.828 211.885 526.049Z" stroke="url(#paint50_radial_852_5215)" stroke-miterlimit="10"/>
<path d="M282.564 496.274V503.218L294.133 514.783C289.56 519.954 285.637 525.711 282.564 531.906L286.962 539H320.396L325.306 534.092V500.67L318.209 496.274C312 499.359 306.252 503.268 301.08 507.839L289.51 496.274H282.564ZM315.485 509.138V529.183H295.433C300.655 521.228 307.527 514.359 315.485 509.138Z" stroke="url(#paint51_radial_852_5215)" stroke-miterlimit="10"/>
<path d="M405.654 538.913V531.969L394.085 520.404C398.658 515.233 402.581 509.475 405.654 503.281L401.256 496.187H367.823L362.912 501.095V534.516L370.009 538.913C376.218 535.828 381.966 531.919 387.138 527.348L398.708 538.913H405.654ZM372.733 526.049V506.003H392.785C387.563 513.959 380.691 520.828 372.733 526.049Z" stroke="url(#paint52_radial_852_5215)" stroke-miterlimit="10"/>
<path d="M443.411 496.274V503.218L454.98 514.783C450.408 519.954 446.485 525.711 443.411 531.906L447.809 539H481.243L486.153 534.092V500.67L479.056 496.274C472.847 499.359 467.1 503.268 461.927 507.839L450.358 496.274H443.411ZM476.333 509.138V529.183H456.28C461.502 521.228 468.374 514.359 476.333 509.138Z" stroke="url(#paint53_radial_852_5215)" stroke-miterlimit="10"/>
<path d="M566.489 538.913V531.969L554.92 520.404C559.492 515.233 563.415 509.475 566.489 503.281L562.091 496.187H528.657L523.747 501.095V534.516L530.844 538.913C537.053 535.828 542.8 531.919 547.973 527.348L559.542 538.913H566.489ZM533.567 526.049V506.003H553.62C548.398 513.959 541.526 520.828 533.567 526.049Z" stroke="url(#paint54_radial_852_5215)" stroke-miterlimit="10"/>
<path d="M604.258 496.274V503.218L615.828 514.783C611.255 519.954 607.332 525.711 604.258 531.906L608.656 539H642.09L647 534.092V500.67L639.903 496.274C633.694 499.359 627.947 503.268 622.774 507.839L611.205 496.274H604.258ZM637.18 509.138V529.183H617.127C622.349 521.228 629.221 514.359 637.18 509.138Z" stroke="url(#paint55_radial_852_5215)" stroke-miterlimit="10"/>
<defs>
<radialGradient id="paint0_radial_852_5215" cx="0" cy="0" r="1" gradientUnits="userSpaceOnUse" gradientTransform="translate(324 270) rotate(90) scale(269 323)">
<stop/>
<stop offset="1" stop-color="white" stop-opacity="0"/>
</radialGradient>
<radialGradient id="paint1_radial_852_5215" cx="0" cy="0" r="1" gradientUnits="userSpaceOnUse" gradientTransform="translate(324 270) rotate(90) scale(269 323)">
<stop/>
<stop offset="1" stop-color="white" stop-opacity="0"/>
</radialGradient>
<radialGradient id="paint2_radial_852_5215" cx="0" cy="0" r="1" gradientUnits="userSpaceOnUse" gradientTransform="translate(324 270) rotate(90) scale(269 323)">
<stop/>
<stop offset="1" stop-color="white" stop-opacity="0"/>
</radialGradient>
<radialGradient id="paint3_radial_852_5215" cx="0" cy="0" r="1" gradientUnits="userSpaceOnUse" gradientTransform="translate(324 270) rotate(90) scale(269 323)">
<stop/>
<stop offset="1" stop-color="white" stop-opacity="0"/>
</radialGradient>
<radialGradient id="paint4_radial_852_5215" cx="0" cy="0" r="1" gradientUnits="userSpaceOnUse" gradientTransform="translate(324 270) rotate(90) scale(269 323)">
<stop/>
<stop offset="1" stop-color="white" stop-opacity="0"/>
</radialGradient>
<radialGradient id="paint5_radial_852_5215" cx="0" cy="0" r="1" gradientUnits="userSpaceOnUse" gradientTransform="translate(324 270) rotate(90) scale(269 323)">
<stop/>
<stop offset="1" stop-color="white" stop-opacity="0"/>
</radialGradient>
<radialGradient id="paint6_radial_852_5215" cx="0" cy="0" r="1" gradientUnits="userSpaceOnUse" gradientTransform="translate(324 270) rotate(90) scale(269 323)">
<stop/>
<stop offset="1" stop-color="white" stop-opacity="0"/>
</radialGradient>
<radialGradient id="paint7_radial_852_5215" cx="0" cy="0" r="1" gradientUnits="userSpaceOnUse" gradientTransform="translate(324 270) rotate(90) scale(269 323)">
<stop/>
<stop offset="1" stop-color="white" stop-opacity="0"/>
</radialGradient>
<radialGradient id="paint8_radial_852_5215" cx="0" cy="0" r="1" gradientUnits="userSpaceOnUse" gradientTransform="translate(324 270) rotate(90) scale(269 323)">
<stop/>
<stop offset="1" stop-color="white" stop-opacity="0"/>
</radialGradient>
<radialGradient id="paint9_radial_852_5215" cx="0" cy="0" r="1" gradientUnits="userSpaceOnUse" gradientTransform="translate(324 270) rotate(90) scale(269 323)">
<stop/>
<stop offset="1" stop-color="white" stop-opacity="0"/>
</radialGradient>
<radialGradient id="paint10_radial_852_5215" cx="0" cy="0" r="1" gradientUnits="userSpaceOnUse" gradientTransform="translate(324 270) rotate(90) scale(269 323)">
<stop/>
<stop offset="1" stop-color="white" stop-opacity="0"/>
</radialGradient>
<radialGradient id="paint11_radial_852_5215" cx="0" cy="0" r="1" gradientUnits="userSpaceOnUse" gradientTransform="translate(324 270) rotate(90) scale(269 323)">
<stop/>
<stop offset="1" stop-color="white" stop-opacity="0"/>
</radialGradient>
<radialGradient id="paint12_radial_852_5215" cx="0" cy="0" r="1" gradientUnits="userSpaceOnUse" gradientTransform="translate(324 270) rotate(90) scale(269 323)">
<stop/>
<stop offset="1" stop-color="white" stop-opacity="0"/>
</radialGradient>
<radialGradient id="paint13_radial_852_5215" cx="0" cy="0" r="1" gradientUnits="userSpaceOnUse" gradientTransform="translate(324 270) rotate(90) scale(269 323)">
<stop/>
<stop offset="1" stop-color="white" stop-opacity="0"/>
</radialGradient>
<radialGradient id="paint14_radial_852_5215" cx="0" cy="0" r="1" gradientUnits="userSpaceOnUse" gradientTransform="translate(324 270) rotate(90) scale(269 323)">
<stop/>
<stop offset="1" stop-color="white" stop-opacity="0"/>
</radialGradient>
<radialGradient id="paint15_radial_852_5215" cx="0" cy="0" r="1" gradientUnits="userSpaceOnUse" gradientTransform="translate(324 270) rotate(90) scale(269 323)">
<stop/>
<stop offset="1" stop-color="white" stop-opacity="0"/>
</radialGradient>
<radialGradient id="paint16_radial_852_5215" cx="0" cy="0" r="1" gradientUnits="userSpaceOnUse" gradientTransform="translate(324 270) rotate(90) scale(269 323)">
<stop/>
<stop offset="1" stop-color="white" stop-opacity="0"/>
</radialGradient>
<radialGradient id="paint17_radial_852_5215" cx="0" cy="0" r="1" gradientUnits="userSpaceOnUse" gradientTransform="translate(324 270) rotate(90) scale(269 323)">
<stop/>
<stop offset="1" stop-color="white" stop-opacity="0"/>
</radialGradient>
<radialGradient id="paint18_radial_852_5215" cx="0" cy="0" r="1" gradientUnits="userSpaceOnUse" gradientTransform="translate(324 270) rotate(90) scale(269 323)">
<stop/>
<stop offset="1" stop-color="white" stop-opacity="0"/>
</radialGradient>
<radialGradient id="paint19_radial_852_5215" cx="0" cy="0" r="1" gradientUnits="userSpaceOnUse" gradientTransform="translate(324 270) rotate(90) scale(269 323)">
<stop/>
<stop offset="1" stop-color="white" stop-opacity="0"/>
</radialGradient>
<radialGradient id="paint20_radial_852_5215" cx="0" cy="0" r="1" gradientUnits="userSpaceOnUse" gradientTransform="translate(324 270) rotate(90) scale(269 323)">
<stop/>
<stop offset="1" stop-color="white" stop-opacity="0"/>
</radialGradient>
<radialGradient id="paint21_radial_852_5215" cx="0" cy="0" r="1" gradientUnits="userSpaceOnUse" gradientTransform="translate(324 270) rotate(90) scale(269 323)">
<stop/>
<stop offset="1" stop-color="white" stop-opacity="0"/>
</radialGradient>
<radialGradient id="paint22_radial_852_5215" cx="0" cy="0" r="1" gradientUnits="userSpaceOnUse" gradientTransform="translate(324 270) rotate(90) scale(269 323)">
<stop/>
<stop offset="1" stop-color="white" stop-opacity="0"/>
</radialGradient>
<radialGradient id="paint23_radial_852_5215" cx="0" cy="0" r="1" gradientUnits="userSpaceOnUse" gradientTransform="translate(324 270) rotate(90) scale(269 323)">
<stop/>
<stop offset="1" stop-color="white" stop-opacity="0"/>
</radialGradient>
<radialGradient id="paint24_radial_852_5215" cx="0" cy="0" r="1" gradientUnits="userSpaceOnUse" gradientTransform="translate(324 270) rotate(90) scale(269 323)">
<stop/>
<stop offset="1" stop-color="white" stop-opacity="0"/>
</radialGradient>
<radialGradient id="paint25_radial_852_5215" cx="0" cy="0" r="1" gradientUnits="userSpaceOnUse" gradientTransform="translate(324 270) rotate(90) scale(269 323)">
<stop/>
<stop offset="1" stop-color="white" stop-opacity="0"/>
</radialGradient>
<radialGradient id="paint26_radial_852_5215" cx="0" cy="0" r="1" gradientUnits="userSpaceOnUse" gradientTransform="translate(324 270) rotate(90) scale(269 323)">
<stop/>
<stop offset="1" stop-color="white" stop-opacity="0"/>
</radialGradient>
<radialGradient id="paint27_radial_852_5215" cx="0" cy="0" r="1" gradientUnits="userSpaceOnUse" gradientTransform="translate(324 270) rotate(90) scale(269 323)">
<stop/>
<stop offset="1" stop-color="white" stop-opacity="0"/>
</radialGradient>
<radialGradient id="paint28_radial_852_5215" cx="0" cy="0" r="1" gradientUnits="userSpaceOnUse" gradientTransform="translate(324 270) rotate(90) scale(269 323)">
<stop/>
<stop offset="1" stop-color="white" stop-opacity="0"/>
</radialGradient>
<radialGradient id="paint29_radial_852_5215" cx="0" cy="0" r="1" gradientUnits="userSpaceOnUse" gradientTransform="translate(324 270) rotate(90) scale(269 323)">
<stop/>
<stop offset="1" stop-color="white" stop-opacity="0"/>
</radialGradient>
<radialGradient id="paint30_radial_852_5215" cx="0" cy="0" r="1" gradientUnits="userSpaceOnUse" gradientTransform="translate(324 270) rotate(90) scale(269 323)">
<stop/>
<stop offset="1" stop-color="white" stop-opacity="0"/>
</radialGradient>
<radialGradient id="paint31_radial_852_5215" cx="0" cy="0" r="1" gradientUnits="userSpaceOnUse" gradientTransform="translate(324 270) rotate(90) scale(269 323)">
<stop/>
<stop offset="1" stop-color="white" stop-opacity="0"/>
</radialGradient>
<radialGradient id="paint32_radial_852_5215" cx="0" cy="0" r="1" gradientUnits="userSpaceOnUse" gradientTransform="translate(324 270) rotate(90) scale(269 323)">
<stop/>
<stop offset="1" stop-color="white" stop-opacity="0"/>
</radialGradient>
<radialGradient id="paint33_radial_852_5215" cx="0" cy="0" r="1" gradientUnits="userSpaceOnUse" gradientTransform="translate(324 270) rotate(90) scale(269 323)">
<stop/>
<stop offset="1" stop-color="white" stop-opacity="0"/>
</radialGradient>
<radialGradient id="paint34_radial_852_5215" cx="0" cy="0" r="1" gradientUnits="userSpaceOnUse" gradientTransform="translate(324 270) rotate(90) scale(269 323)">
<stop/>
<stop offset="1" stop-color="white" stop-opacity="0"/>
</radialGradient>
<radialGradient id="paint35_radial_852_5215" cx="0" cy="0" r="1" gradientUnits="userSpaceOnUse" gradientTransform="translate(324 270) rotate(90) scale(269 323)">
<stop/>
<stop offset="1" stop-color="white" stop-opacity="0"/>
</radialGradient>
<radialGradient id="paint36_radial_852_5215" cx="0" cy="0" r="1" gradientUnits="userSpaceOnUse" gradientTransform="translate(324 270) rotate(90) scale(269 323)">
<stop/>
<stop offset="1" stop-color="white" stop-opacity="0"/>
</radialGradient>
<radialGradient id="paint37_radial_852_5215" cx="0" cy="0" r="1" gradientUnits="userSpaceOnUse" gradientTransform="translate(324 270) rotate(90) scale(269 323)">
<stop/>
<stop offset="1" stop-color="white" stop-opacity="0"/>
</radialGradient>
<radialGradient id="paint38_radial_852_5215" cx="0" cy="0" r="1" gradientUnits="userSpaceOnUse" gradientTransform="translate(324 270) rotate(90) scale(269 323)">
<stop/>
<stop offset="1" stop-color="white" stop-opacity="0"/>
</radialGradient>
<radialGradient id="paint39_radial_852_5215" cx="0" cy="0" r="1" gradientUnits="userSpaceOnUse" gradientTransform="translate(324 270) rotate(90) scale(269 323)">
<stop/>
<stop offset="1" stop-color="white" stop-opacity="0"/>
</radialGradient>
<radialGradient id="paint40_radial_852_5215" cx="0" cy="0" r="1" gradientUnits="userSpaceOnUse" gradientTransform="translate(324 270) rotate(90) scale(269 323)">
<stop/>
<stop offset="1" stop-color="white" stop-opacity="0"/>
</radialGradient>
<radialGradient id="paint41_radial_852_5215" cx="0" cy="0" r="1" gradientUnits="userSpaceOnUse" gradientTransform="translate(324 270) rotate(90) scale(269 323)">
<stop/>
<stop offset="1" stop-color="white" stop-opacity="0"/>
</radialGradient>
<radialGradient id="paint42_radial_852_5215" cx="0" cy="0" r="1" gradientUnits="userSpaceOnUse" gradientTransform="translate(324 270) rotate(90) scale(269 323)">
<stop/>
<stop offset="1" stop-color="white" stop-opacity="0"/>
</radialGradient>
<radialGradient id="paint43_radial_852_5215" cx="0" cy="0" r="1" gradientUnits="userSpaceOnUse" gradientTransform="translate(324 270) rotate(90) scale(269 323)">
<stop/>
<stop offset="1" stop-color="white" stop-opacity="0"/>
</radialGradient>
<radialGradient id="paint44_radial_852_5215" cx="0" cy="0" r="1" gradientUnits="userSpaceOnUse" gradientTransform="translate(324 270) rotate(90) scale(269 323)">
<stop/>
<stop offset="1" stop-color="white" stop-opacity="0"/>
</radialGradient>
<radialGradient id="paint45_radial_852_5215" cx="0" cy="0" r="1" gradientUnits="userSpaceOnUse" gradientTransform="translate(324 270) rotate(90) scale(269 323)">
<stop/>
<stop offset="1" stop-color="white" stop-opacity="0"/>
</radialGradient>
<radialGradient id="paint46_radial_852_5215" cx="0" cy="0" r="1" gradientUnits="userSpaceOnUse" gradientTransform="translate(324 270) rotate(90) scale(269 323)">
<stop/>
<stop offset="1" stop-color="white" stop-opacity="0"/>
</radialGradient>
<radialGradient id="paint47_radial_852_5215" cx="0" cy="0" r="1" gradientUnits="userSpaceOnUse" gradientTransform="translate(324 270) rotate(90) scale(269 323)">
<stop/>
<stop offset="1" stop-color="white" stop-opacity="0"/>
</radialGradient>
<radialGradient id="paint48_radial_852_5215" cx="0" cy="0" r="1" gradientUnits="userSpaceOnUse" gradientTransform="translate(324 270) rotate(90) scale(269 323)">
<stop/>
<stop offset="1" stop-color="white" stop-opacity="0"/>
</radialGradient>
<radialGradient id="paint49_radial_852_5215" cx="0" cy="0" r="1" gradientUnits="userSpaceOnUse" gradientTransform="translate(324 270) rotate(90) scale(269 323)">
<stop/>
<stop offset="1" stop-color="white" stop-opacity="0"/>
</radialGradient>
<radialGradient id="paint50_radial_852_5215" cx="0" cy="0" r="1" gradientUnits="userSpaceOnUse" gradientTransform="translate(324 270) rotate(90) scale(269 323)">
<stop/>
<stop offset="1" stop-color="white" stop-opacity="0"/>
</radialGradient>
<radialGradient id="paint51_radial_852_5215" cx="0" cy="0" r="1" gradientUnits="userSpaceOnUse" gradientTransform="translate(324 270) rotate(90) scale(269 323)">
<stop/>
<stop offset="1" stop-color="white" stop-opacity="0"/>
</radialGradient>
<radialGradient id="paint52_radial_852_5215" cx="0" cy="0" r="1" gradientUnits="userSpaceOnUse" gradientTransform="translate(324 270) rotate(90) scale(269 323)">
<stop/>
<stop offset="1" stop-color="white" stop-opacity="0"/>
</radialGradient>
<radialGradient id="paint53_radial_852_5215" cx="0" cy="0" r="1" gradientUnits="userSpaceOnUse" gradientTransform="translate(324 270) rotate(90) scale(269 323)">
<stop/>
<stop offset="1" stop-color="white" stop-opacity="0"/>
</radialGradient>
<radialGradient id="paint54_radial_852_5215" cx="0" cy="0" r="1" gradientUnits="userSpaceOnUse" gradientTransform="translate(324 270) rotate(90) scale(269 323)">
<stop/>
<stop offset="1" stop-color="white" stop-opacity="0"/>
</radialGradient>
<radialGradient id="paint55_radial_852_5215" cx="0" cy="0" r="1" gradientUnits="userSpaceOnUse" gradientTransform="translate(324 270) rotate(90) scale(269 323)">
<stop/>
<stop offset="1" stop-color="white" stop-opacity="0"/>
</radialGradient>
</defs>
</svg>
