<svg width="173" height="151" viewBox="0 0 173 151" fill="none" xmlns="http://www.w3.org/2000/svg">
  <path d="M40.8906 75.5237C40.8906 103.415 63.4995 126.024 91.3906 126.024C119.282 126.024 141.891 103.415 141.891 75.5237C141.891 47.6325 119.282 25.0237 91.3906 25.0237C63.4995 25.0237 40.8906 47.6325 40.8906 75.5237Z" fill="url(#paint0_linear_938_4257)"/>
  <path d="M85.7743 95.3695C84.9798 96.164 83.6916 96.164 82.8971 95.3695L64.3471 76.8194C63.5526 76.0249 63.5526 74.7368 64.3471 73.9423L68.6107 69.6787C69.4052 68.8843 70.6933 68.8843 71.4878 69.6787L84.3357 82.5266L111.46 55.3971C112.255 54.6027 113.543 54.6024 114.337 55.3965L118.605 59.6609C119.4 60.4553 119.4 61.7439 118.605 62.5386L85.7743 95.3695Z" fill="white"/>
  <path d="M29.1978 45.9054C27.1907 46.42 24.7098 47.1677 23.2191 48.6746C21.4025 50.5098 20.734 53.3075 20.1408 56.0966C20.0839 56.3653 19.714 56.3653 19.6571 56.0966C19.1778 53.8619 18.5618 51.178 17.2659 49.519C15.6172 47.408 13.0781 46.5451 10.5859 45.9054C10.3255 45.8386 10.3255 45.4832 10.5859 45.4164C12.7666 44.8577 15.2645 44.1171 16.8235 42.4041C18.4494 40.6172 19.1024 37.8167 19.6571 35.2252C19.714 34.9565 20.0839 34.9565 20.1408 35.2252C20.6586 37.6603 21.5434 40.4267 23.0171 42.1624C24.6174 44.0474 26.8792 44.8222 29.1978 45.4164C29.4581 45.4832 29.4581 45.8386 29.1978 45.9054Z" fill="url(#paint1_linear_938_4257)"/>
  <path d="M158.198 125.905C156.191 126.42 153.71 127.168 152.219 128.674C150.403 130.51 149.734 133.307 149.141 136.096C149.084 136.365 148.714 136.365 148.657 136.096C148.178 133.862 147.562 131.178 146.266 129.519C144.617 127.408 142.078 126.545 139.586 125.905C139.326 125.838 139.326 125.483 139.586 125.416C141.767 124.858 144.264 124.117 145.824 122.404C147.449 120.617 148.102 117.817 148.657 115.225C148.714 114.956 149.084 114.956 149.141 115.225C149.659 117.66 150.543 120.427 152.017 122.162C153.617 124.047 155.879 124.822 158.198 125.416C158.458 125.483 158.458 125.838 158.198 125.905Z" fill="url(#paint2_linear_938_4257)"/>
  <path d="M27.2694 92.5764C24.4017 93.3113 20.8554 94.3803 18.7245 96.534C16.1284 99.1582 15.1739 103.156 14.3261 107.14C14.245 107.524 13.7173 107.525 13.6348 107.14C12.9506 103.946 12.0686 100.111 10.2165 97.7395C7.86088 94.7229 4.23208 93.489 0.670146 92.5764C0.297451 92.4811 0.297451 91.9722 0.670146 91.877C3.78542 91.0795 7.35589 90.0204 9.58494 87.571C11.9079 85.0179 12.841 81.0162 13.6348 77.3116C13.7173 76.9277 14.245 76.9277 14.3261 77.3116C15.0673 80.7916 16.3304 84.745 18.4372 87.2256C20.7245 89.9195 23.9579 91.0269 27.2694 91.8755C27.6421 91.9708 27.6421 92.4797 27.2694 92.5749V92.5764Z" fill="url(#paint3_linear_938_4257)"/>
  <path d="M172.516 35.3034C171.543 35.5522 170.339 35.9161 169.615 36.6468C168.735 37.5367 168.41 38.8943 168.121 40.2476C168.093 40.3784 167.915 40.3784 167.887 40.2476C167.655 39.1629 167.355 37.8622 166.726 37.0562C165.927 36.0327 164.695 35.6133 163.486 35.3034C163.359 35.2707 163.359 35.0987 163.486 35.066C164.542 34.7945 165.754 34.4362 166.511 33.6046C167.299 32.7375 167.617 31.3799 167.885 30.1218C167.914 29.991 168.092 29.991 168.12 30.1218C168.372 31.3031 168.8 32.6451 169.516 33.4866C170.292 34.4007 171.389 34.7774 172.514 35.0646C172.641 35.0973 172.641 35.2693 172.514 35.302L172.516 35.3034Z" fill="url(#paint4_linear_938_4257)"/>
  <path d="M61.5156 131.303C60.5426 131.552 59.3392 131.916 58.6151 132.647C57.7346 133.536 57.4103 134.894 57.1215 136.247C57.093 136.378 56.9152 136.378 56.8868 136.247C56.6549 135.163 56.3548 133.862 55.726 133.056C54.9266 132.032 53.6947 131.613 52.4856 131.303C52.359 131.271 52.359 131.099 52.4856 131.066C53.5425 130.794 54.7545 130.436 55.5112 129.604C56.2993 128.737 56.6165 127.38 56.8854 126.122C56.9138 125.991 57.0916 125.991 57.1201 126.122C57.3719 127.303 57.8 128.645 58.5155 129.486C59.2922 130.401 60.389 130.777 61.5142 131.064C61.6408 131.097 61.6408 131.269 61.5142 131.302L61.5156 131.303Z" fill="url(#paint5_linear_938_4257)"/>
  <path d="M83.5156 145.303C82.5426 145.552 81.3392 145.916 80.6151 146.646C79.7346 147.536 79.4103 148.894 79.1215 150.247C79.0931 150.378 78.9152 150.378 78.8868 150.247C78.6549 149.163 78.3548 147.862 77.726 147.056C76.9266 146.032 75.6947 145.613 74.4856 145.303C74.359 145.27 74.359 145.098 74.4856 145.066C75.5425 144.794 76.7545 144.436 77.5112 143.604C78.2993 142.737 78.6165 141.38 78.8854 140.122C78.9138 139.991 79.0916 139.991 79.1201 140.122C79.3719 141.303 79.8 142.645 80.5155 143.486C81.2922 144.4 82.389 144.777 83.5142 145.064C83.6408 145.097 83.6408 145.269 83.5142 145.302L83.5156 145.303Z" fill="url(#paint6_linear_938_4257)"/>
  <path d="M111.46 5.27969C110.487 5.52847 109.284 5.89239 108.56 6.62307C107.679 7.51297 107.355 8.87057 107.066 10.2239C107.038 10.3547 106.86 10.3547 106.832 10.2239C106.6 9.13924 106.3 7.83851 105.671 7.03249C104.871 6.00896 103.64 5.5896 102.43 5.27969C102.304 5.247 102.304 5.07499 102.43 5.04229C103.487 4.77077 104.699 4.41254 105.456 3.58092C106.244 2.71377 106.561 1.35617 106.83 0.098088C106.859 -0.032696 107.036 -0.032696 107.065 0.098088C107.317 1.27941 107.745 2.62137 108.46 3.46293C109.237 4.377 110.334 4.75371 111.459 5.04087C111.586 5.07357 111.586 5.24558 111.459 5.27827L111.46 5.27969Z" fill="url(#paint7_linear_938_4257)"/>
  <defs>
    <linearGradient id="paint0_linear_938_4257" x1="30.8733" y1="26.0097" x2="151.944" y2="166.314" gradientUnits="userSpaceOnUse">
      <stop stop-color="#80C03F"/>
      <stop offset="1" stop-color="#2CA342"/>
    </linearGradient>
    <linearGradient id="paint1_linear_938_4257" x1="30.8733" y1="26.0097" x2="151.944" y2="166.314" gradientUnits="userSpaceOnUse">
      <stop stop-color="#80C03F"/>
      <stop offset="1" stop-color="#2CA342"/>
    </linearGradient>
    <linearGradient id="paint2_linear_938_4257" x1="30.8733" y1="26.0097" x2="151.944" y2="166.314" gradientUnits="userSpaceOnUse">
      <stop stop-color="#80C03F"/>
      <stop offset="1" stop-color="#2CA342"/>
    </linearGradient>
    <linearGradient id="paint3_linear_938_4257" x1="30.8733" y1="26.0097" x2="151.944" y2="166.314" gradientUnits="userSpaceOnUse">
      <stop stop-color="#80C03F"/>
      <stop offset="1" stop-color="#2CA342"/>
    </linearGradient>
    <linearGradient id="paint4_linear_938_4257" x1="30.8733" y1="26.0097" x2="151.944" y2="166.314" gradientUnits="userSpaceOnUse">
      <stop stop-color="#80C03F"/>
      <stop offset="1" stop-color="#2CA342"/>
    </linearGradient>
    <linearGradient id="paint5_linear_938_4257" x1="30.8733" y1="26.0097" x2="151.944" y2="166.314" gradientUnits="userSpaceOnUse">
      <stop stop-color="#80C03F"/>
      <stop offset="1" stop-color="#2CA342"/>
    </linearGradient>
    <linearGradient id="paint6_linear_938_4257" x1="30.8733" y1="26.0097" x2="151.944" y2="166.314" gradientUnits="userSpaceOnUse">
      <stop stop-color="#80C03F"/>
      <stop offset="1" stop-color="#2CA342"/>
    </linearGradient>
    <linearGradient id="paint7_linear_938_4257" x1="30.8733" y1="26.0097" x2="151.944" y2="166.314" gradientUnits="userSpaceOnUse">
      <stop stop-color="#80C03F"/>
      <stop offset="1" stop-color="#2CA342"/>
    </linearGradient>
  </defs>
</svg>