<svg width="550" height="274" viewBox="0 0 550 274" fill="none" xmlns="http://www.w3.org/2000/svg">
<path d="M44.4023 18.67V15.0386L38.3495 8.99064C40.7419 6.2867 42.7943 3.27579 44.4023 0.0362909L42.1015 -3.67346H24.6098L22.041 -1.10668V16.371L25.7537 18.67C29.0023 17.0567 32.0091 15.0125 34.7152 12.622L40.768 18.67H44.4023ZM27.1786 11.9428V1.4601H37.6697C34.9375 5.62051 31.3424 9.2127 27.1786 11.9428Z" stroke="url(#paint0_radial_852_4906)" stroke-miterlimit="10"/>
<path d="M64.1621 -3.62774V0.00363469L70.2149 6.05158C67.8226 8.75552 65.7701 11.7664 64.1621 15.0059L66.463 18.7157H83.9546L86.5235 16.1489V-1.32874L82.8107 -3.62774C79.5621 -2.01452 76.5553 0.0297599 73.8492 2.4202L67.7899 -3.62774H64.1556H64.1621ZM81.3858 3.09945V13.5821H70.8947C73.627 9.42171 77.222 5.82951 81.3858 3.09945Z" stroke="url(#paint1_radial_852_4906)" stroke-miterlimit="10"/>
<path d="M128.553 18.67V15.0386L122.5 8.99064C124.893 6.2867 126.945 3.27579 128.553 0.0362909L126.252 -3.67346H108.761L106.192 -1.10668V16.371L109.905 18.67C113.153 17.0567 116.16 15.0125 118.866 12.622L124.919 18.67H128.553ZM111.329 11.9428V1.4601H121.821C119.088 5.62051 115.493 9.2127 111.329 11.9428Z" stroke="url(#paint2_radial_852_4906)" stroke-miterlimit="10"/>
<path d="M148.306 -3.62774V0.00363469L154.359 6.05158C151.967 8.75552 149.914 11.7664 148.306 15.0059L150.607 18.7157H168.099L170.668 16.1489V-1.32874L166.955 -3.62774C163.706 -2.01452 160.7 0.0297599 157.993 2.4202L151.941 -3.62774H148.306ZM165.53 3.09945V13.5821H155.039C157.771 9.42171 161.366 5.82951 165.53 3.09945Z" stroke="url(#paint3_radial_852_4906)" stroke-miterlimit="10"/>
<path d="M212.704 18.67V15.0386L206.651 8.99064C209.043 6.2867 211.096 3.27579 212.704 0.0362909L210.403 -3.67346H192.911L190.343 -1.10668V16.371L194.055 18.67C197.304 17.0567 200.311 15.0125 203.017 12.622L209.07 18.67H212.704ZM195.48 11.9428V1.4601H205.971C203.239 5.62051 199.644 9.2127 195.48 11.9428Z" stroke="url(#paint4_radial_852_4906)" stroke-miterlimit="10"/>
<path d="M232.457 -3.62774V0.00363469L238.51 6.05158C236.118 8.75552 234.065 11.7664 232.457 15.0059L234.758 18.7157H252.25L254.819 16.1489V-1.32874L251.106 -3.62774C247.857 -2.01452 244.85 0.0297599 242.144 2.4202L236.091 -3.62774H232.457ZM249.681 3.09945V13.5821H239.19C241.922 9.42171 245.517 5.82951 249.681 3.09945Z" stroke="url(#paint5_radial_852_4906)" stroke-miterlimit="10"/>
<path d="M296.848 18.67V15.0386L290.795 8.99064C293.188 6.2867 295.24 3.27579 296.848 0.0362909L294.547 -3.67346H277.056L274.487 -1.10668V16.371L278.2 18.67C281.448 17.0567 284.455 15.0125 287.161 12.622L293.214 18.67H296.848ZM279.625 11.9428V1.4601H290.116C287.383 5.62051 283.788 9.2127 279.625 11.9428Z" stroke="url(#paint6_radial_852_4906)" stroke-miterlimit="10"/>
<path d="M316.608 -3.62774V0.00363469L322.661 6.05158C320.268 8.75552 318.216 11.7664 316.608 15.0059L318.909 18.7157H336.4L338.969 16.1489V-1.32874L335.257 -3.62774C332.008 -2.01452 329.001 0.0297599 326.295 2.4202L320.242 -3.62774H316.608ZM333.832 3.09945V13.5821H323.341C326.073 9.42171 329.668 5.82951 333.832 3.09945Z" stroke="url(#paint7_radial_852_4906)" stroke-miterlimit="10"/>
<path d="M380.999 18.67V15.0386L374.946 8.99064C377.339 6.2867 379.391 3.27579 380.999 0.0362909L378.698 -3.67346H361.206L358.638 -1.10668V16.371L362.35 18.67C365.599 17.0567 368.606 15.0125 371.312 12.622L377.365 18.67H380.999ZM363.775 11.9428V1.4601H374.266C371.534 5.62051 367.939 9.2127 363.775 11.9428Z" stroke="url(#paint8_radial_852_4906)" stroke-miterlimit="10"/>
<path d="M400.759 -3.62774V0.00363469L406.812 6.05158C404.419 8.75552 402.367 11.7664 400.759 15.0059L403.06 18.7157H420.551L423.12 16.1489V-1.32874L419.407 -3.62774C416.159 -2.01452 413.152 0.0297599 410.446 2.4202L404.393 -3.62774H400.759ZM417.982 3.09945V13.5821H407.491C410.224 9.42171 413.819 5.82951 417.982 3.09945Z" stroke="url(#paint9_radial_852_4906)" stroke-miterlimit="10"/>
<path d="M465.15 18.67V15.0386L459.097 8.99064C461.489 6.2867 463.542 3.27579 465.15 0.0362909L462.849 -3.67346H445.357L442.788 -1.10668V16.371L446.501 18.67C449.75 17.0567 452.757 15.0125 455.463 12.622L461.516 18.67H465.15ZM447.926 11.9428V1.4601H458.417C455.685 5.62051 452.09 9.2127 447.926 11.9428Z" stroke="url(#paint10_radial_852_4906)" stroke-miterlimit="10"/>
<path d="M484.91 -3.62774V0.00363469L490.962 6.05158C488.57 8.75552 486.518 11.7664 484.91 15.0059L487.21 18.7157H504.702L507.271 16.1489V-1.32874L503.558 -3.62774C500.31 -2.01452 497.303 0.0297599 494.597 2.4202L488.544 -3.62774H484.91ZM502.133 3.09945V13.5821H491.642C494.374 9.42171 497.969 5.82951 502.133 3.09945Z" stroke="url(#paint11_radial_852_4906)" stroke-miterlimit="10"/>
<path d="M549.301 18.67V15.0386L543.248 8.99064C545.64 6.2867 547.693 3.27579 549.301 0.0362909L547 -3.67346H529.508L526.939 -1.10668V16.371L530.652 18.67C533.901 17.0567 536.907 15.0125 539.614 12.622L545.666 18.67H549.301ZM532.077 11.9428V1.4601H542.568C539.836 5.62051 536.241 9.2127 532.077 11.9428Z" stroke="url(#paint12_radial_852_4906)" stroke-miterlimit="10"/>
<path d="M23.3613 61.835V58.2036L17.3085 52.1557C19.7009 49.4518 21.7534 46.4409 23.3613 43.2014L21.0605 39.4916H3.56884L1 42.0584V59.536L4.71273 61.835C7.96136 60.2218 10.9682 58.1775 13.6743 55.7871L19.727 61.835H23.3613ZM6.13768 55.1078V44.6252H16.6288C13.8965 48.7856 10.3014 52.3778 6.13768 55.1078Z" stroke="url(#paint13_radial_852_4906)" stroke-miterlimit="10"/>
<path d="M43.1212 39.5308V43.1622L49.1739 49.2101C46.7816 51.9141 44.7291 54.925 43.1212 58.1645L45.422 61.8742H62.9137L65.4825 59.3074V41.8298L61.7698 39.5308C58.5211 41.144 55.5143 43.1883 52.8082 45.5787L46.7554 39.5308H43.1212ZM60.3448 46.258V56.7407H49.8537C52.586 52.5802 56.1811 48.988 60.3448 46.258Z" stroke="url(#paint14_radial_852_4906)" stroke-miterlimit="10"/>
<path d="M107.512 61.835V58.2036L101.459 52.1557C103.852 49.4518 105.904 46.4409 107.512 43.2014L105.211 39.4916H87.7196L85.1508 42.0584V59.536L88.8635 61.835C92.1122 60.2218 95.119 58.1775 97.8251 55.7871L103.878 61.835H107.512ZM90.2885 55.1078V44.6252H100.78C98.0473 48.7856 94.4522 52.3778 90.2885 55.1078Z" stroke="url(#paint15_radial_852_4906)" stroke-miterlimit="10"/>
<path d="M127.272 39.5308V43.1622L133.325 49.2101C130.932 51.9141 128.88 54.925 127.272 58.1645L129.573 61.8742H147.064L149.633 59.3074V41.8298L145.921 39.5308C142.672 41.144 139.665 43.1883 136.959 45.5787L130.906 39.5308H127.272ZM144.496 46.258V56.7407H134.005C136.737 52.5802 140.332 48.988 144.496 46.258Z" stroke="url(#paint16_radial_852_4906)" stroke-miterlimit="10"/>
<path d="M191.663 61.835V58.2036L185.61 52.1557C188.002 49.4518 190.055 46.4409 191.663 43.2014L189.362 39.4916H171.87L169.302 42.0584V59.536L173.014 61.835C176.263 60.2218 179.27 58.1775 181.976 55.7871L188.029 61.835H191.663ZM174.439 55.1078V44.6252H184.93C182.198 48.7856 178.603 52.3778 174.439 55.1078Z" stroke="url(#paint17_radial_852_4906)" stroke-miterlimit="10"/>
<path d="M211.423 39.5308V43.1622L217.476 49.2101C215.083 51.9141 213.031 54.925 211.423 58.1645L213.724 61.8742H231.215L233.784 59.3074V41.8298L230.071 39.5308C226.823 41.144 223.816 43.1883 221.11 45.5787L215.057 39.5308H211.423ZM228.646 46.258V56.7407H218.155C220.888 52.5802 224.483 48.988 228.646 46.258Z" stroke="url(#paint18_radial_852_4906)" stroke-miterlimit="10"/>
<path d="M275.814 61.835V58.2036L269.761 52.1557C272.153 49.4518 274.206 46.4409 275.814 43.2014L273.513 39.4916H256.021L253.452 42.0584V59.536L257.165 61.835C260.414 60.2218 263.421 58.1775 266.127 55.7871L272.179 61.835H275.814ZM258.59 55.1078V44.6252H269.081C266.349 48.7856 262.754 52.3778 258.59 55.1078Z" stroke="url(#paint19_radial_852_4906)" stroke-miterlimit="10"/>
<path d="M295.574 39.5308V43.1622L301.626 49.2101C299.234 51.9141 297.182 54.925 295.574 58.1645L297.874 61.8742H315.366L317.935 59.3074V41.8298L314.222 39.5308C310.974 41.144 307.967 43.1883 305.261 45.5787L299.208 39.5308H295.574ZM312.797 46.258V56.7407H302.306C305.038 52.5802 308.633 48.988 312.797 46.258Z" stroke="url(#paint20_radial_852_4906)" stroke-miterlimit="10"/>
<path d="M359.965 61.835V58.2036L353.912 52.1557C356.304 49.4518 358.357 46.4409 359.965 43.2014L357.664 39.4916H340.172L337.603 42.0584V59.536L341.316 61.835C344.565 60.2218 347.571 58.1775 350.277 55.7871L356.33 61.835H359.965ZM342.741 55.1078V44.6252H353.232C350.5 48.7856 346.905 52.3778 342.741 55.1078Z" stroke="url(#paint21_radial_852_4906)" stroke-miterlimit="10"/>
<path d="M379.718 39.5308V43.1622L385.771 49.2101C383.378 51.9141 381.326 54.925 379.718 58.1645L382.019 61.8742H399.51L402.079 59.3074V41.8298L398.366 39.5308C395.118 41.144 392.111 43.1883 389.405 45.5787L383.352 39.5308H379.718ZM396.941 46.258V56.7407H386.45C389.183 52.5802 392.778 48.988 396.941 46.258Z" stroke="url(#paint22_radial_852_4906)" stroke-miterlimit="10"/>
<path d="M444.115 61.835V58.2036L438.063 52.1557C440.455 49.4518 442.507 46.4409 444.115 43.2014L441.815 39.4916H424.323L421.754 42.0584V59.536L425.467 61.835C428.715 60.2218 431.722 58.1775 434.428 55.7871L440.481 61.835H444.115ZM426.892 55.1078V44.6252H437.383C434.65 48.7856 431.055 52.3778 426.892 55.1078Z" stroke="url(#paint23_radial_852_4906)" stroke-miterlimit="10"/>
<path d="M463.869 39.5308V43.1622L469.921 49.2101C467.529 51.9141 465.477 54.925 463.869 58.1645L466.169 61.8742H483.661L486.23 59.3074V41.8298L482.517 39.5308C479.269 41.144 476.262 43.1883 473.556 45.5787L467.503 39.5308H463.869ZM481.092 46.258V56.7407H470.601C473.333 52.5802 476.929 48.988 481.092 46.258Z" stroke="url(#paint24_radial_852_4906)" stroke-miterlimit="10"/>
<path d="M528.26 61.835V58.2036L522.207 52.1557C524.599 49.4518 526.652 46.4409 528.26 43.2014L525.959 39.4916H508.467L505.898 42.0584V59.536L509.611 61.835C512.86 60.2218 515.866 58.1775 518.573 55.7871L524.625 61.835H528.26ZM511.036 55.1078V44.6252H521.527C518.795 48.7856 515.2 52.3778 511.036 55.1078Z" stroke="url(#paint25_radial_852_4906)" stroke-miterlimit="10"/>
<path d="M44.4023 104.994V101.362L38.3495 95.3142C40.7419 92.6103 42.7943 89.5994 44.4023 86.3599L42.1015 82.6501H24.6098L22.041 85.2169V102.695L25.7537 104.994C29.0023 103.38 32.0091 101.336 34.7152 98.9456L40.768 104.994H44.4023ZM27.1786 98.2664V87.7837H37.6697C34.9375 91.9441 31.3424 95.5363 27.1786 98.2664Z" stroke="url(#paint26_radial_852_4906)" stroke-miterlimit="10"/>
<path d="M64.1621 82.6893V86.3207L70.2149 92.3686C67.8226 95.0726 65.7701 98.0835 64.1621 101.323L66.463 105.033H83.9546L86.5235 102.466V84.9883L82.8107 82.6893C79.5621 84.3025 76.5553 86.3468 73.8492 88.7373L67.7964 82.6893H64.1621ZM81.3858 89.4165V99.8992H70.8947C73.627 95.7388 77.222 92.1466 81.3858 89.4165Z" stroke="url(#paint27_radial_852_4906)" stroke-miterlimit="10"/>
<path d="M128.553 104.994V101.362L122.5 95.3142C124.893 92.6103 126.945 89.5994 128.553 86.3599L126.252 82.6501H108.761L106.192 85.2169V102.695L109.905 104.994C113.153 103.38 116.16 101.336 118.866 98.9456L124.919 104.994H128.553ZM111.329 98.2664V87.7837H121.821C119.088 91.9441 115.493 95.5363 111.329 98.2664Z" stroke="url(#paint28_radial_852_4906)" stroke-miterlimit="10"/>
<path d="M148.306 82.6893V86.3207L154.359 92.3686C151.967 95.0726 149.914 98.0835 148.306 101.323L150.607 105.033H168.099L170.668 102.466V84.9883L166.955 82.6893C163.706 84.3025 160.7 86.3468 157.993 88.7373L151.941 82.6893H148.306ZM165.53 89.4165V99.8992H155.039C157.771 95.7388 161.366 92.1466 165.53 89.4165Z" stroke="url(#paint29_radial_852_4906)" stroke-miterlimit="10"/>
<path d="M212.704 104.994V101.362L206.651 95.3142C209.043 92.6103 211.096 89.5994 212.704 86.3599L210.403 82.6501H192.911L190.343 85.2169V102.695L194.055 104.994C197.304 103.38 200.311 101.336 203.017 98.9456L209.07 104.994H212.704ZM195.48 98.2664V87.7837H205.971C203.239 91.9441 199.644 95.5363 195.48 98.2664Z" stroke="url(#paint30_radial_852_4906)" stroke-miterlimit="10"/>
<path d="M232.457 82.6893V86.3207L238.51 92.3686C236.118 95.0726 234.065 98.0835 232.457 101.323L234.758 105.033H252.25L254.819 102.466V84.9883L251.106 82.6893C247.857 84.3025 244.85 86.3468 242.144 88.7373L236.091 82.6893H232.457ZM249.681 89.4165V99.8992H239.19C241.922 95.7388 245.517 92.1466 249.681 89.4165Z" stroke="url(#paint31_radial_852_4906)" stroke-miterlimit="10"/>
<path d="M296.848 104.994V101.362L290.795 95.3142C293.188 92.6103 295.24 89.5994 296.848 86.3599L294.547 82.6501H277.056L274.487 85.2169V102.695L278.2 104.994C281.448 103.38 284.455 101.336 287.161 98.9456L293.214 104.994H296.848ZM279.625 98.2664V87.7837H290.116C287.383 91.9441 283.788 95.5363 279.625 98.2664Z" stroke="url(#paint32_radial_852_4906)" stroke-miterlimit="10"/>
<path d="M316.608 82.6893V86.3207L322.661 92.3686C320.268 95.0726 318.216 98.0835 316.608 101.323L318.909 105.033H336.4L338.969 102.466V84.9883L335.257 82.6893C332.008 84.3025 329.001 86.3468 326.295 88.7373L320.242 82.6893H316.608ZM333.832 89.4165V99.8992H323.341C326.073 95.7388 329.668 92.1466 333.832 89.4165Z" stroke="url(#paint33_radial_852_4906)" stroke-miterlimit="10"/>
<path d="M380.999 104.994V101.362L374.946 95.3142C377.339 92.6103 379.391 89.5994 380.999 86.3599L378.698 82.6501H361.206L358.638 85.2169V102.695L362.35 104.994C365.599 103.38 368.606 101.336 371.312 98.9456L377.365 104.994H380.999ZM363.775 98.2664V87.7837H374.266C371.534 91.9441 367.939 95.5363 363.775 98.2664Z" stroke="url(#paint34_radial_852_4906)" stroke-miterlimit="10"/>
<path d="M400.759 82.6893V86.3207L406.812 92.3686C404.419 95.0726 402.367 98.0835 400.759 101.323L403.06 105.033H420.551L423.12 102.466V84.9883L419.407 82.6893C416.159 84.3025 413.152 86.3468 410.446 88.7373L404.393 82.6893H400.759ZM417.982 89.4165V99.8992H407.491C410.224 95.7388 413.819 92.1466 417.982 89.4165Z" stroke="url(#paint35_radial_852_4906)" stroke-miterlimit="10"/>
<path d="M465.15 104.994V101.362L459.097 95.3142C461.489 92.6103 463.542 89.5994 465.15 86.3599L462.849 82.6501H445.357L442.788 85.2169V102.695L446.501 104.994C449.75 103.38 452.757 101.336 455.463 98.9456L461.516 104.994H465.15ZM447.926 98.2664V87.7837H458.417C455.685 91.9441 452.09 95.5363 447.926 98.2664Z" stroke="url(#paint36_radial_852_4906)" stroke-miterlimit="10"/>
<path d="M484.91 82.6893V86.3207L490.962 92.3686C488.57 95.0726 486.518 98.0835 484.91 101.323L487.21 105.033H504.702L507.271 102.466V84.9883L503.558 82.6893C500.31 84.3025 497.303 86.3468 494.597 88.7373L488.544 82.6893H484.91ZM502.133 89.4165V99.8992H491.642C494.374 95.7388 497.969 92.1466 502.133 89.4165Z" stroke="url(#paint37_radial_852_4906)" stroke-miterlimit="10"/>
<path d="M549.301 104.994V101.362L543.248 95.3142C545.64 92.6103 547.693 89.5994 549.301 86.3599L547 82.6501H529.508L526.939 85.2169V102.695L530.652 104.994C533.901 103.38 536.907 101.336 539.614 98.9456L545.666 104.994H549.301ZM532.077 98.2664V87.7837H542.568C539.836 91.9441 536.241 95.5363 532.077 98.2664Z" stroke="url(#paint38_radial_852_4906)" stroke-miterlimit="10"/>
<path d="M23.3613 148.152V144.521L17.3085 138.473C19.7009 135.769 21.7534 132.758 23.3613 129.518L21.0605 125.809H3.56884L1 128.375V145.853L4.71273 148.152C7.96136 146.539 10.9682 144.495 13.6743 142.104L19.727 148.152H23.3613ZM6.13768 141.425V130.942H16.6288C13.8965 135.103 10.3014 138.695 6.13768 141.425Z" stroke="url(#paint39_radial_852_4906)" stroke-miterlimit="10"/>
<path d="M43.1212 125.848V129.479L49.1739 135.527C46.7816 138.231 44.7291 141.242 43.1212 144.482L45.422 148.191H62.9137L65.4825 145.624V128.147L61.7698 125.848C58.5211 127.461 55.5143 129.505 52.8082 131.896L46.7554 125.848H43.1212ZM60.3448 132.575V143.058H49.8537C52.586 138.897 56.1811 135.305 60.3448 132.575Z" stroke="url(#paint40_radial_852_4906)" stroke-miterlimit="10"/>
<path d="M107.512 148.152V144.521L101.459 138.473C103.852 135.769 105.904 132.758 107.512 129.518L105.211 125.809H87.7196L85.1508 128.375V145.853L88.8635 148.152C92.1122 146.539 95.119 144.495 97.8251 142.104L103.878 148.152H107.512ZM90.2885 141.425V130.942H100.78C98.0473 135.103 94.4522 138.695 90.2885 141.425Z" stroke="url(#paint41_radial_852_4906)" stroke-miterlimit="10"/>
<path d="M127.272 125.848V129.479L133.325 135.527C130.932 138.231 128.88 141.242 127.272 144.482L129.573 148.191H147.064L149.633 145.624V128.147L145.921 125.848C142.672 127.461 139.665 129.505 136.959 131.896L130.906 125.848H127.272ZM144.496 132.575V143.058H134.005C136.737 138.897 140.332 135.305 144.496 132.575Z" stroke="url(#paint42_radial_852_4906)" stroke-miterlimit="10"/>
<path d="M191.663 148.152V144.521L185.61 138.473C188.002 135.769 190.055 132.758 191.663 129.518L189.362 125.809H171.87L169.302 128.375V145.853L173.014 148.152C176.263 146.539 179.27 144.495 181.976 142.104L188.029 148.152H191.663ZM174.439 141.425V130.942H184.93C182.198 135.103 178.603 138.695 174.439 141.425Z" stroke="url(#paint43_radial_852_4906)" stroke-miterlimit="10"/>
<path d="M211.423 125.848V129.479L217.476 135.527C215.083 138.231 213.031 141.242 211.423 144.482L213.724 148.191H231.215L233.784 145.624V128.147L230.071 125.848C226.823 127.461 223.816 129.505 221.11 131.896L215.057 125.848H211.423ZM228.646 132.575V143.058H218.155C220.888 138.897 224.483 135.305 228.646 132.575Z" stroke="url(#paint44_radial_852_4906)" stroke-miterlimit="10"/>
<path d="M275.814 148.152V144.521L269.761 138.473C272.153 135.769 274.206 132.758 275.814 129.518L273.513 125.809H256.021L253.452 128.375V145.853L257.165 148.152C260.414 146.539 263.421 144.495 266.127 142.104L272.179 148.152H275.814ZM258.59 141.425V130.942H269.081C266.349 135.103 262.754 138.695 258.59 141.425Z" stroke="url(#paint45_radial_852_4906)" stroke-miterlimit="10"/>
<path d="M295.574 125.848V129.479L301.626 135.527C299.234 138.231 297.182 141.242 295.574 144.482L297.874 148.191H315.366L317.935 145.624V128.147L314.222 125.848C310.974 127.461 307.967 129.505 305.261 131.896L299.208 125.848H295.574ZM312.797 132.575V143.058H302.306C305.038 138.897 308.633 135.305 312.797 132.575Z" stroke="url(#paint46_radial_852_4906)" stroke-miterlimit="10"/>
<path d="M359.965 148.152V144.521L353.912 138.473C356.304 135.769 358.357 132.758 359.965 129.518L357.664 125.809H340.172L337.603 128.375V145.853L341.316 148.152C344.565 146.539 347.571 144.495 350.277 142.104L356.33 148.152H359.965ZM342.741 141.425V130.942H353.232C350.5 135.103 346.905 138.695 342.741 141.425Z" stroke="url(#paint47_radial_852_4906)" stroke-miterlimit="10"/>
<path d="M379.718 125.848V129.479L385.771 135.527C383.378 138.231 381.326 141.242 379.718 144.482L382.019 148.191H399.51L402.079 145.624V128.147L398.366 125.848C395.118 127.461 392.111 129.505 389.405 131.896L383.352 125.848H379.718ZM396.941 132.575V143.058H386.45C389.183 138.897 392.778 135.305 396.941 132.575Z" stroke="url(#paint48_radial_852_4906)" stroke-miterlimit="10"/>
<path d="M444.115 148.152V144.521L438.063 138.473C440.455 135.769 442.507 132.758 444.115 129.518L441.815 125.809H424.323L421.754 128.375V145.853L425.467 148.152C428.715 146.539 431.722 144.495 434.428 142.104L440.481 148.152H444.115ZM426.892 141.425V130.942H437.383C434.65 135.103 431.055 138.695 426.892 141.425Z" stroke="url(#paint49_radial_852_4906)" stroke-miterlimit="10"/>
<path d="M463.869 125.848V129.479L469.921 135.527C467.529 138.231 465.477 141.242 463.869 144.482L466.169 148.191H483.661L486.23 145.624V128.147L482.517 125.848C479.269 127.461 476.262 129.505 473.556 131.896L467.503 125.848H463.869ZM481.092 132.575V143.058H470.601C473.333 138.897 476.929 135.305 481.092 132.575Z" stroke="url(#paint50_radial_852_4906)" stroke-miterlimit="10"/>
<path d="M528.26 148.152V144.521L522.207 138.473C524.599 135.769 526.652 132.758 528.26 129.518L525.959 125.809H508.467L505.898 128.375V145.853L509.611 148.152C512.86 146.539 515.866 144.495 518.573 142.104L524.625 148.152H528.26ZM511.036 141.425V130.942H521.527C518.795 135.103 515.2 138.695 511.036 141.425Z" stroke="url(#paint51_radial_852_4906)" stroke-miterlimit="10"/>
<path d="M44.4023 191.311V187.679L38.3495 181.631C40.7419 178.927 42.7943 175.916 44.4023 172.677L42.1015 168.967H24.6098L22.041 171.534V189.012L25.7537 191.311C29.0023 189.697 32.0091 187.653 34.7152 185.263L40.768 191.311H44.4023ZM27.1786 184.583V174.101H37.6697C34.9375 178.261 31.3424 181.853 27.1786 184.583Z" stroke="url(#paint52_radial_852_4906)" stroke-miterlimit="10"/>
<path d="M64.1621 169.006V172.638L70.2149 178.686C67.8226 181.39 65.7701 184.401 64.1621 187.64L66.463 191.35H83.9546L86.5235 188.783V171.305L82.8107 169.006C79.5621 170.62 76.5553 172.664 73.8492 175.054L67.7964 169.006H64.1621ZM81.3858 175.734V186.216H70.8947C73.627 182.056 77.222 178.464 81.3858 175.734Z" stroke="url(#paint53_radial_852_4906)" stroke-miterlimit="10"/>
<path d="M128.553 191.311V187.679L122.5 181.631C124.893 178.927 126.945 175.916 128.553 172.677L126.252 168.967H108.761L106.192 171.534V189.012L109.905 191.311C113.153 189.697 116.16 187.653 118.866 185.263L124.919 191.311H128.553ZM111.329 184.583V174.101H121.821C119.088 178.261 115.493 181.853 111.329 184.583Z" stroke="url(#paint54_radial_852_4906)" stroke-miterlimit="10"/>
<path d="M148.306 169.006V172.638L154.359 178.686C151.967 181.39 149.914 184.401 148.306 187.64L150.607 191.35H168.099L170.668 188.783V171.305L166.955 169.006C163.706 170.62 160.7 172.664 157.993 175.054L151.941 169.006H148.306ZM165.53 175.734V186.216H155.039C157.771 182.056 161.366 178.464 165.53 175.734Z" stroke="url(#paint55_radial_852_4906)" stroke-miterlimit="10"/>
<path d="M212.704 191.311V187.679L206.651 181.631C209.043 178.927 211.096 175.916 212.704 172.677L210.403 168.967H192.911L190.343 171.534V189.012L194.055 191.311C197.304 189.697 200.311 187.653 203.017 185.263L209.07 191.311H212.704ZM195.48 184.583V174.101H205.971C203.239 178.261 199.644 181.853 195.48 184.583Z" stroke="url(#paint56_radial_852_4906)" stroke-miterlimit="10"/>
<path d="M232.457 169.006V172.638L238.51 178.686C236.118 181.39 234.065 184.401 232.457 187.64L234.758 191.35H252.25L254.819 188.783V171.305L251.106 169.006C247.857 170.62 244.85 172.664 242.144 175.054L236.091 169.006H232.457ZM249.681 175.734V186.216H239.19C241.922 182.056 245.517 178.464 249.681 175.734Z" stroke="url(#paint57_radial_852_4906)" stroke-miterlimit="10"/>
<path d="M296.848 191.311V187.679L290.795 181.631C293.188 178.927 295.24 175.916 296.848 172.677L294.547 168.967H277.056L274.487 171.534V189.012L278.2 191.311C281.448 189.697 284.455 187.653 287.161 185.263L293.214 191.311H296.848ZM279.625 184.583V174.101H290.116C287.383 178.261 283.788 181.853 279.625 184.583Z" stroke="url(#paint58_radial_852_4906)" stroke-miterlimit="10"/>
<path d="M316.608 169.006V172.638L322.661 178.686C320.268 181.39 318.216 184.401 316.608 187.64L318.909 191.35H336.4L338.969 188.783V171.305L335.257 169.006C332.008 170.62 329.001 172.664 326.295 175.054L320.242 169.006H316.608ZM333.832 175.734V186.216H323.341C326.073 182.056 329.668 178.464 333.832 175.734Z" stroke="url(#paint59_radial_852_4906)" stroke-miterlimit="10"/>
<path d="M380.999 191.311V187.679L374.946 181.631C377.339 178.927 379.391 175.916 380.999 172.677L378.698 168.967H361.206L358.638 171.534V189.012L362.35 191.311C365.599 189.697 368.606 187.653 371.312 185.263L377.365 191.311H380.999ZM363.775 184.583V174.101H374.266C371.534 178.261 367.939 181.853 363.775 184.583Z" stroke="url(#paint60_radial_852_4906)" stroke-miterlimit="10"/>
<path d="M400.759 169.006V172.638L406.812 178.686C404.419 181.39 402.367 184.401 400.759 187.64L403.06 191.35H420.551L423.12 188.783V171.305L419.407 169.006C416.159 170.62 413.152 172.664 410.446 175.054L404.393 169.006H400.759ZM417.982 175.734V186.216H407.491C410.224 182.056 413.819 178.464 417.982 175.734Z" stroke="url(#paint61_radial_852_4906)" stroke-miterlimit="10"/>
<path d="M465.15 191.311V187.679L459.097 181.631C461.489 178.927 463.542 175.916 465.15 172.677L462.849 168.967H445.357L442.788 171.534V189.012L446.501 191.311C449.75 189.697 452.757 187.653 455.463 185.263L461.516 191.311H465.15ZM447.926 184.583V174.101H458.417C455.685 178.261 452.09 181.853 447.926 184.583Z" stroke="url(#paint62_radial_852_4906)" stroke-miterlimit="10"/>
<path d="M484.91 169.006V172.638L490.962 178.686C488.57 181.39 486.518 184.401 484.91 187.64L487.21 191.35H504.702L507.271 188.783V171.305L503.558 169.006C500.31 170.62 497.303 172.664 494.597 175.054L488.544 169.006H484.91ZM502.133 175.734V186.216H491.642C494.374 182.056 497.969 178.464 502.133 175.734Z" stroke="url(#paint63_radial_852_4906)" stroke-miterlimit="10"/>
<path d="M549.301 191.311V187.679L543.248 181.631C545.64 178.927 547.693 175.916 549.301 172.677L547 168.967H529.508L526.939 171.534V189.012L530.652 191.311C533.901 189.697 536.907 187.653 539.614 185.263L545.666 191.311H549.301ZM532.077 184.583V174.101H542.568C539.836 178.261 536.241 181.853 532.077 184.583Z" stroke="url(#paint64_radial_852_4906)" stroke-miterlimit="10"/>
<path d="M23.3613 234.469V230.838L17.3085 224.79C19.7009 222.086 21.7534 219.075 23.3613 215.835L21.0605 212.126H3.56884L1 214.693V232.17L4.71273 234.469C7.96136 232.856 10.9682 230.812 13.6743 228.421L19.727 234.469H23.3613ZM6.13768 227.742V217.259H16.6288C13.8965 221.42 10.3014 225.012 6.13768 227.742Z" stroke="url(#paint65_radial_852_4906)" stroke-miterlimit="10"/>
<path d="M43.1212 212.165V215.796L49.1739 221.844C46.7816 224.548 44.7291 227.559 43.1212 230.799L45.422 234.508H62.9137L65.4825 231.942V214.464L61.7698 212.165C58.5211 213.778 55.5143 215.822 52.8082 218.213L46.7554 212.165H43.1212ZM60.3448 218.892V229.375H49.8537C52.586 225.214 56.1811 221.622 60.3448 218.892Z" stroke="url(#paint66_radial_852_4906)" stroke-miterlimit="10"/>
<path d="M107.512 234.469V230.838L101.459 224.79C103.852 222.086 105.904 219.075 107.512 215.835L105.211 212.126H87.7196L85.1508 214.693V232.17L88.8635 234.469C92.1122 232.856 95.119 230.812 97.8251 228.421L103.878 234.469H107.512ZM90.2885 227.742V217.259H100.78C98.0473 221.42 94.4522 225.012 90.2885 227.742Z" stroke="url(#paint67_radial_852_4906)" stroke-miterlimit="10"/>
<path d="M127.272 212.165V215.796L133.325 221.844C130.932 224.548 128.88 227.559 127.272 230.799L129.573 234.508H147.064L149.633 231.942V214.464L145.921 212.165C142.672 213.778 139.665 215.822 136.959 218.213L130.906 212.165H127.272ZM144.496 218.892V229.375H134.005C136.737 225.214 140.332 221.622 144.496 218.892Z" stroke="url(#paint68_radial_852_4906)" stroke-miterlimit="10"/>
<path d="M191.663 234.469V230.838L185.61 224.79C188.002 222.086 190.055 219.075 191.663 215.835L189.362 212.126H171.87L169.302 214.693V232.17L173.014 234.469C176.263 232.856 179.27 230.812 181.976 228.421L188.029 234.469H191.663ZM174.439 227.742V217.259H184.93C182.198 221.42 178.603 225.012 174.439 227.742Z" stroke="url(#paint69_radial_852_4906)" stroke-miterlimit="10"/>
<path d="M211.423 212.165V215.796L217.476 221.844C215.083 224.548 213.031 227.559 211.423 230.799L213.724 234.508H231.215L233.784 231.942V214.464L230.071 212.165C226.823 213.778 223.816 215.822 221.11 218.213L215.057 212.165H211.423ZM228.646 218.892V229.375H218.155C220.888 225.214 224.483 221.622 228.646 218.892Z" stroke="url(#paint70_radial_852_4906)" stroke-miterlimit="10"/>
<path d="M275.814 234.469V230.838L269.761 224.79C272.153 222.086 274.206 219.075 275.814 215.835L273.513 212.126H256.021L253.452 214.693V232.17L257.165 234.469C260.414 232.856 263.421 230.812 266.127 228.421L272.179 234.469H275.814ZM258.59 227.742V217.259H269.081C266.349 221.42 262.754 225.012 258.59 227.742Z" stroke="url(#paint71_radial_852_4906)" stroke-miterlimit="10"/>
<path d="M295.574 212.165V215.796L301.626 221.844C299.234 224.548 297.182 227.559 295.574 230.799L297.874 234.508H315.366L317.935 231.942V214.464L314.222 212.165C310.974 213.778 307.967 215.822 305.261 218.213L299.208 212.165H295.574ZM312.797 218.892V229.375H302.306C305.038 225.214 308.633 221.622 312.797 218.892Z" stroke="url(#paint72_radial_852_4906)" stroke-miterlimit="10"/>
<path d="M359.965 234.469V230.838L353.912 224.79C356.304 222.086 358.357 219.075 359.965 215.835L357.664 212.126H340.172L337.603 214.693V232.17L341.316 234.469C344.565 232.856 347.571 230.812 350.277 228.421L356.33 234.469H359.965ZM342.741 227.742V217.259H353.232C350.5 221.42 346.905 225.012 342.741 227.742Z" stroke="url(#paint73_radial_852_4906)" stroke-miterlimit="10"/>
<path d="M379.718 212.165V215.796L385.771 221.844C383.378 224.548 381.326 227.559 379.718 230.799L382.019 234.508H399.51L402.079 231.942V214.464L398.366 212.165C395.118 213.778 392.111 215.822 389.405 218.213L383.352 212.165H379.718ZM396.941 218.892V229.375H386.45C389.183 225.214 392.778 221.622 396.941 218.892Z" stroke="url(#paint74_radial_852_4906)" stroke-miterlimit="10"/>
<path d="M444.115 234.469V230.838L438.063 224.79C440.455 222.086 442.507 219.075 444.115 215.835L441.815 212.126H424.323L421.754 214.693V232.17L425.467 234.469C428.715 232.856 431.722 230.812 434.428 228.421L440.481 234.469H444.115ZM426.892 227.742V217.259H437.383C434.65 221.42 431.055 225.012 426.892 227.742Z" stroke="url(#paint75_radial_852_4906)" stroke-miterlimit="10"/>
<path d="M463.869 212.165V215.796L469.921 221.844C467.529 224.548 465.477 227.559 463.869 230.799L466.169 234.508H483.661L486.23 231.942V214.464L482.517 212.165C479.269 213.778 476.262 215.822 473.556 218.213L467.503 212.165H463.869ZM481.092 218.892V229.375H470.601C473.333 225.214 476.929 221.622 481.092 218.892Z" stroke="url(#paint76_radial_852_4906)" stroke-miterlimit="10"/>
<path d="M528.26 234.469V230.838L522.207 224.79C524.599 222.086 526.652 219.075 528.26 215.835L525.959 212.126H508.467L505.898 214.693V232.17L509.611 234.469C512.86 232.856 515.866 230.812 518.573 228.421L524.625 234.469H528.26ZM511.036 227.742V217.259H521.527C518.795 221.42 515.2 225.012 511.036 227.742Z" stroke="url(#paint77_radial_852_4906)" stroke-miterlimit="10"/>
<path d="M44.4023 277.628V273.996L38.3495 267.948C40.7419 265.244 42.7943 262.234 44.4023 258.994L42.1015 255.284H24.6098L22.041 257.851V275.329L25.7537 277.628C29.0023 276.014 32.0091 273.97 34.7152 271.58L40.768 277.628H44.4023ZM27.1786 270.901V260.418H37.6697C34.9375 264.578 31.3424 268.17 27.1786 270.901Z" stroke="url(#paint78_radial_852_4906)" stroke-miterlimit="10"/>
<path d="M64.1621 255.33V258.961L70.2149 265.009C67.8226 267.713 65.7701 270.724 64.1621 273.964L66.463 277.673H83.9546L86.5235 275.107V257.629L82.8107 255.33C79.5621 256.943 76.5553 258.987 73.8492 261.378L67.7964 255.33H64.1621ZM81.3858 262.057V272.54H70.8947C73.627 268.379 77.222 264.787 81.3858 262.057Z" stroke="url(#paint79_radial_852_4906)" stroke-miterlimit="10"/>
<path d="M128.553 277.628V273.996L122.5 267.948C124.893 265.244 126.945 262.234 128.553 258.994L126.252 255.284H108.761L106.192 257.851V275.329L109.905 277.628C113.153 276.014 116.16 273.97 118.866 271.58L124.919 277.628H128.553ZM111.329 270.901V260.418H121.821C119.088 264.578 115.493 268.17 111.329 270.901Z" stroke="url(#paint80_radial_852_4906)" stroke-miterlimit="10"/>
<path d="M148.306 255.33V258.961L154.359 265.009C151.967 267.713 149.914 270.724 148.306 273.964L150.607 277.673H168.099L170.668 275.107V257.629L166.955 255.33C163.706 256.943 160.7 258.987 157.993 261.378L151.941 255.33H148.306ZM165.53 262.057V272.54H155.039C157.771 268.379 161.366 264.787 165.53 262.057Z" stroke="url(#paint81_radial_852_4906)" stroke-miterlimit="10"/>
<path d="M212.704 277.628V273.996L206.651 267.948C209.043 265.244 211.096 262.234 212.704 258.994L210.403 255.284H192.911L190.343 257.851V275.329L194.055 277.628C197.304 276.014 200.311 273.97 203.017 271.58L209.07 277.628H212.704ZM195.48 270.901V260.418H205.971C203.239 264.578 199.644 268.17 195.48 270.901Z" stroke="url(#paint82_radial_852_4906)" stroke-miterlimit="10"/>
<path d="M232.457 255.33V258.961L238.51 265.009C236.118 267.713 234.065 270.724 232.457 273.964L234.758 277.673H252.25L254.819 275.107V257.629L251.106 255.33C247.857 256.943 244.85 258.987 242.144 261.378L236.091 255.33H232.457ZM249.681 262.057V272.54H239.19C241.922 268.379 245.517 264.787 249.681 262.057Z" stroke="url(#paint83_radial_852_4906)" stroke-miterlimit="10"/>
<path d="M296.848 277.628V273.996L290.795 267.948C293.188 265.244 295.24 262.234 296.848 258.994L294.547 255.284H277.056L274.487 257.851V275.329L278.2 277.628C281.448 276.014 284.455 273.97 287.161 271.58L293.214 277.628H296.848ZM279.625 270.901V260.418H290.116C287.383 264.578 283.788 268.17 279.625 270.901Z" stroke="url(#paint84_radial_852_4906)" stroke-miterlimit="10"/>
<path d="M316.608 255.33V258.961L322.661 265.009C320.268 267.713 318.216 270.724 316.608 273.964L318.909 277.673H336.4L338.969 275.107V257.629L335.257 255.33C332.008 256.943 329.001 258.987 326.295 261.378L320.242 255.33H316.608ZM333.832 262.057V272.54H323.341C326.073 268.379 329.668 264.787 333.832 262.057Z" stroke="url(#paint85_radial_852_4906)" stroke-miterlimit="10"/>
<path d="M380.999 277.628V273.996L374.946 267.948C377.339 265.244 379.391 262.234 380.999 258.994L378.698 255.284H361.206L358.638 257.851V275.329L362.35 277.628C365.599 276.014 368.606 273.97 371.312 271.58L377.365 277.628H380.999ZM363.775 270.901V260.418H374.266C371.534 264.578 367.939 268.17 363.775 270.901Z" stroke="url(#paint86_radial_852_4906)" stroke-miterlimit="10"/>
<path d="M400.759 255.33V258.961L406.812 265.009C404.419 267.713 402.367 270.724 400.759 273.964L403.06 277.673H420.551L423.12 275.107V257.629L419.407 255.33C416.159 256.943 413.152 258.987 410.446 261.378L404.393 255.33H400.759ZM417.982 262.057V272.54H407.491C410.224 268.379 413.819 264.787 417.982 262.057Z" stroke="url(#paint87_radial_852_4906)" stroke-miterlimit="10"/>
<path d="M465.15 277.628V273.996L459.097 267.948C461.489 265.244 463.542 262.234 465.15 258.994L462.849 255.284H445.357L442.788 257.851V275.329L446.501 277.628C449.75 276.014 452.757 273.97 455.463 271.58L461.516 277.628H465.15ZM447.926 270.901V260.418H458.417C455.685 264.578 452.09 268.17 447.926 270.901Z" stroke="url(#paint88_radial_852_4906)" stroke-miterlimit="10"/>
<path d="M484.91 255.33V258.961L490.962 265.009C488.57 267.713 486.518 270.724 484.91 273.964L487.21 277.673H504.702L507.271 275.107V257.629L503.558 255.33C500.31 256.943 497.303 258.987 494.597 261.378L488.544 255.33H484.91ZM502.133 262.057V272.54H491.642C494.374 268.379 497.969 264.787 502.133 262.057Z" stroke="url(#paint89_radial_852_4906)" stroke-miterlimit="10"/>
<path d="M549.301 277.628V273.996L543.248 267.948C545.64 265.244 547.693 262.234 549.301 258.994L547 255.284H529.508L526.939 257.851V275.329L530.652 277.628C533.901 276.014 536.907 273.97 539.614 271.58L545.666 277.628H549.301ZM532.077 270.901V260.418H542.568C539.836 264.578 536.241 268.17 532.077 270.901Z" stroke="url(#paint90_radial_852_4906)" stroke-miterlimit="10"/>
<defs>
<radialGradient id="paint0_radial_852_4906" cx="0" cy="0" r="1" gradientUnits="userSpaceOnUse" gradientTransform="translate(275 329.5) rotate(-90) scale(333.5 603.397)">
<stop stop-color="#1F351A" stop-opacity="0.43"/>
<stop offset="1" stop-color="#5B9B4C" stop-opacity="0"/>
</radialGradient>
<radialGradient id="paint1_radial_852_4906" cx="0" cy="0" r="1" gradientUnits="userSpaceOnUse" gradientTransform="translate(275 329.5) rotate(-90) scale(333.5 603.397)">
<stop stop-color="#1F351A" stop-opacity="0.43"/>
<stop offset="1" stop-color="#5B9B4C" stop-opacity="0"/>
</radialGradient>
<radialGradient id="paint2_radial_852_4906" cx="0" cy="0" r="1" gradientUnits="userSpaceOnUse" gradientTransform="translate(275 329.5) rotate(-90) scale(333.5 603.397)">
<stop stop-color="#1F351A" stop-opacity="0.43"/>
<stop offset="1" stop-color="#5B9B4C" stop-opacity="0"/>
</radialGradient>
<radialGradient id="paint3_radial_852_4906" cx="0" cy="0" r="1" gradientUnits="userSpaceOnUse" gradientTransform="translate(275 329.5) rotate(-90) scale(333.5 603.397)">
<stop stop-color="#1F351A" stop-opacity="0.43"/>
<stop offset="1" stop-color="#5B9B4C" stop-opacity="0"/>
</radialGradient>
<radialGradient id="paint4_radial_852_4906" cx="0" cy="0" r="1" gradientUnits="userSpaceOnUse" gradientTransform="translate(275 329.5) rotate(-90) scale(333.5 603.397)">
<stop stop-color="#1F351A" stop-opacity="0.43"/>
<stop offset="1" stop-color="#5B9B4C" stop-opacity="0"/>
</radialGradient>
<radialGradient id="paint5_radial_852_4906" cx="0" cy="0" r="1" gradientUnits="userSpaceOnUse" gradientTransform="translate(275 329.5) rotate(-90) scale(333.5 603.397)">
<stop stop-color="#1F351A" stop-opacity="0.43"/>
<stop offset="1" stop-color="#5B9B4C" stop-opacity="0"/>
</radialGradient>
<radialGradient id="paint6_radial_852_4906" cx="0" cy="0" r="1" gradientUnits="userSpaceOnUse" gradientTransform="translate(275 329.5) rotate(-90) scale(333.5 603.397)">
<stop stop-color="#1F351A" stop-opacity="0.43"/>
<stop offset="1" stop-color="#5B9B4C" stop-opacity="0"/>
</radialGradient>
<radialGradient id="paint7_radial_852_4906" cx="0" cy="0" r="1" gradientUnits="userSpaceOnUse" gradientTransform="translate(275 329.5) rotate(-90) scale(333.5 603.397)">
<stop stop-color="#1F351A" stop-opacity="0.43"/>
<stop offset="1" stop-color="#5B9B4C" stop-opacity="0"/>
</radialGradient>
<radialGradient id="paint8_radial_852_4906" cx="0" cy="0" r="1" gradientUnits="userSpaceOnUse" gradientTransform="translate(275 329.5) rotate(-90) scale(333.5 603.397)">
<stop stop-color="#1F351A" stop-opacity="0.43"/>
<stop offset="1" stop-color="#5B9B4C" stop-opacity="0"/>
</radialGradient>
<radialGradient id="paint9_radial_852_4906" cx="0" cy="0" r="1" gradientUnits="userSpaceOnUse" gradientTransform="translate(275 329.5) rotate(-90) scale(333.5 603.397)">
<stop stop-color="#1F351A" stop-opacity="0.43"/>
<stop offset="1" stop-color="#5B9B4C" stop-opacity="0"/>
</radialGradient>
<radialGradient id="paint10_radial_852_4906" cx="0" cy="0" r="1" gradientUnits="userSpaceOnUse" gradientTransform="translate(275 329.5) rotate(-90) scale(333.5 603.397)">
<stop stop-color="#1F351A" stop-opacity="0.43"/>
<stop offset="1" stop-color="#5B9B4C" stop-opacity="0"/>
</radialGradient>
<radialGradient id="paint11_radial_852_4906" cx="0" cy="0" r="1" gradientUnits="userSpaceOnUse" gradientTransform="translate(275 329.5) rotate(-90) scale(333.5 603.397)">
<stop stop-color="#1F351A" stop-opacity="0.43"/>
<stop offset="1" stop-color="#5B9B4C" stop-opacity="0"/>
</radialGradient>
<radialGradient id="paint12_radial_852_4906" cx="0" cy="0" r="1" gradientUnits="userSpaceOnUse" gradientTransform="translate(275 329.5) rotate(-90) scale(333.5 603.397)">
<stop stop-color="#1F351A" stop-opacity="0.43"/>
<stop offset="1" stop-color="#5B9B4C" stop-opacity="0"/>
</radialGradient>
<radialGradient id="paint13_radial_852_4906" cx="0" cy="0" r="1" gradientUnits="userSpaceOnUse" gradientTransform="translate(275 329.5) rotate(-90) scale(333.5 603.397)">
<stop stop-color="#1F351A" stop-opacity="0.43"/>
<stop offset="1" stop-color="#5B9B4C" stop-opacity="0"/>
</radialGradient>
<radialGradient id="paint14_radial_852_4906" cx="0" cy="0" r="1" gradientUnits="userSpaceOnUse" gradientTransform="translate(275 329.5) rotate(-90) scale(333.5 603.397)">
<stop stop-color="#1F351A" stop-opacity="0.43"/>
<stop offset="1" stop-color="#5B9B4C" stop-opacity="0"/>
</radialGradient>
<radialGradient id="paint15_radial_852_4906" cx="0" cy="0" r="1" gradientUnits="userSpaceOnUse" gradientTransform="translate(275 329.5) rotate(-90) scale(333.5 603.397)">
<stop stop-color="#1F351A" stop-opacity="0.43"/>
<stop offset="1" stop-color="#5B9B4C" stop-opacity="0"/>
</radialGradient>
<radialGradient id="paint16_radial_852_4906" cx="0" cy="0" r="1" gradientUnits="userSpaceOnUse" gradientTransform="translate(275 329.5) rotate(-90) scale(333.5 603.397)">
<stop stop-color="#1F351A" stop-opacity="0.43"/>
<stop offset="1" stop-color="#5B9B4C" stop-opacity="0"/>
</radialGradient>
<radialGradient id="paint17_radial_852_4906" cx="0" cy="0" r="1" gradientUnits="userSpaceOnUse" gradientTransform="translate(275 329.5) rotate(-90) scale(333.5 603.397)">
<stop stop-color="#1F351A" stop-opacity="0.43"/>
<stop offset="1" stop-color="#5B9B4C" stop-opacity="0"/>
</radialGradient>
<radialGradient id="paint18_radial_852_4906" cx="0" cy="0" r="1" gradientUnits="userSpaceOnUse" gradientTransform="translate(275 329.5) rotate(-90) scale(333.5 603.397)">
<stop stop-color="#1F351A" stop-opacity="0.43"/>
<stop offset="1" stop-color="#5B9B4C" stop-opacity="0"/>
</radialGradient>
<radialGradient id="paint19_radial_852_4906" cx="0" cy="0" r="1" gradientUnits="userSpaceOnUse" gradientTransform="translate(275 329.5) rotate(-90) scale(333.5 603.397)">
<stop stop-color="#1F351A" stop-opacity="0.43"/>
<stop offset="1" stop-color="#5B9B4C" stop-opacity="0"/>
</radialGradient>
<radialGradient id="paint20_radial_852_4906" cx="0" cy="0" r="1" gradientUnits="userSpaceOnUse" gradientTransform="translate(275 329.5) rotate(-90) scale(333.5 603.397)">
<stop stop-color="#1F351A" stop-opacity="0.43"/>
<stop offset="1" stop-color="#5B9B4C" stop-opacity="0"/>
</radialGradient>
<radialGradient id="paint21_radial_852_4906" cx="0" cy="0" r="1" gradientUnits="userSpaceOnUse" gradientTransform="translate(275 329.5) rotate(-90) scale(333.5 603.397)">
<stop stop-color="#1F351A" stop-opacity="0.43"/>
<stop offset="1" stop-color="#5B9B4C" stop-opacity="0"/>
</radialGradient>
<radialGradient id="paint22_radial_852_4906" cx="0" cy="0" r="1" gradientUnits="userSpaceOnUse" gradientTransform="translate(275 329.5) rotate(-90) scale(333.5 603.397)">
<stop stop-color="#1F351A" stop-opacity="0.43"/>
<stop offset="1" stop-color="#5B9B4C" stop-opacity="0"/>
</radialGradient>
<radialGradient id="paint23_radial_852_4906" cx="0" cy="0" r="1" gradientUnits="userSpaceOnUse" gradientTransform="translate(275 329.5) rotate(-90) scale(333.5 603.397)">
<stop stop-color="#1F351A" stop-opacity="0.43"/>
<stop offset="1" stop-color="#5B9B4C" stop-opacity="0"/>
</radialGradient>
<radialGradient id="paint24_radial_852_4906" cx="0" cy="0" r="1" gradientUnits="userSpaceOnUse" gradientTransform="translate(275 329.5) rotate(-90) scale(333.5 603.397)">
<stop stop-color="#1F351A" stop-opacity="0.43"/>
<stop offset="1" stop-color="#5B9B4C" stop-opacity="0"/>
</radialGradient>
<radialGradient id="paint25_radial_852_4906" cx="0" cy="0" r="1" gradientUnits="userSpaceOnUse" gradientTransform="translate(275 329.5) rotate(-90) scale(333.5 603.397)">
<stop stop-color="#1F351A" stop-opacity="0.43"/>
<stop offset="1" stop-color="#5B9B4C" stop-opacity="0"/>
</radialGradient>
<radialGradient id="paint26_radial_852_4906" cx="0" cy="0" r="1" gradientUnits="userSpaceOnUse" gradientTransform="translate(275 329.5) rotate(-90) scale(333.5 603.397)">
<stop stop-color="#1F351A" stop-opacity="0.43"/>
<stop offset="1" stop-color="#5B9B4C" stop-opacity="0"/>
</radialGradient>
<radialGradient id="paint27_radial_852_4906" cx="0" cy="0" r="1" gradientUnits="userSpaceOnUse" gradientTransform="translate(275 329.5) rotate(-90) scale(333.5 603.397)">
<stop stop-color="#1F351A" stop-opacity="0.43"/>
<stop offset="1" stop-color="#5B9B4C" stop-opacity="0"/>
</radialGradient>
<radialGradient id="paint28_radial_852_4906" cx="0" cy="0" r="1" gradientUnits="userSpaceOnUse" gradientTransform="translate(275 329.5) rotate(-90) scale(333.5 603.397)">
<stop stop-color="#1F351A" stop-opacity="0.43"/>
<stop offset="1" stop-color="#5B9B4C" stop-opacity="0"/>
</radialGradient>
<radialGradient id="paint29_radial_852_4906" cx="0" cy="0" r="1" gradientUnits="userSpaceOnUse" gradientTransform="translate(275 329.5) rotate(-90) scale(333.5 603.397)">
<stop stop-color="#1F351A" stop-opacity="0.43"/>
<stop offset="1" stop-color="#5B9B4C" stop-opacity="0"/>
</radialGradient>
<radialGradient id="paint30_radial_852_4906" cx="0" cy="0" r="1" gradientUnits="userSpaceOnUse" gradientTransform="translate(275 329.5) rotate(-90) scale(333.5 603.397)">
<stop stop-color="#1F351A" stop-opacity="0.43"/>
<stop offset="1" stop-color="#5B9B4C" stop-opacity="0"/>
</radialGradient>
<radialGradient id="paint31_radial_852_4906" cx="0" cy="0" r="1" gradientUnits="userSpaceOnUse" gradientTransform="translate(275 329.5) rotate(-90) scale(333.5 603.397)">
<stop stop-color="#1F351A" stop-opacity="0.43"/>
<stop offset="1" stop-color="#5B9B4C" stop-opacity="0"/>
</radialGradient>
<radialGradient id="paint32_radial_852_4906" cx="0" cy="0" r="1" gradientUnits="userSpaceOnUse" gradientTransform="translate(275 329.5) rotate(-90) scale(333.5 603.397)">
<stop stop-color="#1F351A" stop-opacity="0.43"/>
<stop offset="1" stop-color="#5B9B4C" stop-opacity="0"/>
</radialGradient>
<radialGradient id="paint33_radial_852_4906" cx="0" cy="0" r="1" gradientUnits="userSpaceOnUse" gradientTransform="translate(275 329.5) rotate(-90) scale(333.5 603.397)">
<stop stop-color="#1F351A" stop-opacity="0.43"/>
<stop offset="1" stop-color="#5B9B4C" stop-opacity="0"/>
</radialGradient>
<radialGradient id="paint34_radial_852_4906" cx="0" cy="0" r="1" gradientUnits="userSpaceOnUse" gradientTransform="translate(275 329.5) rotate(-90) scale(333.5 603.397)">
<stop stop-color="#1F351A" stop-opacity="0.43"/>
<stop offset="1" stop-color="#5B9B4C" stop-opacity="0"/>
</radialGradient>
<radialGradient id="paint35_radial_852_4906" cx="0" cy="0" r="1" gradientUnits="userSpaceOnUse" gradientTransform="translate(275 329.5) rotate(-90) scale(333.5 603.397)">
<stop stop-color="#1F351A" stop-opacity="0.43"/>
<stop offset="1" stop-color="#5B9B4C" stop-opacity="0"/>
</radialGradient>
<radialGradient id="paint36_radial_852_4906" cx="0" cy="0" r="1" gradientUnits="userSpaceOnUse" gradientTransform="translate(275 329.5) rotate(-90) scale(333.5 603.397)">
<stop stop-color="#1F351A" stop-opacity="0.43"/>
<stop offset="1" stop-color="#5B9B4C" stop-opacity="0"/>
</radialGradient>
<radialGradient id="paint37_radial_852_4906" cx="0" cy="0" r="1" gradientUnits="userSpaceOnUse" gradientTransform="translate(275 329.5) rotate(-90) scale(333.5 603.397)">
<stop stop-color="#1F351A" stop-opacity="0.43"/>
<stop offset="1" stop-color="#5B9B4C" stop-opacity="0"/>
</radialGradient>
<radialGradient id="paint38_radial_852_4906" cx="0" cy="0" r="1" gradientUnits="userSpaceOnUse" gradientTransform="translate(275 329.5) rotate(-90) scale(333.5 603.397)">
<stop stop-color="#1F351A" stop-opacity="0.43"/>
<stop offset="1" stop-color="#5B9B4C" stop-opacity="0"/>
</radialGradient>
<radialGradient id="paint39_radial_852_4906" cx="0" cy="0" r="1" gradientUnits="userSpaceOnUse" gradientTransform="translate(275 329.5) rotate(-90) scale(333.5 603.397)">
<stop stop-color="#1F351A" stop-opacity="0.43"/>
<stop offset="1" stop-color="#5B9B4C" stop-opacity="0"/>
</radialGradient>
<radialGradient id="paint40_radial_852_4906" cx="0" cy="0" r="1" gradientUnits="userSpaceOnUse" gradientTransform="translate(275 329.5) rotate(-90) scale(333.5 603.397)">
<stop stop-color="#1F351A" stop-opacity="0.43"/>
<stop offset="1" stop-color="#5B9B4C" stop-opacity="0"/>
</radialGradient>
<radialGradient id="paint41_radial_852_4906" cx="0" cy="0" r="1" gradientUnits="userSpaceOnUse" gradientTransform="translate(275 329.5) rotate(-90) scale(333.5 603.397)">
<stop stop-color="#1F351A" stop-opacity="0.43"/>
<stop offset="1" stop-color="#5B9B4C" stop-opacity="0"/>
</radialGradient>
<radialGradient id="paint42_radial_852_4906" cx="0" cy="0" r="1" gradientUnits="userSpaceOnUse" gradientTransform="translate(275 329.5) rotate(-90) scale(333.5 603.397)">
<stop stop-color="#1F351A" stop-opacity="0.43"/>
<stop offset="1" stop-color="#5B9B4C" stop-opacity="0"/>
</radialGradient>
<radialGradient id="paint43_radial_852_4906" cx="0" cy="0" r="1" gradientUnits="userSpaceOnUse" gradientTransform="translate(275 329.5) rotate(-90) scale(333.5 603.397)">
<stop stop-color="#1F351A" stop-opacity="0.43"/>
<stop offset="1" stop-color="#5B9B4C" stop-opacity="0"/>
</radialGradient>
<radialGradient id="paint44_radial_852_4906" cx="0" cy="0" r="1" gradientUnits="userSpaceOnUse" gradientTransform="translate(275 329.5) rotate(-90) scale(333.5 603.397)">
<stop stop-color="#1F351A" stop-opacity="0.43"/>
<stop offset="1" stop-color="#5B9B4C" stop-opacity="0"/>
</radialGradient>
<radialGradient id="paint45_radial_852_4906" cx="0" cy="0" r="1" gradientUnits="userSpaceOnUse" gradientTransform="translate(275 329.5) rotate(-90) scale(333.5 603.397)">
<stop stop-color="#1F351A" stop-opacity="0.43"/>
<stop offset="1" stop-color="#5B9B4C" stop-opacity="0"/>
</radialGradient>
<radialGradient id="paint46_radial_852_4906" cx="0" cy="0" r="1" gradientUnits="userSpaceOnUse" gradientTransform="translate(275 329.5) rotate(-90) scale(333.5 603.397)">
<stop stop-color="#1F351A" stop-opacity="0.43"/>
<stop offset="1" stop-color="#5B9B4C" stop-opacity="0"/>
</radialGradient>
<radialGradient id="paint47_radial_852_4906" cx="0" cy="0" r="1" gradientUnits="userSpaceOnUse" gradientTransform="translate(275 329.5) rotate(-90) scale(333.5 603.397)">
<stop stop-color="#1F351A" stop-opacity="0.43"/>
<stop offset="1" stop-color="#5B9B4C" stop-opacity="0"/>
</radialGradient>
<radialGradient id="paint48_radial_852_4906" cx="0" cy="0" r="1" gradientUnits="userSpaceOnUse" gradientTransform="translate(275 329.5) rotate(-90) scale(333.5 603.397)">
<stop stop-color="#1F351A" stop-opacity="0.43"/>
<stop offset="1" stop-color="#5B9B4C" stop-opacity="0"/>
</radialGradient>
<radialGradient id="paint49_radial_852_4906" cx="0" cy="0" r="1" gradientUnits="userSpaceOnUse" gradientTransform="translate(275 329.5) rotate(-90) scale(333.5 603.397)">
<stop stop-color="#1F351A" stop-opacity="0.43"/>
<stop offset="1" stop-color="#5B9B4C" stop-opacity="0"/>
</radialGradient>
<radialGradient id="paint50_radial_852_4906" cx="0" cy="0" r="1" gradientUnits="userSpaceOnUse" gradientTransform="translate(275 329.5) rotate(-90) scale(333.5 603.397)">
<stop stop-color="#1F351A" stop-opacity="0.43"/>
<stop offset="1" stop-color="#5B9B4C" stop-opacity="0"/>
</radialGradient>
<radialGradient id="paint51_radial_852_4906" cx="0" cy="0" r="1" gradientUnits="userSpaceOnUse" gradientTransform="translate(275 329.5) rotate(-90) scale(333.5 603.397)">
<stop stop-color="#1F351A" stop-opacity="0.43"/>
<stop offset="1" stop-color="#5B9B4C" stop-opacity="0"/>
</radialGradient>
<radialGradient id="paint52_radial_852_4906" cx="0" cy="0" r="1" gradientUnits="userSpaceOnUse" gradientTransform="translate(275 329.5) rotate(-90) scale(333.5 603.397)">
<stop stop-color="#1F351A" stop-opacity="0.43"/>
<stop offset="1" stop-color="#5B9B4C" stop-opacity="0"/>
</radialGradient>
<radialGradient id="paint53_radial_852_4906" cx="0" cy="0" r="1" gradientUnits="userSpaceOnUse" gradientTransform="translate(275 329.5) rotate(-90) scale(333.5 603.397)">
<stop stop-color="#1F351A" stop-opacity="0.43"/>
<stop offset="1" stop-color="#5B9B4C" stop-opacity="0"/>
</radialGradient>
<radialGradient id="paint54_radial_852_4906" cx="0" cy="0" r="1" gradientUnits="userSpaceOnUse" gradientTransform="translate(275 329.5) rotate(-90) scale(333.5 603.397)">
<stop stop-color="#1F351A" stop-opacity="0.43"/>
<stop offset="1" stop-color="#5B9B4C" stop-opacity="0"/>
</radialGradient>
<radialGradient id="paint55_radial_852_4906" cx="0" cy="0" r="1" gradientUnits="userSpaceOnUse" gradientTransform="translate(275 329.5) rotate(-90) scale(333.5 603.397)">
<stop stop-color="#1F351A" stop-opacity="0.43"/>
<stop offset="1" stop-color="#5B9B4C" stop-opacity="0"/>
</radialGradient>
<radialGradient id="paint56_radial_852_4906" cx="0" cy="0" r="1" gradientUnits="userSpaceOnUse" gradientTransform="translate(275 329.5) rotate(-90) scale(333.5 603.397)">
<stop stop-color="#1F351A" stop-opacity="0.43"/>
<stop offset="1" stop-color="#5B9B4C" stop-opacity="0"/>
</radialGradient>
<radialGradient id="paint57_radial_852_4906" cx="0" cy="0" r="1" gradientUnits="userSpaceOnUse" gradientTransform="translate(275 329.5) rotate(-90) scale(333.5 603.397)">
<stop stop-color="#1F351A" stop-opacity="0.43"/>
<stop offset="1" stop-color="#5B9B4C" stop-opacity="0"/>
</radialGradient>
<radialGradient id="paint58_radial_852_4906" cx="0" cy="0" r="1" gradientUnits="userSpaceOnUse" gradientTransform="translate(275 329.5) rotate(-90) scale(333.5 603.397)">
<stop stop-color="#1F351A" stop-opacity="0.43"/>
<stop offset="1" stop-color="#5B9B4C" stop-opacity="0"/>
</radialGradient>
<radialGradient id="paint59_radial_852_4906" cx="0" cy="0" r="1" gradientUnits="userSpaceOnUse" gradientTransform="translate(275 329.5) rotate(-90) scale(333.5 603.397)">
<stop stop-color="#1F351A" stop-opacity="0.43"/>
<stop offset="1" stop-color="#5B9B4C" stop-opacity="0"/>
</radialGradient>
<radialGradient id="paint60_radial_852_4906" cx="0" cy="0" r="1" gradientUnits="userSpaceOnUse" gradientTransform="translate(275 329.5) rotate(-90) scale(333.5 603.397)">
<stop stop-color="#1F351A" stop-opacity="0.43"/>
<stop offset="1" stop-color="#5B9B4C" stop-opacity="0"/>
</radialGradient>
<radialGradient id="paint61_radial_852_4906" cx="0" cy="0" r="1" gradientUnits="userSpaceOnUse" gradientTransform="translate(275 329.5) rotate(-90) scale(333.5 603.397)">
<stop stop-color="#1F351A" stop-opacity="0.43"/>
<stop offset="1" stop-color="#5B9B4C" stop-opacity="0"/>
</radialGradient>
<radialGradient id="paint62_radial_852_4906" cx="0" cy="0" r="1" gradientUnits="userSpaceOnUse" gradientTransform="translate(275 329.5) rotate(-90) scale(333.5 603.397)">
<stop stop-color="#1F351A" stop-opacity="0.43"/>
<stop offset="1" stop-color="#5B9B4C" stop-opacity="0"/>
</radialGradient>
<radialGradient id="paint63_radial_852_4906" cx="0" cy="0" r="1" gradientUnits="userSpaceOnUse" gradientTransform="translate(275 329.5) rotate(-90) scale(333.5 603.397)">
<stop stop-color="#1F351A" stop-opacity="0.43"/>
<stop offset="1" stop-color="#5B9B4C" stop-opacity="0"/>
</radialGradient>
<radialGradient id="paint64_radial_852_4906" cx="0" cy="0" r="1" gradientUnits="userSpaceOnUse" gradientTransform="translate(275 329.5) rotate(-90) scale(333.5 603.397)">
<stop stop-color="#1F351A" stop-opacity="0.43"/>
<stop offset="1" stop-color="#5B9B4C" stop-opacity="0"/>
</radialGradient>
<radialGradient id="paint65_radial_852_4906" cx="0" cy="0" r="1" gradientUnits="userSpaceOnUse" gradientTransform="translate(275 329.5) rotate(-90) scale(333.5 603.397)">
<stop stop-color="#1F351A" stop-opacity="0.43"/>
<stop offset="1" stop-color="#5B9B4C" stop-opacity="0"/>
</radialGradient>
<radialGradient id="paint66_radial_852_4906" cx="0" cy="0" r="1" gradientUnits="userSpaceOnUse" gradientTransform="translate(275 329.5) rotate(-90) scale(333.5 603.397)">
<stop stop-color="#1F351A" stop-opacity="0.43"/>
<stop offset="1" stop-color="#5B9B4C" stop-opacity="0"/>
</radialGradient>
<radialGradient id="paint67_radial_852_4906" cx="0" cy="0" r="1" gradientUnits="userSpaceOnUse" gradientTransform="translate(275 329.5) rotate(-90) scale(333.5 603.397)">
<stop stop-color="#1F351A" stop-opacity="0.43"/>
<stop offset="1" stop-color="#5B9B4C" stop-opacity="0"/>
</radialGradient>
<radialGradient id="paint68_radial_852_4906" cx="0" cy="0" r="1" gradientUnits="userSpaceOnUse" gradientTransform="translate(275 329.5) rotate(-90) scale(333.5 603.397)">
<stop stop-color="#1F351A" stop-opacity="0.43"/>
<stop offset="1" stop-color="#5B9B4C" stop-opacity="0"/>
</radialGradient>
<radialGradient id="paint69_radial_852_4906" cx="0" cy="0" r="1" gradientUnits="userSpaceOnUse" gradientTransform="translate(275 329.5) rotate(-90) scale(333.5 603.397)">
<stop stop-color="#1F351A" stop-opacity="0.43"/>
<stop offset="1" stop-color="#5B9B4C" stop-opacity="0"/>
</radialGradient>
<radialGradient id="paint70_radial_852_4906" cx="0" cy="0" r="1" gradientUnits="userSpaceOnUse" gradientTransform="translate(275 329.5) rotate(-90) scale(333.5 603.397)">
<stop stop-color="#1F351A" stop-opacity="0.43"/>
<stop offset="1" stop-color="#5B9B4C" stop-opacity="0"/>
</radialGradient>
<radialGradient id="paint71_radial_852_4906" cx="0" cy="0" r="1" gradientUnits="userSpaceOnUse" gradientTransform="translate(275 329.5) rotate(-90) scale(333.5 603.397)">
<stop stop-color="#1F351A" stop-opacity="0.43"/>
<stop offset="1" stop-color="#5B9B4C" stop-opacity="0"/>
</radialGradient>
<radialGradient id="paint72_radial_852_4906" cx="0" cy="0" r="1" gradientUnits="userSpaceOnUse" gradientTransform="translate(275 329.5) rotate(-90) scale(333.5 603.397)">
<stop stop-color="#1F351A" stop-opacity="0.43"/>
<stop offset="1" stop-color="#5B9B4C" stop-opacity="0"/>
</radialGradient>
<radialGradient id="paint73_radial_852_4906" cx="0" cy="0" r="1" gradientUnits="userSpaceOnUse" gradientTransform="translate(275 329.5) rotate(-90) scale(333.5 603.397)">
<stop stop-color="#1F351A" stop-opacity="0.43"/>
<stop offset="1" stop-color="#5B9B4C" stop-opacity="0"/>
</radialGradient>
<radialGradient id="paint74_radial_852_4906" cx="0" cy="0" r="1" gradientUnits="userSpaceOnUse" gradientTransform="translate(275 329.5) rotate(-90) scale(333.5 603.397)">
<stop stop-color="#1F351A" stop-opacity="0.43"/>
<stop offset="1" stop-color="#5B9B4C" stop-opacity="0"/>
</radialGradient>
<radialGradient id="paint75_radial_852_4906" cx="0" cy="0" r="1" gradientUnits="userSpaceOnUse" gradientTransform="translate(275 329.5) rotate(-90) scale(333.5 603.397)">
<stop stop-color="#1F351A" stop-opacity="0.43"/>
<stop offset="1" stop-color="#5B9B4C" stop-opacity="0"/>
</radialGradient>
<radialGradient id="paint76_radial_852_4906" cx="0" cy="0" r="1" gradientUnits="userSpaceOnUse" gradientTransform="translate(275 329.5) rotate(-90) scale(333.5 603.397)">
<stop stop-color="#1F351A" stop-opacity="0.43"/>
<stop offset="1" stop-color="#5B9B4C" stop-opacity="0"/>
</radialGradient>
<radialGradient id="paint77_radial_852_4906" cx="0" cy="0" r="1" gradientUnits="userSpaceOnUse" gradientTransform="translate(275 329.5) rotate(-90) scale(333.5 603.397)">
<stop stop-color="#1F351A" stop-opacity="0.43"/>
<stop offset="1" stop-color="#5B9B4C" stop-opacity="0"/>
</radialGradient>
<radialGradient id="paint78_radial_852_4906" cx="0" cy="0" r="1" gradientUnits="userSpaceOnUse" gradientTransform="translate(275 329.5) rotate(-90) scale(333.5 603.397)">
<stop stop-color="#1F351A" stop-opacity="0.43"/>
<stop offset="1" stop-color="#5B9B4C" stop-opacity="0"/>
</radialGradient>
<radialGradient id="paint79_radial_852_4906" cx="0" cy="0" r="1" gradientUnits="userSpaceOnUse" gradientTransform="translate(275 329.5) rotate(-90) scale(333.5 603.397)">
<stop stop-color="#1F351A" stop-opacity="0.43"/>
<stop offset="1" stop-color="#5B9B4C" stop-opacity="0"/>
</radialGradient>
<radialGradient id="paint80_radial_852_4906" cx="0" cy="0" r="1" gradientUnits="userSpaceOnUse" gradientTransform="translate(275 329.5) rotate(-90) scale(333.5 603.397)">
<stop stop-color="#1F351A" stop-opacity="0.43"/>
<stop offset="1" stop-color="#5B9B4C" stop-opacity="0"/>
</radialGradient>
<radialGradient id="paint81_radial_852_4906" cx="0" cy="0" r="1" gradientUnits="userSpaceOnUse" gradientTransform="translate(275 329.5) rotate(-90) scale(333.5 603.397)">
<stop stop-color="#1F351A" stop-opacity="0.43"/>
<stop offset="1" stop-color="#5B9B4C" stop-opacity="0"/>
</radialGradient>
<radialGradient id="paint82_radial_852_4906" cx="0" cy="0" r="1" gradientUnits="userSpaceOnUse" gradientTransform="translate(275 329.5) rotate(-90) scale(333.5 603.397)">
<stop stop-color="#1F351A" stop-opacity="0.43"/>
<stop offset="1" stop-color="#5B9B4C" stop-opacity="0"/>
</radialGradient>
<radialGradient id="paint83_radial_852_4906" cx="0" cy="0" r="1" gradientUnits="userSpaceOnUse" gradientTransform="translate(275 329.5) rotate(-90) scale(333.5 603.397)">
<stop stop-color="#1F351A" stop-opacity="0.43"/>
<stop offset="1" stop-color="#5B9B4C" stop-opacity="0"/>
</radialGradient>
<radialGradient id="paint84_radial_852_4906" cx="0" cy="0" r="1" gradientUnits="userSpaceOnUse" gradientTransform="translate(275 329.5) rotate(-90) scale(333.5 603.397)">
<stop stop-color="#1F351A" stop-opacity="0.43"/>
<stop offset="1" stop-color="#5B9B4C" stop-opacity="0"/>
</radialGradient>
<radialGradient id="paint85_radial_852_4906" cx="0" cy="0" r="1" gradientUnits="userSpaceOnUse" gradientTransform="translate(275 329.5) rotate(-90) scale(333.5 603.397)">
<stop stop-color="#1F351A" stop-opacity="0.43"/>
<stop offset="1" stop-color="#5B9B4C" stop-opacity="0"/>
</radialGradient>
<radialGradient id="paint86_radial_852_4906" cx="0" cy="0" r="1" gradientUnits="userSpaceOnUse" gradientTransform="translate(275 329.5) rotate(-90) scale(333.5 603.397)">
<stop stop-color="#1F351A" stop-opacity="0.43"/>
<stop offset="1" stop-color="#5B9B4C" stop-opacity="0"/>
</radialGradient>
<radialGradient id="paint87_radial_852_4906" cx="0" cy="0" r="1" gradientUnits="userSpaceOnUse" gradientTransform="translate(275 329.5) rotate(-90) scale(333.5 603.397)">
<stop stop-color="#1F351A" stop-opacity="0.43"/>
<stop offset="1" stop-color="#5B9B4C" stop-opacity="0"/>
</radialGradient>
<radialGradient id="paint88_radial_852_4906" cx="0" cy="0" r="1" gradientUnits="userSpaceOnUse" gradientTransform="translate(275 329.5) rotate(-90) scale(333.5 603.397)">
<stop stop-color="#1F351A" stop-opacity="0.43"/>
<stop offset="1" stop-color="#5B9B4C" stop-opacity="0"/>
</radialGradient>
<radialGradient id="paint89_radial_852_4906" cx="0" cy="0" r="1" gradientUnits="userSpaceOnUse" gradientTransform="translate(275 329.5) rotate(-90) scale(333.5 603.397)">
<stop stop-color="#1F351A" stop-opacity="0.43"/>
<stop offset="1" stop-color="#5B9B4C" stop-opacity="0"/>
</radialGradient>
<radialGradient id="paint90_radial_852_4906" cx="0" cy="0" r="1" gradientUnits="userSpaceOnUse" gradientTransform="translate(275 329.5) rotate(-90) scale(333.5 603.397)">
<stop stop-color="#1F351A" stop-opacity="0.43"/>
<stop offset="1" stop-color="#5B9B4C" stop-opacity="0"/>
</radialGradient>
</defs>
</svg>
