<svg width="63" height="20" viewBox="0 0 63 20" fill="none" xmlns="http://www.w3.org/2000/svg">
<path d="M32.5649 6.39377C32.5295 9.17985 35.0505 10.7345 36.9495 11.6589C38.9005 12.6073 39.5559 13.2155 39.5481 14.0637C39.5336 15.3617 37.9918 15.9346 36.5491 15.9568C34.0321 15.9958 32.5685 15.278 31.4051 14.7351L30.4983 18.9735C31.6657 19.5108 33.8272 19.9794 36.0686 20C41.3301 20 44.7724 17.4055 44.791 13.3829C44.8116 8.27769 37.722 7.99511 37.7705 5.71321C37.7872 5.02129 38.4481 4.28292 39.8964 4.09518C40.6133 4.00034 42.5922 3.92776 44.8358 4.95984L45.7164 0.859098C44.5098 0.420235 42.9591 0 41.0284 0C36.0761 0 32.593 2.6298 32.5649 6.39377ZM54.178 0.35322C53.2172 0.35322 52.4076 0.91305 52.0462 1.77215L44.5304 19.6988H49.7881L50.8343 16.8104H57.2591L57.866 19.6988H62.5L58.4562 0.35322H54.178ZM54.9135 5.57918L56.4308 12.8437H52.2753L54.9135 5.57918ZM26.1903 0.353462L22.046 19.6986H27.0561L31.1985 0.352978L26.1903 0.353462ZM18.7786 0.353462L13.5638 13.5206L11.4544 2.32472C11.2069 1.0749 10.2294 0.35322 9.14391 0.35322H0.619398L0.5 0.914984C2.25005 1.29433 4.23841 1.90618 5.44305 2.56084C6.18027 2.96076 6.39048 3.31035 6.63267 4.26066L10.628 19.6988H15.9225L24.0397 0.35322L18.7786 0.353462Z" fill="url(#paint0_linear_782_2901)"/>
<defs>
<linearGradient id="paint0_linear_782_2901" x1="2850.89" y1="60.12" x2="2908.72" y2="-1993.91" gradientUnits="userSpaceOnUse">
<stop stop-color="#222357"/>
<stop offset="1" stop-color="#254AA5"/>
</linearGradient>
</defs>
</svg>
