<svg xmlns="http://www.w3.org/2000/svg" width="20" height="24" viewBox="0 0 20 24" fill="none">
  <path d="M16.825 12.48C17.6008 12.48 18.3447 12.7834 18.8933 13.3235C19.4418 13.8636 19.75 14.5962 19.75 15.36V16.32C19.75 20.1043 16.123 24 10 24C3.877 24 0.25 20.1043 0.25 16.32V15.36C0.25 14.5962 0.558169 13.8636 1.10671 13.3235C1.65526 12.7834 2.39924 12.48 3.175 12.48H16.825ZM10 0C11.4222 0 12.7862 0.556284 13.7919 1.54648C14.7975 2.53667 15.3625 3.87966 15.3625 5.28C15.3625 6.68034 14.7975 8.02333 13.7919 9.01352C12.7862 10.0037 11.4222 10.56 10 10.56C8.57778 10.56 7.2138 10.0037 6.20814 9.01352C5.20248 8.02333 4.6375 6.68034 4.6375 5.28C4.6375 3.87966 5.20248 2.53667 6.20814 1.54648C7.2138 0.556284 8.57778 0 10 0Z" fill="white"/>
</svg>