<svg width="5" height="6" viewBox="0 0 5 6" fill="none" xmlns="http://www.w3.org/2000/svg">
<path d="M5 0.89541L5 5.10459C5.00027 5.27076 4.94775 5.43361 4.84852 5.57428C4.74929 5.71494 4.6074 5.82768 4.43929 5.89944C4.23982 5.98344 4.0179 6.01579 3.79881 5.99281C3.57973 5.96983 3.37228 5.89244 3.20013 5.76946L0.340522 3.66487C0.233634 3.58228 0.14791 3.48017 0.0891579 3.36545C0.0304061 3.25074 -1.25622e-07 3.12611 -1.31134e-07 3C-1.36646e-07 2.87389 0.0304061 2.74926 0.0891579 2.63455C0.14791 2.51983 0.233634 2.41772 0.340522 2.33513L3.20013 0.230538C3.37228 0.107559 3.57972 0.0301703 3.79881 0.00719006C4.0179 -0.0157897 4.23982 0.0165647 4.43929 0.100564C4.6074 0.172321 4.74929 0.285057 4.84852 0.425724C4.94775 0.56639 5.00027 0.729235 5 0.89541Z" fill="black"/>
</svg>
