<svg width="5" height="9" viewBox="0 0 5 9" fill="none" xmlns="http://www.w3.org/2000/svg">
  <path fill-rule="evenodd" clip-rule="evenodd" d="M4.67622 3.74696C4.83342 3.90435 4.92171 4.1177 4.92171 4.34014C4.92171 4.56259 4.83342 4.77594 4.67622 4.93333L1.51107 8.0996C1.3536 8.25699 1.14006 8.34539 0.917412 8.34534C0.694766 8.34528 0.481261 8.25679 0.323865 8.09932C0.166468 7.94185 0.0780725 7.7283 0.078125 7.50565C0.0781775 7.28301 0.166673 7.0695 0.324144 6.91211L2.89611 4.34014L0.324144 1.76818C0.171162 1.60994 0.0864524 1.39794 0.0882604 1.17785C0.0900685 0.957755 0.178249 0.747177 0.333811 0.591468C0.489372 0.43576 0.699866 0.347381 0.919958 0.345365C1.14005 0.343349 1.35213 0.427859 1.51051 0.580692L4.67678 3.7464L4.67622 3.74696Z" fill="#CACACA"/>
</svg>