<svg width="12" height="9" viewBox="0 0 12 9" fill="none" xmlns="http://www.w3.org/2000/svg">
  <path d="M3.575 6.3874L9.475 0.487402C9.65833 0.304069 9.89167 0.212402 10.175 0.212402C10.4583 0.212402 10.6917 0.304069 10.875 0.487402C11.0583 0.670735 11.15 0.904068 11.15 1.1874C11.15 1.47074 11.0583 1.70407 10.875 1.8874L4.275 8.4874C4.075 8.6874 3.84167 8.7874 3.575 8.7874C3.30833 8.7874 3.075 8.6874 2.875 8.4874L0.275 5.8874C0.0916663 5.70407 0 5.47074 0 5.1874C0 4.90407 0.0916663 4.67074 0.275 4.4874C0.458333 4.30407 0.691667 4.2124 0.975 4.2124C1.25833 4.2124 1.49167 4.30407 1.675 4.4874L3.575 6.3874Z" fill="black"/>
</svg>