<svg width="20" height="19" viewBox="0 0 20 19" fill="none" xmlns="http://www.w3.org/2000/svg">
  <mask id="mask0_862_3016" style="mask-type:luminance" maskUnits="userSpaceOnUse" x="1" y="0" width="18" height="19">
    <path d="M10.0002 17.4167C11.04 17.4181 12.0698 17.2139 13.0305 16.816C13.9912 16.418 14.8637 15.8342 15.598 15.0979C16.3343 14.3636 16.9181 13.4911 17.3161 12.5304C17.714 11.5697 17.9182 10.5399 17.9168 9.50005C17.9182 8.46022 17.714 7.43039 17.3161 6.46972C16.9181 5.50905 16.3343 4.63649 15.598 3.90217C14.8637 3.16593 13.9912 2.58207 13.0305 2.18413C12.0698 1.78619 11.04 1.58203 10.0002 1.58338C8.96034 1.58206 7.93051 1.78623 6.96984 2.18416C6.00917 2.5821 5.13661 3.16595 4.40229 3.90217C3.66607 4.63649 3.08222 5.50905 2.68428 6.46972C2.28635 7.43039 2.08218 8.46022 2.0835 9.50005C2.08216 10.5399 2.28632 11.5697 2.68425 12.5304C3.08219 13.4911 3.66606 14.3636 4.40229 15.0979C5.13661 15.8341 6.00917 16.418 6.96984 16.8159C7.93051 17.2139 8.96034 17.418 10.0002 17.4167Z" fill="white" stroke="white" stroke-width="1.58333" stroke-linejoin="round"/>
    <path d="M6.8335 9.5L9.2085 11.875L13.9585 7.125" stroke="black" stroke-width="1.58333" stroke-linecap="round" stroke-linejoin="round"/>
  </mask>
  <g mask="url(#mask0_862_3016)">
    <path d="M0.5 0H19.5V19H0.5V0Z" fill="#04A94D"/>
  </g>
</svg>