<svg xmlns="http://www.w3.org/2000/svg" width="18" height="18" viewBox="0 0 18 18" fill="none">
  <path d="M15 6H12V2.67C11.9974 1.96268 11.7152 1.28509 11.2151 0.784935C10.7149 0.284783 10.0373 0.00263436 9.33 0H2.67C1.96268 0.00263436 1.28509 0.284783 0.784935 0.784935C0.284783 1.28509 0.00263436 1.96268 0 2.67V9.33C0.00263436 10.0373 0.284783 10.7149 0.784935 11.2151C1.28509 11.7152 1.96268 11.9974 2.67 12H6V15C6 15.7956 6.31607 16.5587 6.87868 17.1213C7.44129 17.6839 8.20435 18 9 18H15C15.7956 18 16.5587 17.6839 17.1213 17.1213C17.6839 16.5587 18 15.7956 18 15V9C18 8.20435 17.6839 7.44129 17.1213 6.87868C16.5587 6.31607 15.7956 6 15 6ZM6 9V10H2.67C2.49231 10 2.32189 9.92941 2.19624 9.80376C2.07059 9.67811 2 9.5077 2 9.33V2.67C2 2.49231 2.07059 2.32189 2.19624 2.19624C2.32189 2.07059 2.49231 2 2.67 2H9.33C9.5077 2 9.67811 2.07059 9.80376 2.19624C9.92941 2.32189 10 2.49231 10 2.67V6H9C8.20435 6 7.44129 6.31607 6.87868 6.87868C6.31607 7.44129 6 8.20435 6 9Z" fill="#04A94D"/>
</svg>