<svg width="13" height="8" viewBox="0 0 13 8" fill="none" xmlns="http://www.w3.org/2000/svg">
<path fill-rule="evenodd" clip-rule="evenodd" d="M7.43452 7.24087C7.20014 7.47495 6.88244 7.60643 6.55119 7.60643C6.21994 7.60643 5.90223 7.47495 5.66785 7.24087L0.952853 2.52753C0.718468 2.29304 0.586836 1.97504 0.586914 1.64349C0.586992 1.31194 0.718774 0.994001 0.95327 0.759616C1.18777 0.525231 1.50577 0.393599 1.83731 0.393677C2.16886 0.393755 2.4868 0.525537 2.72119 0.760033L6.55119 4.59003L10.3812 0.760033C10.6168 0.532222 10.9325 0.406078 11.2603 0.40877C11.588 0.411463 11.9016 0.542776 12.1335 0.774428C12.3653 1.00608 12.497 1.31953 12.5 1.64728C12.503 1.97503 12.3771 2.29084 12.1495 2.5267L7.43535 7.2417L7.43452 7.24087Z" fill="#787878"/>
</svg>
