<svg width="6" height="6" viewBox="0 0 6 6" fill="none" xmlns="http://www.w3.org/2000/svg">
  <path d="M0.89541 0.500001L5.10459 0.500002C5.27076 0.499732 5.43361 0.552251 5.57428 0.651482C5.71494 0.750712 5.82768 0.892595 5.89944 1.06071C5.98344 1.26018 6.01579 1.4821 5.99281 1.70119C5.96983 1.92027 5.89244 2.12772 5.76946 2.29987L3.66487 5.15948C3.58228 5.26637 3.48017 5.35209 3.36545 5.41084C3.25074 5.46959 3.12611 5.5 3 5.5C2.87389 5.5 2.74926 5.46959 2.63455 5.41084C2.51983 5.35209 2.41772 5.26637 2.33513 5.15948L0.230539 2.29987C0.107559 2.12772 0.0301708 1.92027 0.00719056 1.70119C-0.0157892 1.4821 0.0165652 1.26018 0.100565 1.06071C0.172322 0.892595 0.285058 0.750711 0.425724 0.651481C0.566391 0.552251 0.729236 0.499732 0.89541 0.500001Z" fill="#C7C7C7"/>
</svg>