<svg width="19" height="20" viewBox="0 0 19 20" fill="none" xmlns="http://www.w3.org/2000/svg">
<path d="M9.49212 2.08331C5.12212 2.08331 1.58337 5.62998 1.58337 9.99998C1.58337 14.37 5.12212 17.9166 9.49212 17.9166C13.87 17.9166 17.4167 14.37 17.4167 9.99998C17.4167 5.62998 13.87 2.08331 9.49212 2.08331ZM14.9784 6.83331H12.643C12.3952 5.8528 12.0283 4.90631 11.5505 4.01498C12.9945 4.51215 14.2114 5.51259 14.9784 6.83331ZM9.50004 3.69831C10.1571 4.64831 10.6717 5.70123 11.0121 6.83331H7.98796C8.32837 5.70123 8.84296 4.64831 9.50004 3.69831ZM3.37254 11.5833C3.24587 11.0766 3.16671 10.5462 3.16671 9.99998C3.16671 9.45373 3.24587 8.92331 3.37254 8.41665H6.04837C5.98504 8.93915 5.93754 9.46165 5.93754 9.99998C5.93754 10.5383 5.98504 11.0608 6.04837 11.5833H3.37254ZM4.02171 13.1666H6.35712C6.61046 14.1562 6.97462 15.1062 7.44962 15.985C6.00401 15.4905 4.78632 14.4894 4.02171 13.1666ZM6.35712 6.83331H4.02171C4.78632 5.51058 6.00401 4.50943 7.44962 4.01498C6.97179 4.90631 6.6049 5.8528 6.35712 6.83331ZM9.50004 16.3016C8.84296 15.3516 8.32837 14.2987 7.98796 13.1666H11.0121C10.6717 14.2987 10.1571 15.3516 9.50004 16.3016ZM11.3525 11.5833H7.64754C7.57629 11.0608 7.52087 10.5383 7.52087 9.99998C7.52087 9.46165 7.57629 8.93123 7.64754 8.41665H11.3525C11.4238 8.93123 11.4792 9.46165 11.4792 9.99998C11.4792 10.5383 11.4238 11.0608 11.3525 11.5833ZM11.5505 15.985C12.0255 15.1062 12.3896 14.1562 12.643 13.1666H14.9784C14.2114 14.4874 12.9945 15.4878 11.5505 15.985ZM12.9517 11.5833C13.015 11.0608 13.0625 10.5383 13.0625 9.99998C13.0625 9.46165 13.015 8.93915 12.9517 8.41665H15.6275C15.7542 8.92331 15.8334 9.45373 15.8334 9.99998C15.8334 10.5462 15.7542 11.0766 15.6275 11.5833H12.9517Z" fill="black"/>
</svg>
