<svg width="14" height="16" viewBox="0 0 14 16" fill="none" xmlns="http://www.w3.org/2000/svg">
  <path d="M11.55 8.32C12.0672 8.32 12.5632 8.52228 12.9289 8.88235C13.2946 9.24242 13.5 9.73078 13.5 10.24V10.88C13.5 13.4029 11.082 16 7 16C2.918 16 0.5 13.4029 0.5 10.88V10.24C0.5 9.73078 0.705446 9.24242 1.07114 8.88235C1.43684 8.52228 1.93283 8.32 2.45 8.32H11.55ZM7 0C7.94815 0 8.85746 0.370856 9.52791 1.03098C10.1983 1.69111 10.575 2.58644 10.575 3.52C10.575 4.45356 10.1983 5.34889 9.52791 6.00902C8.85746 6.66914 7.94815 7.04 7 7.04C6.05185 7.04 5.14254 6.66914 4.47209 6.00902C3.80165 5.34889 3.425 4.45356 3.425 3.52C3.425 2.58644 3.80165 1.69111 4.47209 1.03098C5.14254 0.370856 6.05185 0 7 0Z" fill="black"/>
</svg>