<svg width="17" height="20" viewBox="0 0 17 20" fill="none" xmlns="http://www.w3.org/2000/svg">
  <path d="M14.1 11.4C14.4713 11.4 14.8274 11.5475 15.09 11.8101C15.3525 12.0726 15.5 12.4287 15.5 12.8V13.6C15.5 16.0839 13.0969 19 8.5 19C3.90306 19 1.5 16.0839 1.5 13.6V12.8C1.5 12.4287 1.6475 12.0726 1.91005 11.8101C2.1726 11.5475 2.5287 11.4 2.9 11.4H14.1ZM8.5 1C9.40174 1 10.2665 1.35821 10.9042 1.99584C11.5418 2.63346 11.9 3.49826 11.9 4.4C11.9 5.30174 11.5418 6.16654 10.9042 6.80416C10.2665 7.44179 9.40174 7.8 8.5 7.8C7.59826 7.8 6.73346 7.44179 6.09584 6.80416C5.45821 6.16654 5.1 5.30174 5.1 4.4C5.1 3.49826 5.45821 2.63346 6.09584 1.99584C6.73346 1.35821 7.59826 1 8.5 1Z" stroke="white" stroke-width="2"/>
</svg>