<svg width="17" height="17" viewBox="0 0 17 17" fill="none" xmlns="http://www.w3.org/2000/svg">
<path d="M6.62213 0.738512C6.88888 0.582281 7.19177 0.5 7.50015 0.5C7.80852 0.5 8.11141 0.582281 8.37816 0.738512L13.6283 3.81343C14.1683 4.12951 14.5003 4.71218 14.5003 5.34231V7.6639C14.5003 7.86477 14.4213 8.05741 14.2806 8.19944C14.14 8.34148 13.9492 8.42127 13.7503 8.42127C13.5514 8.42127 13.3606 8.34148 13.2199 8.19944C13.0793 8.05741 13.0003 7.86477 13.0003 7.6639V6.07544L8.25016 8.85751V15.3042C8.25019 15.4817 8.20389 15.6561 8.11594 15.8097C8.028 15.9634 7.9015 16.0909 7.74921 16.1795C7.59691 16.268 7.42419 16.3145 7.24844 16.3142C7.07269 16.3139 6.90013 16.2668 6.74813 16.1777L1.37202 13.0291C1.10676 12.8738 0.886589 12.6507 0.733547 12.3824C0.580504 12.1141 0.499966 11.8099 0.5 11.5002L0.5 5.34231C0.5 4.71218 0.832007 4.13052 1.37202 3.81343L6.62213 0.738512ZM7.62515 2.04927C7.58721 2.02691 7.54407 2.01513 7.50015 2.01513C7.45622 2.01513 7.41308 2.02691 7.37514 2.04927L2.74505 4.76065L7.50015 7.54575L12.2552 4.76065L7.62515 2.04927ZM2.00003 11.5002C2.00012 11.5445 2.01171 11.5879 2.03365 11.6262C2.05559 11.6644 2.0871 11.6962 2.12503 11.7184L6.75013 14.4277V8.85751L2.00003 6.07544V11.5002ZM12.8283 15.2204L14.0013 13.9753H10.7502C10.5513 13.9753 10.3605 13.8955 10.2199 13.7535C10.0792 13.6114 10.0002 13.4188 10.0002 13.2179C10.0002 13.0171 10.0792 12.8244 10.2199 12.6824C10.3605 12.5404 10.5513 12.4606 10.7502 12.4606H14.0013L12.8283 11.2155C12.6911 11.0699 12.6169 10.8753 12.6219 10.6745C12.6243 10.575 12.6462 10.477 12.6861 10.3861C12.7261 10.2952 12.7834 10.2131 12.8548 10.1445C12.9261 10.076 13.0102 10.0223 13.1021 9.98652C13.194 9.95076 13.292 9.93364 13.3905 9.93612C13.5894 9.94114 13.7782 10.0257 13.9153 10.1713L16.2933 12.6959C16.426 12.8367 16.5 13.0236 16.5 13.2179C16.5 13.4123 16.426 13.5992 16.2933 13.74L13.9153 16.2646C13.7782 16.4101 13.5894 16.4947 13.3905 16.4998C13.1916 16.5048 12.9989 16.4298 12.8548 16.2913C12.7106 16.1529 12.6268 15.9623 12.6219 15.7614C12.6169 15.5606 12.6911 15.366 12.8283 15.2204Z" fill="black"/>
</svg>
