<svg xmlns="http://www.w3.org/2000/svg" width="16" height="16" viewBox="0 0 16 16" fill="none">
  <path d="M7.96009 12.7502C8.23717 12.7502 8.47151 12.6544 8.66309 12.4628C8.85468 12.2712 8.9502 12.0371 8.94967 11.7606C8.94967 11.4835 8.85415 11.2492 8.66309 11.0576C8.47204 10.866 8.2377 10.7705 7.96009 10.771C7.68301 10.771 7.44894 10.8668 7.25788 11.0584C7.06683 11.25 6.97104 11.484 6.97051 11.7606C6.97051 12.0377 7.0663 12.272 7.25788 12.4636C7.44947 12.6552 7.68354 12.7507 7.96009 12.7502ZM7.24759 9.70225H8.71217C8.71217 9.26683 8.76179 8.92377 8.86101 8.67308C8.96023 8.42239 9.24048 8.07933 9.70176 7.64391C10.0448 7.30086 10.3153 6.97416 10.5132 6.66383C10.7111 6.3535 10.8101 5.98089 10.8101 5.546C10.8101 4.80711 10.5396 4.23975 9.99863 3.84391C9.45766 3.44808 8.81773 3.25016 8.07884 3.25016C7.32676 3.25016 6.71665 3.44808 6.24851 3.84391C5.78037 4.23975 5.45367 4.71475 5.26842 5.26891L6.57467 5.7835C6.64065 5.546 6.78922 5.2887 7.02038 5.01162C7.25155 4.73454 7.60437 4.596 8.07884 4.596C8.50106 4.596 8.81773 4.71158 9.02884 4.94275C9.23995 5.17391 9.34551 5.42777 9.34551 5.70433C9.34551 5.96822 9.26634 6.21575 9.10801 6.44691C8.94967 6.67808 8.75176 6.89236 8.51426 7.08975C7.9337 7.60433 7.57745 7.99357 7.44551 8.25745C7.31356 8.52134 7.24759 9.00294 7.24759 9.70225ZM7.99967 15.9168C6.90454 15.9168 5.87537 15.7091 4.91217 15.2938C3.94898 14.8784 3.11113 14.3142 2.39863 13.6012C1.68613 12.8887 1.1222 12.0509 0.706841 11.0877C0.29148 10.1245 0.0835356 9.0953 0.0830078 8.00016C0.0830078 6.90502 0.290952 5.87586 0.706841 4.91266C1.12273 3.94947 1.68666 3.11162 2.39863 2.39912C3.11113 1.68662 3.94898 1.12269 4.91217 0.70733C5.87537 0.291968 6.90454 0.0840239 7.99967 0.0834961C9.09481 0.0834961 10.124 0.291441 11.0872 0.70733C12.0504 1.12322 12.8882 1.68715 13.6007 2.39912C14.3132 3.11162 14.8774 3.94947 15.2933 4.91266C15.7092 5.87586 15.9169 6.90502 15.9163 8.00016C15.9163 9.0953 15.7084 10.1245 15.2925 11.0877C14.8766 12.0509 14.3127 12.8887 13.6007 13.6012C12.8882 14.3137 12.0504 14.8779 11.0872 15.2938C10.124 15.7097 9.09481 15.9174 7.99967 15.9168Z" fill="black"/>
</svg>