<svg width="33" height="34" viewBox="0 0 33 34" fill="none" xmlns="http://www.w3.org/2000/svg">
  <path d="M15.7222 30.2222H5.61111C4.78599 30.2222 3.99467 29.8944 3.41122 29.3109C2.82778 28.7275 2.5 27.9362 2.5 27.1111V8.44439C2.5 7.61927 2.82778 6.82795 3.41122 6.2445C3.99467 5.66106 4.78599 5.33328 5.61111 5.33328H24.2778C25.1029 5.33328 25.8942 5.66106 26.4777 6.2445C27.0611 6.82795 27.3889 7.61927 27.3889 8.44439V13.1111M21.1667 2.22217V8.44439M8.72222 2.22217V8.44439M2.5 14.6666H21.1667M27.3889 19.3333L30.5 22.4444M30.5 22.4444H25.8333C25.0769 22.4444 24.3317 22.6282 23.6621 22.9802C22.9925 23.3321 22.4185 23.8415 21.9895 24.4646C21.5605 25.0877 21.2894 25.8057 21.1996 26.5568C21.1097 27.3079 21.2038 28.0696 21.4738 28.7762C21.7437 29.4829 22.1813 30.1134 22.7491 30.6133C23.3168 31.1132 23.9975 31.4677 24.7326 31.6461C25.4678 31.8245 26.2352 31.8215 26.9689 31.6374C27.7027 31.4533 28.3806 31.0936 28.9444 30.5893M30.5 22.4444L27.3889 25.5555" stroke="white" stroke-width="3.11111" stroke-linecap="round" stroke-linejoin="round"/>
</svg>