<svg width="16" height="17" viewBox="0 0 16 17" fill="none" xmlns="http://www.w3.org/2000/svg">
  <path d="M7.61111 14.9565H2.55556C2.143 14.9565 1.74733 14.7926 1.45561 14.5008C1.16389 14.2091 1 13.8135 1 13.4009V4.06756C1 3.655 1.16389 3.25934 1.45561 2.96762C1.74733 2.6759 2.143 2.51201 2.55556 2.51201H11.8889C12.3014 2.51201 12.6971 2.6759 12.9888 2.96762C13.2806 3.25934 13.4444 3.655 13.4444 4.06756V6.4009M10.3333 0.956451V4.06756M4.11111 0.956451V4.06756M1 7.17867H10.3333M13.4444 9.51201L15 11.0676M15 11.0676H12.6667C12.2884 11.0676 11.9159 11.1595 11.5811 11.3355C11.2463 11.5114 10.9592 11.7661 10.7448 12.0777C10.5303 12.3892 10.3947 12.7482 10.3498 13.1238C10.3049 13.4993 10.3519 13.8802 10.4869 14.2335C10.6218 14.5868 10.8407 14.9021 11.1245 15.152C11.4084 15.402 11.7488 15.5792 12.1163 15.6684C12.4839 15.7576 12.8676 15.7561 13.2345 15.6641C13.6013 15.572 13.9403 15.3922 14.2222 15.14M15 11.0676L13.4444 12.6231" stroke="#04A94D" stroke-width="1.55556" stroke-linecap="round" stroke-linejoin="round"/>
</svg>