<svg xmlns="http://www.w3.org/2000/svg" width="15" height="16" viewBox="0 0 15 16" fill="none">
  <path fill-rule="evenodd" clip-rule="evenodd" d="M5.15645 0.979357C5.15642 0.79819 5.21645 0.622377 5.32672 0.480697C5.43699 0.339017 5.59096 0.239862 5.76343 0.199462C6.90631 -0.0670262 8.09314 -0.0664793 9.23579 0.201061C9.40841 0.241305 9.56256 0.340393 9.67298 0.482087C9.7834 0.623782 9.84354 0.79968 9.84355 0.980956V2.45836C9.84355 2.59877 9.87965 2.7367 9.94821 2.8583C10.0168 2.97989 10.1154 3.08087 10.2341 3.15107C10.3529 3.22127 10.4876 3.25823 10.6247 3.25823C10.7619 3.25823 10.8966 3.22127 11.0153 3.15106L12.266 2.41116C12.4194 2.32047 12.5984 2.28588 12.7736 2.31306C12.9487 2.34024 13.1097 2.42758 13.23 2.56074C14.025 3.44158 14.6178 4.4932 14.965 5.63873C15.0174 5.81197 15.0108 5.99832 14.9462 6.1672C14.8816 6.33609 14.7629 6.47749 14.6095 6.5682L13.3589 7.3073C13.2401 7.37751 13.1415 7.47849 13.073 7.60008C13.0044 7.72168 12.9683 7.85961 12.9683 8.00001C12.9683 8.14041 13.0044 8.27834 13.073 8.39994C13.1415 8.52153 13.2401 8.62251 13.3589 8.69272L14.6088 9.43102C14.762 9.5217 14.8806 9.66296 14.9452 9.83168C15.0097 10.0004 15.0164 10.1866 14.9642 10.3597C14.6194 11.5068 14.0266 12.5597 13.23 13.4401C13.1096 13.5731 12.9486 13.6603 12.7734 13.6873C12.5983 13.7144 12.4193 13.6796 12.266 13.5889L11.0153 12.849C10.8966 12.7788 10.7619 12.7418 10.6247 12.7418C10.4876 12.7418 10.3529 12.7787 10.2341 12.849C10.1154 12.9192 10.0168 13.0201 9.94821 13.1417C9.87965 13.2633 9.84355 13.4013 9.84355 13.5417V15.0215C9.84336 15.2026 9.78314 15.3783 9.67273 15.5198C9.56233 15.6614 9.40828 15.7603 9.23579 15.8006C8.0929 16.067 6.90608 16.0665 5.76343 15.799C5.59096 15.7586 5.43699 15.6594 5.32672 15.5177C5.21645 15.376 5.15642 15.2002 5.15645 15.0191V13.5417C5.15645 13.4013 5.12035 13.2633 5.05179 13.1417C4.98322 13.0201 4.88461 12.9192 4.76585 12.849C4.6471 12.7787 4.51239 12.7418 4.37527 12.7418C4.23814 12.7418 4.10343 12.7788 3.98468 12.849L2.73401 13.5889C2.58057 13.6795 2.40159 13.7141 2.22643 13.687C2.05127 13.6598 1.89033 13.5724 1.77003 13.4393C1.37369 13.0003 1.02652 12.5174 0.734963 11.9995C0.442753 11.4818 0.207982 10.9324 0.0350235 10.3613C-0.0174193 10.1881 -0.0108067 10.0017 0.0537767 9.83282C0.11836 9.66393 0.23708 9.52253 0.390461 9.43182L1.64035 8.69272C1.7591 8.62251 1.8577 8.52153 1.92626 8.39994C1.99482 8.27834 2.03091 8.14041 2.03091 8.00001C2.03091 7.85961 1.99482 7.72168 1.92626 7.60008C1.8577 7.47849 1.7591 7.37751 1.64035 7.3073L0.392024 6.569C0.238666 6.47844 0.119897 6.33723 0.0551775 6.1685C-0.00954176 5.99978 -0.0163726 5.81355 0.0358047 5.64033C0.380726 4.49349 0.973466 3.44092 1.77003 2.56074C1.89029 2.42777 2.05108 2.34055 2.22607 2.31338C2.40106 2.2862 2.57987 2.32068 2.73323 2.41116L3.98468 3.15106C4.10343 3.22127 4.23814 3.25823 4.37527 3.25823C4.51239 3.25823 4.6471 3.22127 4.76585 3.15107C4.88461 3.08087 4.98322 2.97989 5.05179 2.8583C5.12035 2.7367 5.15645 2.59877 5.15645 2.45836V0.979357ZM7.5 10.3997C8.12155 10.3997 8.71764 10.1469 9.15714 9.69684C9.59664 9.24681 9.84355 8.63644 9.84355 8.00001C9.84355 7.36358 9.59664 6.75321 9.15714 6.30318C8.71764 5.85316 8.12155 5.60033 7.5 5.60033C6.87845 5.60033 6.28236 5.85316 5.84286 6.30318C5.40336 6.75321 5.15645 7.36358 5.15645 8.00001C5.15645 8.63644 5.40336 9.24681 5.84286 9.69684C6.28236 10.1469 6.87845 10.3997 7.5 10.3997Z" fill="black"/>
</svg>