<svg width="13" height="17" viewBox="0 0 13 17" fill="none" xmlns="http://www.w3.org/2000/svg">
<path d="M1.86558 16.5C1.49004 16.5 1.16868 16.3577 0.901479 16.0731C0.633826 15.788 0.5 15.4455 0.5 15.0455V1.95455C0.5 1.55455 0.633826 1.212 0.901479 0.926909C1.16868 0.642303 1.49004 0.5 1.86558 0.5H6.64509V1.95455H1.86558V2.68182H6.64509V4.13636H1.86558V12.8636H8.69346V11.4091H10.059V15.0455C10.059 15.4455 9.92543 15.788 9.65824 16.0731C9.39058 16.3577 9.06899 16.5 8.69346 16.5H1.86558ZM1.86558 15.0455H8.69346V14.3182H1.86558V15.0455ZM9.37624 2.68182C9.28521 2.68182 9.19986 2.69709 9.1202 2.72764C9.04054 2.7577 8.96657 2.80909 8.89829 2.88182L6.44026 5.5C6.31508 5.63333 6.25249 5.80303 6.25249 6.00909C6.25249 6.21515 6.31508 6.38485 6.44026 6.51818C6.56543 6.65152 6.72475 6.72133 6.91821 6.72764C7.11166 6.73345 7.27098 6.66364 7.39616 6.51818L8.69346 5.13636V9.64545C8.69346 9.85151 8.759 10.0244 8.8901 10.164C9.02074 10.3032 9.18279 10.3727 9.37624 10.3727C9.5697 10.3727 9.73175 10.3032 9.86239 10.164C9.99348 10.0244 10.059 9.85151 10.059 9.64545V5.13636L11.3563 6.51818C11.4815 6.65152 11.6408 6.71818 11.8343 6.71818C12.0277 6.71818 12.1871 6.65152 12.3122 6.51818C12.4374 6.38485 12.5 6.21515 12.5 6.00909C12.5 5.80303 12.4374 5.63333 12.3122 5.5L9.8542 2.88182C9.78592 2.80909 9.71195 2.7577 9.63229 2.72764C9.55263 2.69709 9.46728 2.68182 9.37624 2.68182Z" fill="black"/>
</svg>
