<svg width="13" height="8" viewBox="0 0 13 8" fill="none" xmlns="http://www.w3.org/2000/svg">
<path fill-rule="evenodd" clip-rule="evenodd" d="M5.65239 0.759133C5.88677 0.525049 6.20448 0.393566 6.53573 0.393566C6.86698 0.393566 7.18469 0.525049 7.41906 0.759133L12.1341 5.47247C12.3684 5.70696 12.5001 6.02496 12.5 6.35651C12.4999 6.68806 12.3681 7.006 12.1336 7.24038C11.8991 7.47477 11.5811 7.6064 11.2496 7.60632C10.9181 7.60624 10.6001 7.47446 10.3657 7.23997L6.53573 3.40997L2.70573 7.23997C2.47008 7.46778 2.15439 7.59392 1.82664 7.59123C1.49889 7.58854 1.18531 7.45722 0.953441 7.22557C0.721571 6.99392 0.589961 6.68046 0.58696 6.35272C0.583959 6.02497 0.709805 5.70916 0.937394 5.4733L5.65156 0.758299L5.65239 0.759133Z" fill="#787878"/>
</svg>
