<svg xmlns="http://www.w3.org/2000/svg" width="19" height="19" viewBox="0 0 19 19" fill="none">
  <g clip-path="url(#clip0_1127_3865)">
    <mask id="mask0_1127_3865" style="mask-type:luminance" maskUnits="userSpaceOnUse" x="0" y="0" width="19" height="19">
      <path d="M9.49968 17.4168C10.5395 17.4182 11.5694 17.214 12.53 16.8161C13.4907 16.4181 14.3633 15.8343 15.0976 15.098C15.8338 14.3637 16.4177 13.4912 16.8156 12.5305C17.2135 11.5698 17.4177 10.54 17.4163 9.50017C17.4177 8.46034 17.2135 7.43051 16.8156 6.46984C16.4176 5.50917 15.8338 4.63661 15.0976 3.90229C14.3633 3.16606 13.4907 2.58219 12.53 2.18425C11.5694 1.78632 10.5395 1.58216 9.49968 1.5835C8.45986 1.58218 7.43002 1.78635 6.46935 2.18428C5.50868 2.58222 4.63612 3.16607 3.90181 3.90229C3.16558 4.63661 2.58173 5.50917 2.1838 6.46984C1.78586 7.43051 1.58169 8.46034 1.58301 9.50017C1.58167 10.54 1.78583 11.5698 2.18376 12.5305C2.5817 13.4912 3.16557 14.3637 3.90181 15.098C4.63612 15.8343 5.50868 16.4181 6.46935 16.8161C7.43002 17.214 8.45986 17.4182 9.49968 17.4168Z" fill="white" stroke="white" stroke-width="1.58333" stroke-linejoin="round"/>
      <path d="M6.33301 9.5L8.70801 11.875L13.458 7.125" stroke="black" stroke-width="1.58333" stroke-linecap="round" stroke-linejoin="round"/>
    </mask>
    <g mask="url(#mask0_1127_3865)">
      <path d="M0 0H19V19H0V0Z" fill="#04A94D"/>
    </g>
  </g>
  <defs>
    <clipPath id="clip0_1127_3865">
      <rect width="19" height="19" fill="white"/>
    </clipPath>
  </defs>
</svg>